<svg xmlns="http://www.w3.org/2000/svg" height="800" width="800" viewBox="0 0 512.001 512.001" xmlns:v="https://vecta.io/nano"><path d="M440.733 293.843H332.218c-4.466 0-8.084 3.62-8.084 8.084 0 47.085-38.306 85.391-85.391 85.391s-85.391-38.306-85.391-85.391c0-25.458 11.246-49.404 30.853-65.7 3.38-2.81 3.897-7.805 1.162-11.247l-67.512-84.957c-1.343-1.69-3.306-2.773-5.453-3.007a8.08 8.08 0 0 0-5.973 1.76c-49.418 40.125-77.761 99.591-77.761 163.15 0 115.835 94.239 210.073 210.074 210.073s210.074-94.238 210.074-210.073c.001-4.464-3.619-8.083-8.083-8.083z" fill="#3fc8f2"/><path d="M442.007 293.953l-31.594 7.974.006.518c0 105.524-80.977 192.119-184.177 201.074.902.055-8.784 1.359-32.85 3.535 14.611 3.228 29.783 4.945 45.351 4.945 115.835 0 210.074-94.238 210.074-210.073 0-4.029-2.953-7.36-6.81-7.973z" fill="#0daace"/><path d="M411.694 128.975c-46.196-46.196-107.619-71.639-172.951-71.639l-1.716.019-.926.014c-4.43.046-7.999 3.652-7.999 8.084v142.868c0 1.479.327 2.961 1.076 4.236 1.545 2.629 4.293 4.112 7.228 4.04l.839-.026 1.498-.036c49.752 0 89.704 42.771 85.016 93.475h151.49c4.442 0 8.083-3.585 8.084-8.027.015-65.352-25.429-126.797-71.639-173.008z" fill="#f77935"/><path d="M475.249 310.012c4.466 0 8.084-3.62 8.084-8.084 0-65.332-25.441-126.755-71.639-172.952S304.075 57.337 238.743 57.337l-1.716.019-.926.014c-4.43.046-7.999 3.652-7.999 8.084v1.476l8.084.352c116.56 14.644 204.57 114.113 204.57 234.644l-.903 8.084h35.396v.002z" fill="#d9510d"/><path d="M238.743 387.317c-47.084 0-85.391-38.306-85.391-85.391 0-25.458 11.246-49.404 30.853-65.7 3.38-2.81 3.897-7.805 1.162-11.247l-8.885-11.182c-35.951 13.213-61.597 47.756-61.597 88.29 0 51.935 42.101 94.036 94.036 94.036 14.889 0 28.965-3.465 41.477-9.624-3.813.526-7.699.818-11.655.818z" fill="#0daace"/><path d="M244.252 6.731c-.897-4.112-4.346-6.798-8.135-6.729-34.608.295-68.507 6.403-100.751 18.151-31.181 11.362-60.144 27.734-86.086 48.665-3.456 2.789-4.016 7.844-1.253 11.321L172.708 235.04c1.354 1.703 3.336 2.789 5.499 3.012a8.27 8.27 0 0 0 .83.043c1.879 0 3.709-.655 5.167-1.867 16.821-13.98 37.793-20.837 60.066-19.498V6.903a.83.83 0 0 0-.018-.172z" fill="#ffdb56"/><path d="M178.208 238.052l.83.043c1.879 0 3.709-.655 5.167-1.867 16.821-13.98 37.793-20.837 60.066-19.498V8.3c0-1.728-.459-3.454-1.463-4.861-1.561-2.189-4.043-3.486-6.69-3.437-10.835.093-21.6.756-32.267 1.981v206.904c-12.374.615-24.117 3.629-34.773 8.59l-7.318 3.787 10.948 13.778a8.09 8.09 0 0 0 5.5 3.01z" fill="#fba806"/></svg>