<svg xmlns="http://www.w3.org/2000/svg" viewBox="0 0 225.787 130.801" xmlns:v="https://vecta.io/nano"><style><![CDATA[.B{fill:#d9ad5f}.C{fill:#fff18d}.D{fill:#f9cb83}.E{fill:#359255}.F{opacity:.4}.G{fill:#7d1300}.H{fill:#dce35d}]]></style><path d="M195.633 80.1c1.525-3.799 2.341-7.895 3.71-11.754 1.356-3.823 2.514-7.708 3.572-11.622 2.198-8.063 3.653-16.337 5.884-24.375.009-.003.016-.006.021-.011l.058-.993c-.366-.768-.722-1.529-1.215-2.236-.534-.769-1.156-1.944-2.048-2.324-.095-.041-.274.019-.368.103-.922.043-1.84.33-2.732.528-.556.12-1.349.242-1.953.513.052-.106-.206-.108-.287-.028a1.11 1.11 0 0 0-.292.474c-.072.024-.132.061-.152.115-3.066 8.7-5.418 17.647-7.96 26.512l-3.504 12.883c-1.299 4.398-2.876 8.871-3.479 13.434-.201.175-.201.455.211.403 2.28-.275 4.587-.12 6.877-.285 1.203-.085 2.907.057 3.703-1.025.123-.166.066-.265-.046-.312z" class="B"/><path d="M190.862 80.835c3.173-7.627 5.171-15.875 7.201-23.858l6.474-25.101c.074-.559.101-1.123.044-1.681-.056.031-.102.072-.117.121-2.738 8.099-4.519 16.554-6.801 24.795l-3.726 13.741c-1.172 3.957-2.893 7.959-3.7 12.009-1.588.08-3.151.033-4.726.279l14.775-52.644c.018-.054-.003-.085-.024-.114.003-.006.008-.014.01-.022 1.68-.466 3.445-.846 5.18-1.012.033-.003.065-.013.097-.022.586.576.974 1.503 1.42 2.155.521.765.809 1.635 1.247 2.436-.06.036-.109.086-.124.141-2.219 7.527-3.561 15.334-5.584 22.925-1.198 4.494-2.514 8.95-4.027 13.351-1.346 3.918-2.192 8.002-3.578 11.897-1.136.548-2.726.552-4.041.604z" class="C"/><path d="M200.311 62.663c1.522-11.146 4.318-22.16 4.382-33.439-6.233 13.495-11.167 27.523-16.306 41.461l-2.875 10.456c1.574-.246 3.138-.199 4.726-.279.808-4.05 2.528-8.052 3.7-12.009 1.35-4.555 2.457-9.165 3.726-13.741 2.282-8.241 4.063-16.696 6.801-24.795.016-.049.062-.09.117-.121.057.558.03 1.122-.044 1.681-2.327 8.303-4.347 16.748-6.474 25.101-2.03 7.983-4.028 16.231-7.201 23.858 1.314-.052 2.904-.056 4.04-.604 1.386-3.896 2.232-7.979 3.578-11.897.646-1.881 1.251-3.772 1.83-5.672z" class="D"/><path d="M188.296 80.388c.626-4.044.494-8.224.952-12.291.457-4.03.703-8.075.852-12.127.311-8.352-.142-16.741.208-25.073.009-.007.016-.01.02-.016l-.169-.98c-.529-.665-1.05-1.326-1.69-1.901-.692-.629-1.566-1.635-2.521-1.8-.102-.019-.265.08-.335.185-.889.249-1.718.736-2.541 1.131-.515.246-1.259.545-1.789.941.027-.112-.224-.062-.284.037-.114.187-.16.334-.177.527-.064.041-.115.089-.123.147-1.016 9.169-1.279 18.414-1.749 27.626l-.496 13.343c-.27 4.579-.791 9.293-.345 13.87-.156.218-.094.486.297.345 2.155-.784 4.439-1.154 6.632-1.835 1.152-.355 2.845-.604 3.376-1.835.08-.187.006-.272-.118-.294z" class="B"/><path d="M183.82 82.185c1.36-8.146 1.438-16.635 1.607-24.871l.622-25.913c-.054-.563-.157-1.114-.337-1.645-.048.044-.084.094-.087.145-.832 8.507-.651 17.145-1.012 25.69l-.515 14.228c-.245 4.119-1.016 8.404-.885 12.532-1.527.439-3.062.751-4.542 1.344l2.474-54.623c.004-.055-.024-.083-.051-.104.002-.01.004-.018.004-.025 1.53-.834 3.162-1.604 4.817-2.158.03-.008.06-.025.088-.045.702.43 1.29 1.245 1.871 1.78.681.626 1.158 1.408 1.766 2.086-.048.051-.086.108-.091.166-.454 7.837.006 15.744-.244 23.594-.149 4.652-.421 9.289-.9 13.916-.423 4.119-.323 8.293-.788 12.4-.982.792-2.529 1.156-3.797 1.503z" class="C"/><path d="M188.905 62.348c-1.042-11.203-.813-22.563-3.304-33.566-3.017 14.556-4.644 29.335-6.492 44.076l-.437 10.837c1.48-.593 3.015-.904 4.542-1.344-.131-4.128.64-8.413.885-12.532.284-4.744.319-9.485.515-14.228.36-8.545.18-17.184 1.012-25.69.003-.051.039-.101.087-.145a7.24 7.24 0 0 1 .337 1.645c-.387 8.616-.44 17.298-.622 25.913-.17 8.236-.247 16.725-1.607 24.871 1.268-.347 2.814-.711 3.798-1.504.465-4.106.365-8.28.788-12.4.204-1.974.363-3.955.498-5.933z" class="D"/><path d="M176.486 76.464c.627-4.046.495-8.224.954-12.289.456-4.031.702-8.077.85-12.13.311-8.349-.142-16.735.208-25.072.009-.006.015-.011.022-.015l-.169-.98c-.533-.667-1.052-1.326-1.691-1.903-.693-.626-1.566-1.633-2.52-1.8-.102-.019-.266.082-.335.186-.889.248-1.72.736-2.542 1.13-.512.246-1.259.545-1.788.941.027-.11-.224-.057-.285.037a1.13 1.13 0 0 0-.177.528c-.063.043-.115.092-.122.149-1.018 9.168-1.279 18.415-1.749 27.623l-.496 13.344c-.271 4.579-.793 9.289-.346 13.869-.156.218-.092.488.298.347 2.156-.785 4.439-1.156 6.632-1.837 1.151-.354 2.845-.602 3.377-1.833.078-.19.003-.272-.121-.295z" class="B"/><path d="M172.01 78.261c1.363-8.146 1.439-16.633 1.61-24.871l.621-25.912c-.057-.563-.157-1.115-.338-1.646-.047.045-.082.094-.088.146-.832 8.506-.651 17.146-1.01 25.688l-.515 14.229c-.246 4.117-1.015 8.404-.884 12.534-1.529.438-3.063.747-4.543 1.343l2.473-54.624c.002-.056-.023-.081-.05-.105.002-.006.004-.013.004-.023 1.529-.835 3.162-1.606 4.816-2.16.031-.005.059-.025.087-.043.704.43 1.292 1.245 1.873 1.778.683.628 1.155 1.412 1.766 2.089-.05.053-.089.11-.092.166-.455 7.835.008 15.743-.243 23.592-.151 4.653-.423 9.29-.9 13.92-.421 4.117-.323 8.29-.789 12.396-.982.79-2.529 1.157-3.798 1.503z" class="C"/><path d="M177.098 58.423c-1.045-11.202-.813-22.561-3.308-33.564-3.016 14.553-4.643 29.334-6.491 44.074l-.435 10.839c1.48-.596 3.014-.905 4.543-1.343-.131-4.13.638-8.417.884-12.534.283-4.742.317-9.485.515-14.229.358-8.541.178-17.182 1.01-25.688.006-.053.041-.102.088-.146.181.531.281 1.084.338 1.646-.388 8.615-.44 17.297-.621 25.912-.172 8.238-.247 16.725-1.61 24.871 1.27-.346 2.816-.713 3.799-1.504.466-4.106.368-8.279.789-12.396a182.28 182.28 0 0 0 .499-5.938z" class="D"/><path d="M203.06 87.272c1.391-3.852 2.058-7.974 3.292-11.88 1.223-3.867 2.238-7.792 3.164-11.738 1.906-8.136 3.07-16.454 5.015-24.567.008-.002.015-.008.022-.011l.021-.994c-.394-.757-.775-1.506-1.293-2.195-.561-.746-1.225-1.9-2.131-2.247-.095-.037-.274.027-.364.115-.918.075-1.825.395-2.709.623-.551.144-1.342.293-1.936.581.048-.104-.21-.103-.287-.017-.147.157-.221.297-.275.481-.068.03-.13.068-.147.123-2.758 8.805-4.791 17.827-7.018 26.775l-3.049 13c-1.143 4.442-2.56 8.966-2.999 13.546-.195.182-.188.463.224.396 2.268-.357 4.58-.284 6.862-.526 1.199-.131 2.908-.049 3.665-1.154.116-.171.058-.265-.057-.311z" class="B"/><path d="M198.319 88.176c2.901-7.733 4.605-16.046 6.355-24.1l5.58-25.311c.056-.563.061-1.126-.015-1.682-.057.033-.101.075-.114.124-2.45 8.192-3.93 16.704-5.921 25.021l-3.235 13.865c-1.031 3.995-2.611 8.053-3.273 12.131-1.585.138-3.148.146-4.714.448l12.905-53.135c.016-.056-.003-.086-.027-.113.003-.006.006-.015.008-.022 1.663-.525 3.413-.97 5.141-1.192.033-.007.064-.018.097-.031.607.558 1.027 1.471 1.495 2.108.548.746.864 1.604 1.334 2.389-.059.041-.107.087-.122.143-1.951 7.604-3.014 15.454-4.768 23.11-1.04 4.534-2.197 9.032-3.554 13.484-1.205 3.963-1.909 8.074-3.154 12.017-1.117.589-2.707.65-4.018.746z" class="C"/><path d="M207.118 69.683c1.127-11.195 3.531-22.299 3.197-33.574-5.752 13.704-10.189 27.896-14.83 42.01l-2.504 10.555c1.565-.303 3.129-.311 4.714-.448.662-4.078 2.242-8.136 3.273-12.131 1.187-4.599 2.132-9.248 3.235-13.865 1.991-8.316 3.471-16.828 5.921-25.021.014-.049.058-.091.114-.124.075.556.07 1.118.015 1.682-2.033 8.375-3.752 16.89-5.58 25.311-1.749 8.054-3.453 16.366-6.355 24.1 1.311-.096 2.9-.157 4.017-.746 1.245-3.942 1.949-8.054 3.154-12.017a175.51 175.51 0 0 0 1.629-5.732z" class="D"/><path d="M200.709 88.784c2.173-3.471 3.705-7.355 5.739-10.91 2.014-3.521 3.841-7.14 5.581-10.801 3.591-7.546 6.493-15.43 10.115-22.94.011 0 .018-.005.025-.008l.23-.967c-.224-.821-.438-1.639-.797-2.421-.391-.847-.794-2.118-1.604-2.646-.087-.058-.276-.032-.381.036-.916-.119-1.87-.003-2.783.033-.566.022-1.37.001-2.014.158.071-.094-.183-.146-.278-.079-.175.123-.274.243-.368.413-.075.013-.143.038-.172.088-4.563 8.018-8.463 16.405-12.54 24.676l-5.738 12.057c-2.059 4.099-4.405 8.222-5.806 12.6-.23.137-.278.414.136.435 2.292.134 4.533.697 6.817.94 1.197.13 2.851.571 3.824-.35.154-.139.117-.247.014-.314z" class="B"/><path d="M195.885 88.661c4.475-6.945 7.907-14.707 11.323-22.202l10.825-23.549c.175-.54.299-1.089.344-1.647-.061.021-.114.052-.138.101-4.132 7.481-7.385 15.486-11.096 23.192l-6.105 12.861c-1.855 3.685-4.259 7.316-5.771 11.158-1.58-.201-3.11-.524-4.704-.562l23.891-49.185c.025-.052.013-.088-.004-.116.004-.007.009-.015.014-.021 1.736-.163 3.54-.224 5.275-.076.034.004.066-.002.1-.005.475.67.692 1.653 1.015 2.376.377.841.504 1.751.796 2.612-.066.029-.123.066-.147.118-3.522 7.016-6.227 14.461-9.564 21.568-1.979 4.213-4.066 8.364-6.336 12.425-2.018 3.615-3.578 7.487-5.633 11.074-1.219.338-2.783.063-4.085-.122z" class="C"/><path d="M208.408 72.457c3.477-10.701 8.186-21.042 10.249-32.13-8.528 12.17-15.876 25.096-23.406 37.905l-4.689 9.781c1.594.037 3.124.36 4.704.562 1.513-3.842 3.916-7.474 5.771-11.158 2.137-4.244 4.046-8.585 6.105-12.861 3.711-7.706 6.964-15.711 11.096-23.192.023-.049.077-.079.138-.101a7.22 7.22 0 0 1-.344 1.647c-3.764 7.755-7.249 15.708-10.825 23.549-3.416 7.495-6.849 15.257-11.323 22.202 1.302.185 2.866.46 4.083.123 2.055-3.587 3.614-7.459 5.633-11.074.97-1.733 1.9-3.486 2.808-5.253z" class="D"/><path d="M171.901 84.938c1.523-3.798 2.34-7.896 3.71-11.753 1.356-3.823 2.513-7.707 3.574-11.622 2.194-8.063 3.651-16.335 5.881-24.373.008-.004.016-.008.023-.01l.057-.997c-.365-.765-.722-1.528-1.214-2.235-.536-.766-1.156-1.944-2.051-2.322-.093-.042-.274.019-.366.104-.922.043-1.84.328-2.733.527-.554.122-1.349.244-1.953.512.052-.104-.205-.11-.287-.028-.151.155-.23.287-.29.472-.072.027-.133.063-.154.12-3.066 8.697-5.416 17.645-7.96 26.508l-3.503 12.885c-1.301 4.396-2.876 8.87-3.479 13.431-.202.178-.202.455.212.406 2.279-.277 4.583-.123 6.875-.286 1.203-.084 2.907.054 3.703-1.024.121-.168.07-.265-.045-.315z" class="B"/><path d="M167.131 85.671c3.172-7.621 5.17-15.871 7.199-23.857l6.474-25.1c.076-.56.102-1.12.047-1.677-.057.03-.104.071-.118.119-2.738 8.099-4.519 16.556-6.802 24.796l-3.725 13.739c-1.174 3.957-2.893 7.958-3.699 12.009-1.589.079-3.153.035-4.728.279l14.776-52.645c.017-.053-.004-.086-.023-.111 0-.008.005-.017.008-.022 1.68-.468 3.444-.848 5.181-1.014.033 0 .063-.014.097-.021.587.577.974 1.503 1.418 2.157.523.762.811 1.635 1.247 2.431-.058.039-.109.088-.124.142-2.219 7.528-3.559 15.336-5.583 22.926-1.199 4.495-2.515 8.949-4.028 13.351-1.343 3.914-2.19 8.004-3.575 11.896-1.139.55-2.727.556-4.042.602z" class="C"/><path d="M176.577 67.505c1.522-11.151 4.32-22.162 4.384-33.44-6.234 13.492-11.17 27.52-16.307 41.457l-2.875 10.458c1.574-.244 3.139-.2 4.728-.279.807-4.051 2.525-8.052 3.699-12.009 1.348-4.553 2.457-9.166 3.725-13.739 2.283-8.24 4.064-16.697 6.802-24.796.015-.048.062-.089.118-.119.055.557.029 1.117-.047 1.677-2.326 8.306-4.346 16.75-6.474 25.1-2.029 7.986-4.027 16.236-7.199 23.857 1.315-.046 2.903-.052 4.041-.603 1.385-3.892 2.232-7.981 3.575-11.896a160.44 160.44 0 0 0 1.83-5.668z" class="D"/><path d="M185.609 88.254c1.526-3.798 2.343-7.897 3.711-11.754 1.357-3.822 2.513-7.709 3.574-11.622 2.194-8.063 3.653-16.336 5.882-24.375.01-.002.016-.005.023-.01l.058-.995c-.367-.767-.724-1.528-1.217-2.237-.534-.766-1.155-1.941-2.047-2.322-.096-.039-.275.021-.367.104-.923.042-1.841.329-2.734.528-.554.122-1.349.245-1.952.512.052-.105-.206-.109-.287-.027a1.1 1.1 0 0 0-.291.472c-.073.025-.134.06-.153.116-3.067 8.7-5.418 17.646-7.961 26.512l-3.506 12.883c-1.298 4.4-2.874 8.87-3.475 13.434-.202.175-.202.452.211.403 2.28-.275 4.585-.12 6.874-.288 1.203-.082 2.908.057 3.705-1.022.122-.165.067-.263-.048-.312z" class="B"/><path d="M180.842 88.989c3.171-7.628 5.169-15.875 7.199-23.858l6.472-25.099c.076-.564.102-1.122.046-1.681-.055.033-.101.071-.117.122-2.738 8.098-4.517 16.553-6.802 24.793l-3.725 13.742c-1.173 3.955-2.892 7.955-3.698 12.006-1.59.083-3.152.035-4.729.281l14.777-52.647c.015-.052-.004-.083-.025-.11.004-.008.008-.014.01-.021 1.679-.47 3.443-.847 5.18-1.014.034-.003.064-.013.097-.025.588.579.975 1.506 1.42 2.159.521.765.809 1.634 1.248 2.434-.061.039-.109.086-.125.142-2.219 7.527-3.562 15.333-5.583 22.925-1.2 4.496-2.515 8.949-4.028 13.351-1.345 3.915-2.192 8.003-3.577 11.896-1.138.55-2.729.553-4.04.604z" class="C"/><path d="M190.29 70.82c1.52-11.148 4.315-22.163 4.38-33.441-6.232 13.492-11.168 27.521-16.303 41.46l-2.879 10.457c1.576-.246 3.139-.198 4.729-.281.807-4.051 2.525-8.051 3.698-12.006 1.35-4.557 2.459-9.167 3.725-13.742 2.285-8.24 4.064-16.695 6.802-24.793.016-.051.063-.089.117-.122.056.559.03 1.116-.046 1.681-2.326 8.303-4.344 16.747-6.472 25.099-2.03 7.983-4.028 16.23-7.199 23.858 1.312-.051 2.902-.055 4.039-.606 1.385-3.894 2.232-7.981 3.577-11.896.647-1.88 1.249-3.771 1.832-5.668z" class="D"/><path d="M171.296 81.992c-.052-4.095-.873-8.19-1.086-12.278-.219-4.051-.643-8.082-1.163-12.102-1.07-8.289-2.9-16.485-3.927-24.765.005-.007.011-.014.017-.02l-.33-.938c-.633-.568-1.255-1.137-1.982-1.601-.788-.5-1.813-1.352-2.783-1.357-.103-.001-.25.124-.301.237-.834.391-1.571 1.009-2.318 1.534-.467.326-1.154.743-1.607 1.223.008-.116-.233-.022-.275.086a1.15 1.15 0 0 0-.091.55c-.054.052-.096.105-.095.167.51 9.209 1.775 18.373 2.832 27.533l1.708 13.242c.49 4.561.754 9.293 1.946 13.735-.116.24-.013.5.352.295 1.998-1.134 4.188-1.873 6.238-2.907 1.078-.541 2.708-1.063 3.027-2.365.049-.198-.039-.267-.162-.269z" class="B"/><path d="M167.174 84.501c0-8.256-1.32-16.642-2.511-24.795l-3.661-25.66c-.145-.546-.339-1.072-.604-1.568-.041.049-.067.105-.063.157.58 8.532 2.185 17.021 3.244 25.508l1.834 14.115c.436 4.105.382 8.457 1.193 12.509-1.437.686-2.895 1.244-4.257 2.073l-6.568-54.281c-.007-.056-.036-.078-.066-.095 0-.008 0-.017-.002-.025 1.372-1.078 2.856-2.105 4.395-2.924.029-.014.055-.037.079-.06.765.309 1.48 1.015 2.14 1.448.778.507 1.374 1.201 2.086 1.769-.038.059-.066.119-.061.179.842 7.8 2.602 15.525 3.647 23.309.62 4.614 1.113 9.232 1.407 13.875.261 4.135 1.05 8.231 1.264 12.359-.837.941-2.303 1.558-3.496 2.107z" class="C"/><path d="M168.922 64.099c-2.877-10.876-4.522-22.12-8.796-32.56-.573 14.851.257 29.697.863 44.541l1.36 10.76c1.362-.829 2.82-1.388 4.257-2.073-.812-4.052-.758-8.403-1.193-12.509-.502-4.723-1.25-9.406-1.834-14.115-1.059-8.487-2.664-16.976-3.244-25.508-.004-.052.022-.108.063-.157.265.496.458 1.022.604 1.568 1.037 8.561 2.416 17.135 3.661 25.66 1.191 8.153 2.511 16.539 2.511 24.795 1.193-.549 2.659-1.166 3.497-2.107-.214-4.128-1.003-8.225-1.264-12.359a180.48 180.48 0 0 0-.485-5.936z" class="D"/><path d="M197.882 111.295c.004-.037-.005-.062-.016-.089 2.605-6.276 5.175-12.77 7.239-19.237l3.312-10.029c.809-2.247 1.399-4.912 2.336-7.277.029-.023.053-.051.063-.078l.413-1.014c.258-.541.532-1.066.847-1.548.123-.184.073-.296-.044-.35l.326-.758c.334-.752 1.661-2.461 1.593-3.329-.056-.69-.388-.956-1.109-.811-.404.082-.805.262-1.163.457-1.209.66-1.345-.045-2.037-1.085-.493-.747-1.217-1.103-2.101-.719a13.87 13.87 0 0 0-1.473.762c-1.697.979-1.727-1.594-2.538-2.028-.855-.455-1.654-.245-2.497.196-1.884.987-2.103-1.249-3.651-1.559-.837-.165-1.985 1.301-2.692 1.303-.019-.016-.025-.031-.053-.046-1.109-.612-1.659-2.812-3.05-2.897-.637-.042-.997-.037-1.627.16-1.352.425-2.002.098-3.094-.729-1.156-.877-2.908.966-3.939-.001-.799-.75-1.061-2.156-2.493-1.69-.744.244-1.272.571-1.922 1.026-.398.279-1.362-1.475-1.769-1.786-.521-.404-1.859.067-2.305.345-1.472.904-1.879 1.458-3.352-.394-.407-.518-.747-.99-1.435-1.114-1.215-.224-3.032 1.946-4.019 1.101-.68-.867-.982-2.425-2.396-2.152-1.633.311-2.788 1.665-4.057-.097-.524-.726-1.133-.934-1.964-.496-.795.422-1.814 1.236-2.722.58-.416-.3-.619-.775-1.131-.961-.178-.064-.505.026-.523.245-.013.135.029.154.124.257.033.031.084.05.139.05.008.009.013.02.018.025-.119-.051-.397.03-.429.157-1.847 7.326-2.977 14.983-3.659 22.502-.693 7.652-1.935 15.14-2.118 22.846-.014.018-.036.031-.042.052-.792 1.642-2.489 2.75-3.131 4.387-.042.112-.036.214.047.304.869.947 2.432.479 3.555.293 3.491-.583 6.29 1.472 9.506 2.661 2.781 1.029 5.74 1.51 8.618 2.192 3.102.737 6.129 1.731 9.24 2.434 5.387 1.219 11.058 1.815 16.578 1.582 1.593-.066 3.079-.104 4.581.544.284.122.591-.025.856-.12 1.184-.414 1.037-3.133 1.16-4.067z" fill="#a74634"/><path d="M195.613 114.289c-.666-.266-.808-.315-1.498-.495-.429-.113-2.271.296-2.48.318-1.266.146-2.544-.07-3.817-.062-5.614.037-11.648-1.039-17.045-2.638-5.867-1.736-11.886-2.706-17.464-5.314-1.749-.816-2.577-1.606-4.556-1.154-.886.199-4.414.987-2.834-.858.735-.861 1.327-1.714 1.8-2.715.102-.075.174-.172.18-.273a360.88 360.88 0 0 1 2.069-22.154c.965-7.775 1.561-15.634 3.207-23.312.011-.048-.012-.071-.045-.092.505.601.899 1.735 1.761 1.714 1.368-.03 2.355-2.076 3.547-.444.682.933 1.453 1.202 2.517.891.455-.131 1.063-.519 1.451-.759.623-.382 1.926 1.295 2.534 1.665.072.044.181.044.297.023.374.484.708.603 1.433.324.548-.208 1.086-.628 1.588-.917 1.768-1.021 1.842 1.353 2.779 1.906 1.021.608 1.735.274 2.758-.278 1.544-.834 2.451-.881 3.283.873.105.221.312.392.56.386.294-.008.64-.038.903-.192 1.28-.749 2.388-.792 3.423.422.808.942 1.897.708 2.901.229 1.292-.611 2.4 1.179 3.823 1.056 1.494-.127 3.078-.06 3.943 1.271.291.45.574.592.95.708a1.3 1.3 0 0 1 .12.401c.029.123.206.152.308.149.966-.026 1.731-.629 2.534-1.125.988-.613 1.574 1.593 2.462 1.88.66.216 1.476-.307 2.031-.595 2.779-1.428 1.911 2.175 3.709 2.064.861-.051 3.118-1.315 3.662-.933.705.492.554 2.327 1.772 2.3.991-.022 3.716-2.191 1.913.543-.784 1.184-1.355 2.771-1.703 4.27-1.046 2.114-1.699 4.616-2.402 6.754-1.211 3.669-2.592 7.271-3.71 10.978-2.088 6.913-5.881 13.458-7.445 20.508-.016.074.01.124.046.16a14.09 14.09 0 0 0-.523 2.089c.13.781-.118.922-.742.428z" fill="#e64525"/><path d="M156.999 57.68c.224-.111.455-.075.641.09.772.695 1.409 1.491 2.1 2.261.79-.81 1.905-2.053 2.974-1.772.925.243 2.5 3.686 3.196 3.17.591-.438 2.271-2.574 3.285-1.887 1.141.769 1.592 2.197 2.518 3.188 1.023-.868 1.986-1.711 3.207-2.328.265-.132.567-.053.724.199.54.874 1.02 2.017 1.776 2.72.893.829 2.01-.595 2.629-1.039.724-.513 1.953-.142 2.496.467.714.792 1.204 2.626 2.851 1.271.576-.47 1.006-.802 1.739-.953 1.133-.232 1.68.633 2.188 1.482 1.032 1.72 2.153-.543 3.465.222 1.075.622 1.303 3.711 3.068 2.088.649-.601 1.695-1.344 2.595-.88.468.241.976 1.635 1.268 1.916.932.904 2.175-.199 2.977-.588.257-.125.578-.067.724.2.663 1.217 1.09 2.713 2.615 1.788.496-.302 1.054-.604 1.66-.444.513.135 1.038.475 1.22.994.431 1.221 1.036 2.001 1.77 2.429.345-1.146.816-2.271 1.409-3.17 1.803-2.734-.922-.565-1.913-.543-1.219.027-1.067-1.808-1.772-2.3-.544-.383-2.801.882-3.662.933-1.798.11-.93-3.492-3.709-2.064-.556.288-1.371.811-2.031.595-.888-.287-1.474-2.493-2.462-1.88-.803.496-1.568 1.099-2.534 1.125-.102.003-.278-.026-.308-.149a1.32 1.32 0 0 0-.12-.401c-.376-.116-.659-.258-.95-.708-.865-1.331-2.449-1.398-3.943-1.271-1.423.123-2.531-1.667-3.823-1.056-1.004.478-2.094.713-2.901-.229-1.035-1.214-2.143-1.171-3.423-.422-.264.154-.609.185-.903.192-.248.006-.455-.165-.56-.386-.832-1.754-1.739-1.707-3.283-.873-1.023.553-1.736.887-2.758.278-.938-.554-1.012-2.928-2.779-1.906-.502.289-1.04.709-1.588.917-.725.278-1.059.16-1.433-.324-.116.021-.225.021-.297-.023-.608-.37-1.911-2.047-2.534-1.665-.388.24-.996.628-1.451.759-1.063.312-1.835.042-2.517-.891-1.191-1.632-2.179.414-3.547.444-.861.021-1.256-1.112-1.761-1.714.033.021.056.044.045.092l-.899 4.839 4.721-2.793z" fill="#fff"/><path d="M162.143 69.911l-4.003-2.933c3.587 7.224 9.56 13.079 17.072 16.376-1.91-2.277-3.703-4.654-5.693-6.863-2.23-2.473-4.767-4.528-7.376-6.58zm12.864 18.578c2.733.433 5.631.021 8.238-.797 3.379-1.061 5.905-2.444 6.977-5.443-4.658 3.131-9.831 4.828-15.215 6.24z" fill="#f59083"/><path d="M196.355 113.86c.126-.737.296-1.405.523-2.089-.036-.036-.062-.086-.046-.16 1.564-7.05 5.357-13.595 7.445-20.508 1.118-3.706 2.499-7.309 3.71-10.978.703-2.138 1.356-4.64 2.402-6.754.348-1.499.919-3.086 1.703-4.27 1.803-2.734-.922-.565-1.913-.543-1.219.027-1.067-1.808-1.772-2.3-.189-.134-.592-.061-1.063.082-1.976 2.227-4.174 4.231-6.77 5.673-3.186 1.775-6.61 3.054-9.933 4.537-2.379 1.061-5.061 1.503-7.251 2.936 5.432 1.404 11.324-1.15 16.305-3.145.366-.147.772.292.652.648-1.909 5.551-6.237 11.532-11.281 14.661-4.581 2.842-10.203 3.467-15.474 2.66-9.747-1.488-19.455-8.791-19.033-19.463.021-.549.698-.708.991-.264 2.152 3.237 4.896 5.638 8.117 7.785 2.124 1.415 4.601 3.226 7.198 3.699-1.521-2.253-4.564-3.949-6.387-5.809-2.347-2.39-4.509-4.941-6.252-7.812-2.737-4.507-4.71-9.371-5.505-14.537-1.31 6.952-1.886 14.023-2.756 21.03-.92 7.401-1.605 14.706-2.069 22.154-.006.102-.078.198-.18.273-.473 1.001-1.064 1.854-1.8 2.715-1.58 1.846 1.948 1.058 2.834.858 1.979-.452 2.807.338 4.556 1.154 5.578 2.608 11.597 3.578 17.464 5.314 5.396 1.599 11.431 2.675 17.045 2.638 1.273-.009 2.552.208 3.817.062.209-.022 2.052-.432 2.48-.318.69.18.832.229 1.498.495.627.499.875.358.745-.424z" fill="#bf5d61"/><path d="M159.064 75.578c3.032 4.65 6.818 7.847 11.525 10.134-1.587-2.072-4.387-3.692-6.109-5.45-2.347-2.39-4.509-4.941-6.252-7.812-1.21-1.993-2.262-4.062-3.138-6.19.752 3.294 2.105 6.457 3.974 9.318zm38.302 1.002c1.646-.933 2.956-2.199 4.202-3.529l2.354-3.368c-1.047.872-2.153 1.668-3.348 2.332-3.186 1.775-6.61 3.054-9.933 4.537-1.944.869-4.088 1.33-6.003 2.25 4.214 1.431 8.997-.102 12.728-2.222z" fill="#f59083"/><path d="M196.355 113.86c.126-.737.296-1.405.523-2.089-.036-.036-.062-.086-.046-.16 1.564-7.05 5.357-13.595 7.445-20.508 1.118-3.706 2.499-7.309 3.71-10.978l1.263-3.919-.645 1.197c-2.598 5.007-5.184 9.931-8.889 14.231-2.909 3.378-6.076 6.679-10.494 7.939-3.977 1.133-8.193 1.061-12.277.649-8.092-.812-18.338-3.191-22.917-10.671-2.604-4.259-3.38-9.042-3.67-13.91l-.391 3.301c-.92 7.401-1.605 14.706-2.069 22.154-.006.102-.078.198-.18.273-.473 1.001-1.064 1.854-1.8 2.715-1.58 1.846 1.948 1.058 2.834.858 1.979-.452 2.807.338 4.556 1.154 5.578 2.608 11.597 3.578 17.464 5.314 5.396 1.599 11.431 2.675 17.045 2.638 1.273-.009 2.552.208 3.817.062.209-.022 2.052-.432 2.48-.318.69.18.832.229 1.498.495.625.496.873.355.743-.427z" fill="#bf5d61"/><path d="M36.472 118.423c-4.197.034-11.297-.328-11.681-3.12L7.818 54.649l-.057-.516 59.843-8.182.085.51c.024.152.09.559-.058 60.646l-.005 2.029c.041.098.076.191.09.304.465 3.404-10.342 6.755-20.745 8.18-3.652.5-7.283.778-10.499.803z" fill="#831f2c"/><path d="M9.003 55.034l16.828 60.053c.163 1.172 3.553 2.331 10.634 2.273 3.169-.025 6.753-.299 10.363-.793 12.644-1.729 20.075-5.237 19.835-6.993l-.1-.229.007-2.24.076-59.95-57.643 7.879z" fill="#ef485b"/><path d="M19.506 84.333l-5.681-20.271-2.572-9.333-2.25.306 16.828 60.053c.076.557.9 1.112 2.497 1.537-2.104-10.936-5.963-21.597-8.822-32.292z" fill="#fff"/><path d="M66.57 107.104l.076-59.95-57.644 7.88 1.377 4.989c3.211 1.588 6.862 2.306 10.433 2.567 4.871.358 10.129.579 14.974 0 2.918-.351 7.095-1.58 9.688.417 2.179 1.675 3.2 4.509 3.815 7.094 1.655 6.918 1.617 14.221 2.435 21.268.724 6.257 1.327 12.557 2.365 18.771.273 1.645.607 3.279.945 4.912 7.57-1.809 11.812-4.144 11.628-5.478l-.1-.229.008-2.241z" fill="#ef485b"/><path d="M23.389 60.056h0c-4.95.041-16.523-.31-17.084-4.409l-2.918-8.982 66.521-9.098-.395 9.528c.373 2.659-4.561 5.11-8.767 6.686-5.725 2.141-13.469 3.945-21.809 5.088-5.412.739-10.788 1.151-15.548 1.187z" fill="#999b9e"/><g fill="#d3d5d6"><path d="M4.789 47.544l2.546 7.867c.268 1.892 5.318 3.669 16.043 3.583 4.718-.038 10.049-.447 15.418-1.182 8.262-1.127 15.926-2.914 21.579-5.028 5.273-1.974 8.296-4.081 8.083-5.639l.336-8.354-64.005 8.753z"/><path d="M4.789 47.544l.1.307c3.14 3.022 8.182 4.118 12.302 4.712 6.532.939 12.805.873 19.295-.234 4.09-.695 9-1.493 11.935 2.117.372.461.681.963.961 1.482 4.114-.913 7.868-1.975 10.994-3.144 5.273-1.974 8.296-4.081 8.083-5.639l.336-8.354-64.006 8.753z"/></g><path d="M21.473 51.783c-5.19.043-17.324-.325-17.911-4.61-.701-5.125 16.006-10.23 32.079-12.428 5.683-.774 11.327-1.207 16.324-1.249 5.19-.039 17.326.325 17.913 4.609.391 2.872-4.778 5.44-9.188 7.088-6.008 2.246-14.138 4.144-22.892 5.341-5.682.778-11.329 1.211-16.325 1.249z" fill="#999b9e"/><path d="M51.974 34.558c-4.952.041-10.55.467-16.191 1.239-18.919 2.588-31.612 7.998-31.169 11.232.261 1.904 5.57 3.781 16.85 3.692 4.953-.041 10.552-.468 16.191-1.238 8.679-1.188 16.727-3.064 22.664-5.283 5.551-2.078 8.731-4.302 8.505-5.95-.26-1.902-5.572-3.779-16.85-3.692z" fill="#fff"/><path d="M38.906 40.371a24.6 24.6 0 0 0-3.116.238c-3.645.499-6.088 1.54-6.004 2.162.052.367 1.074.729 3.244.712.956-.008 2.035-.091 3.121-.238 1.67-.229 3.221-.592 4.364-1.018 1.068-.401 1.68-.829 1.638-1.148-.051-.362-1.074-.725-3.247-.708z" fill="#5c5f61"/><path d="M32.668 2.486l-4.545 1.342-.255-.29-4.305.192 7.857 39.225c.038.269.79.535 2.39.522.703-.005 1.496-.064 2.296-.176 1.23-.167 2.374-.432 3.214-.748.787-.296 1.238-.611 1.207-.844L32.668 2.486z" fill="#2a8c43"/><path d="M39.385 42.522c.744-.284 1.173-.589 1.142-.813L32.668 2.486l-1.89.556c.571 2.963 7.401 33.671 8.607 39.48z" opacity=".5" fill="#00733b"/><path d="M24.58 3.685l-1.017.045 7.857 39.225c.025.193.434.384 1.257.474-2.572-13.278-4.608-26.669-8.097-39.744z" fill="#2a8c43"/><path d="M30.278 1.962c-.702.006-1.495.067-2.296.177-2.682.364-4.482 1.133-4.419 1.591.037.27.791.537 2.39.524.702-.005 1.495-.067 2.296-.176 1.23-.169 2.37-.435 3.214-.748.788-.295 1.238-.61 1.205-.844-.038-.269-.79-.536-2.39-.524z" fill="#00491b"/><path d="M154.047 113.306l.911-1.352c.556-.931.886-1.98 1.539-2.828 1.81-4.047 2.831-8.248 2.348-12.846-.61-5.813-3.669-11.313-7.185-15.859-7.538-9.753-19.632-14.402-31.394-16.611-12.762-2.396-25.912-1.066-37.821 4.12-10.027 4.369-19.905 11.275-24.131 21.728-2.078 5.14-2.497 11.052-1.362 16.455a18.87 18.87 0 0 0 4.291 8.629c-.116.051-.227.238-.134.32 3.154 2.897 6.149 5.338 10.123 7.04 4.121 1.769 8.514 3.1 12.803 4.393 8.692 2.616 18.157 2.591 27.145 2.057 8.962-.532 17.955-2.274 26.438-5.221 3.88-1.348 7.314-3.391 10.763-5.592 2.049-1.311 4.004-2.724 5.666-4.433z" fill="#8e523a"/><path d="M138.097 70.72c-12.062-6.162-26.745-8.566-40.136-6.499a62.58 62.58 0 0 0-19.637 6.502c-5.691 3.003-11.387 6.813-15.329 11.993-4.119 5.414-6.355 12.265-5.804 19.101.287 3.535 1.145 7.07 3.017 10.123 1.438 2.342 3.246 4.09 5.238 5.807 5.597 3.582 11.881 5.675 18.337 7.611 8.422 2.525 17.336 2.802 26.073 2.337 8.683-.458 17.352-1.866 25.646-4.524 4.095-1.312 7.778-3.08 11.414-5.366 2.855-1.798 5.551-3.648 7.757-6.118 1.565-3.326 3.207-6.813 3.45-10.529.855-12.942-9.05-24.833-20.026-30.438z" fill="#fce8c7"/><g fill="#fdd57c"><path d="M138.097 70.72c-12.062-6.162-26.745-8.566-40.136-6.499a62.58 62.58 0 0 0-19.637 6.502c-3.331 1.759-6.655 3.805-9.639 6.229 9.676-3.473 20.122-3.293 30.336-.497 6.62 1.812 12.842 4.952 19.51 6.54 7.581 1.805 14.438.456 21.609-2.239.213-.08.493.086.537.304.625 3.046-1.516 5.891-3.448 8.02-2.223 2.446-4.757 4.534-7.265 6.664 2.522-.562 4.773-2.655 6.5-4.393 1.844-1.855 3.298-3.837 4.843-5.911.685-.921 1.938-.662 2.583.242 1.182 1.66 1.541 4.179 1.434 6.184-.555 10.669-10.208 19.828-19.518 23.739-9.034 3.798-19.916 5.255-29.647 4.006-4.309-.553-8.918-1.606-12.452-4.285-2.689-2.038-5.352-5.067-4.67-8.714 1.247-6.679 9.303-11.074 15.542-13.134-4.148-.601-8.446 1.536-12.335 2.69-.249.071-.449-.089-.538-.306-.618-1.52-.569-3.08-.723-4.687-.197-2.037-.949-3.968-2.037-5.699-1.651-2.631-3.772-4.268-6.709-5.264-1.689-.573-3.749-1.069-5.841-1.263-1.23 1.172-2.378 2.419-3.401 3.766-4.119 5.414-6.355 12.265-5.804 19.101.287 3.535 1.145 7.07 3.017 10.123 1.438 2.342 3.246 4.09 5.238 5.807 5.597 3.582 11.881 5.675 18.337 7.611 8.422 2.525 17.336 2.802 26.073 2.337 8.683-.458 17.352-1.866 25.646-4.524 4.095-1.312 7.778-3.08 11.414-5.366 2.855-1.798 5.551-3.648 7.757-6.118 1.565-3.326 3.207-6.813 3.45-10.529.855-12.941-9.05-24.832-20.026-30.437z"/><path d="M73.812 74.184c3.657-.273 7.244-1.093 10.877-1.553 3.414-.432 6.826-.675 10.23-.006 3.397.667 6.628 1.852 9.9 2.956 7.439 2.515 15.297 4.481 23.199 4.431 4.03-.024 8.042-.405 11.876-1.709 1.935-.659 3.86-1.468 5.434-2.804-2.278-1.88-4.724-3.5-7.232-4.779-12.062-6.162-26.745-8.566-40.136-6.499a62.58 62.58 0 0 0-19.637 6.502c-2.033 1.076-4.055 2.269-6.007 3.578l1.496-.117zm82.394 30.588c-2.002 4.765-6.662 8.198-10.985 10.719a70.39 70.39 0 0 1-38.154 9.616c-7.317-.249-14.971-1.126-22.116-2.793-5.039-1.182-13.524-3.215-15.251-9.018-2.41-8.09 8.778-12.553 7.847-20.291-.979-8.128-8.181-9.899-15.191-9.41-3.706 5.268-5.686 11.754-5.163 18.221.287 3.535 1.145 7.07 3.017 10.123 1.438 2.342 3.246 4.09 5.238 5.807 5.597 3.582 11.881 5.675 18.337 7.611 8.422 2.525 17.336 2.802 26.073 2.337 8.683-.458 17.352-1.866 25.646-4.524 4.095-1.312 7.778-3.08 11.414-5.366 2.855-1.798 5.551-3.648 7.757-6.118 1.565-3.326 3.207-6.813 3.45-10.529.077-1.146.064-2.283-.023-3.407-.339 2.45-.981 4.842-1.896 7.022z"/></g><path d="M120.763 119.944c1.31.91 2.705 1.36 4.31 1.28 1.585-.076 2.295-1.609 3.046-2.753.441-.676.959-1.525 1.868-1.651.494-.07.863-.029 1.154.089.006.012.013.023.02.034 1.013.401 1.72 1.668 2.361 2.759.156.092.313.176.458.228 1.41.49 2.761.396 4.167-.088 1.397-.48 2.466-1.151 2.889-2.631.521-1.833-1.614-3.854-.645-5.683 1.417-2.672 5.613 1.447 7.145 1.951 1.283.418 2.401.16 3.585-.478 3.464-1.858 4.435-5.523 3.185-9.177-.871-2.532.167-4.842 3.351-4.29.841.146 1.699.387 2.561.379 1.523-.016 2.33-.549 2.673-2.07.409-1.835-1.287-3.497-1.883-5.095-.468-1.256-1.164-3.206-.489-4.536.317-.627.783-1.123 1.335-1.474.804-.727 1.902-.952 3.052-1.075-3.195-1.791-7.066-2.661-10.678-3.081-3.954-.458-7.809-.723-11.789-.585-.017.065-.044.133-.064.199.016.013.029.026.049.038-.041.045-.074.106-.111.155-.204.524-.527 1.024-.865 1.489-.169.353-.33.694-.491.983-.725 1.302-1.556 2.568-2.346 3.835-1.584 2.534-3.284 4.619-5.382 6.762-2.638 2.695-5.323 5.598-8.509 7.637-1.189.768-2.359 1.619-3.602 2.293-1.017.547-2.096.988-3.069 1.603-.106-.017-.201-.002-.266.039 1.078 1.887 1.55 3.989 1.814 6.164.004.022-.004.037-.006.059.176.819.292 1.643.296 2.477.003 1.359-.463 3.281.876 4.214z" class="E"/><path d="M120.689 117.595l.038-1.141c-.018-1.105-.122-2.217-.388-3.298-.355-1.458-.822-2.884-1.314-4.3.191-.011.325-.084.214-.275-.168-.284-.313-.491-.56-.706l-.052-.148c.155-.283 1.42-.828 1.478-.857 1.45-.696 2.782-1.52 4.136-2.388 3.058-1.954 5.626-4.258 8.196-6.818 2.314-2.307 4.961-4.665 6.499-7.576.653-1.233 1.472-2.39 2.102-3.632.621-1.225 1.118-3.079 1.974-4.134.01-.01.011-.021.015-.033 3.771.064 7.526.352 11.262.876 3.203.447 6.151 1.354 9.161 2.391-.837.042-1.848.392-2.24.646-1.188.773-2.064 1.947-1.885 3.449.285 2.418 1.546 4.019 2.34 6.222.203.568.333 1.348.199 2.019-2.973-1.957-6.118-3.628-9.313-5.201l-4.619-2.317 3.28 2.202 1.715.908c2.969 1.506 5.757 3.403 8.735 4.86.017.009.036.012.052.016-.263.567-.811.958-1.815.892-.574-.043-1.145-.129-1.706-.256-.614-.104-1.276-.222-1.9-.226-1.216-.001-2.587.499-3.054 1.773-.77 2.108.727 3.78.618 5.903-.149 3.008-1.097 5.06-4.015 6.318-2.334 1.01-3.849-.958-5.809-1.833-2.04-.903-4.964-1.083-4.368 2.156l.166.818c-1.12-1.738-2.319-3.407-3.558-5.053a11.99 11.99 0 0 0 .672 1.466c.356.545.696 1.095.993 1.658.488.773.988 1.547 1.427 2.395.013.027.016.056.024.083l.668.903c.017.021.042.038.07.054.263 1.707.047 3.113-2.432 3.901-1.918.606-3.707.377-4.883-1.604-.319-.539-.561-.721-1.029-1.076a20.12 20.12 0 0 0-1.88-2.947l-.566-.774-.57-.525c-.404-.358-.789-.726-1.183-1.082 1.149 1.535 2.162 3.219 3.128 4.87-.652-.124-1.37-.05-1.865.263-1.368.864-1.648 2.436-2.803 3.455-1.788 1.577-5.503.278-5.355-2.297z" class="H"/><path d="M119.884 115.73c-.004-.834-.12-1.657-.296-2.477.002-.021.01-.036.006-.059-.264-2.175-.735-4.277-1.814-6.164.065-.041.159-.056.266-.039.974-.614 2.053-1.056 3.069-1.603 1.243-.674 2.413-1.525 3.602-2.293 3.186-2.039 5.871-4.941 8.509-7.637 2.098-2.143 3.798-4.228 5.382-6.762.79-1.267 1.62-2.533 2.346-3.835.161-.289.322-.631.491-.983.338-.465.661-.965.865-1.489.037-.049.07-.11.111-.155-.02-.012-.033-.025-.049-.038.02-.066.047-.134.064-.199 3.891-.136 7.666.118 11.527.558-.677.116-1.349.282-2.012.556-.31.131-.466.656-.068.809 3.449 1.313 6.719 4.164 8.705 7.614.135.442.283.856.417 1.215.207.56.551 1.125.891 1.704.467 1.436.685 2.918.61 4.403-.447.754-1.176 1.045-2.291 1.058-.861.008-1.72-.232-2.561-.379-3.184-.552-4.222 1.758-3.351 4.29.471 1.375.624 2.755.451 4.036-2.205-.883-5.815-1.376-7.059.696-.686 1.148-.449 2.301.419 3.29.484.552 1.24 1.065 1.901 1.629-.8.255-1.602.29-2.482.003-1.531-.504-5.728-4.623-7.145-1.951-.819 1.547.575 3.229.713 4.817-1.443-1.606-3.021-3.063-4.587-4.555-1.196-1.14-2.35-2.271-3.9-2.901-.264-.108-.555.005-.626.297-.473 1.92 1.012 4.071 1.984 5.604 1.082 1.712 2.442 3.427 3.435 5.255-1.145.279-2.268.287-3.429-.116-.145-.052-.302-.136-.458-.228-.642-1.091-1.349-2.357-2.361-2.759-.008-.011-.015-.022-.02-.034-.17-.068-.373-.107-.605-.118-.637-1.264-1.431-2.467-2.495-3.375-.773-.66-2.473-1.737-3.395-.628-1.122 1.35-.896 3.624-.685 5.249.138 1.069.336 2.128.593 3.173-1.386-.036-2.628-.457-3.791-1.266-1.337-.932-.871-2.854-.877-4.213z" class="E F"/><path d="M130.826 112.271c.97-1.136 1.381-2.679 1.678-4.105.414-1.99.275-3.966.213-5.969-.009-.299-.448-2.61-.066-2.703.478-.116.977-.388 1.444-.674 1.177 4.307.989 9.833-2.239 13.216-1.104 1.156-2.457 1.83-3.898 2.134 1.065-.533 2.007-.891 2.868-1.899z" fill="#8598c0"/><path d="M146.607 73.3c-.253.016-.215.33-.067.568-.013.825.029 1.611.09 2.446.011.173.086.348.206.467-.033.811-.134 1.719.214 2.329.397.701 1.945.837 2.602 1.022 2.072.576 4.073 1.438 5.934 2.517 1.482.862 2.893 2.211 3.249 3.952.191.916.05 1.563.41 2.43.021.048.056.093.098.131-.693 2.487-2.472 4.736-4.609 6.14-3.524 2.319-7.425 1.503-11.312 1.046-2.036-.241-2.207 1.152-1.866 2.765-.013.024-.021.058-.018.104.257 5.151 8.643 3.875 11.767 3.111 3.033-.739 5.899-1.918 7.876-4.414 1.449-1.831 1.769-4.436 1.623-6.843a14.66 14.66 0 0 0 .245-2.122c.316-8.196-8.378-16.118-16.442-15.649z" fill="#ac82ad"/><path d="M162.263 88.52c-.063-.017-.108.015-.106.127l.026 1.467-.144.939c-.796 4.089-3.674 6.728-7.36 8.265-4.045 1.685-8.332 1.066-12.44.04-.213-.053-.078.331.066.375 4.956 1.531 9.27 1.938 14.135-.104 2.64-1.109 4.477-3.254 5.536-5.775-.085.523-.202 1.044-.365 1.564-.772 2.468-3.104 4.055-5.354 5.007-2.169.917-4.526 1.442-6.858 1.727-2.057.246-6.84.278-7.374-2.57-.003-.016.001-.025-.003-.044-.257-1.357-.308-2.689 1.538-2.413l3.188.518c2.001.355 4.005.18 5.952-.36 3.648-1.017 6.339-4.153 7.355-7.702 2.196-7.667-6.27-12.686-12.727-13.444-.007-.039-.017-.081-.022-.118-.009-.042-.029-.084-.055-.124-.034-.584-.063-1.166-.061-1.746 7.785-.089 14.958 6.72 15.073 14.371z" fill="#c2a1be"/><path d="M137.189 96.661c-.107-.229-.385-.081-.556.146-.774.288-1.488.614-2.246.976-.155.075-.291.208-.357.363-.766.266-1.647.502-2.091 1.046-.508.629-.07 2.121-.001 2.796.221 2.143.145 4.32-.178 6.443-.26 1.696-1.004 3.501-2.491 4.471-.786.51-1.439.614-2.115 1.269-.036.034-.066.085-.088.139-2.566.261-5.311-.576-7.397-2.051-3.442-2.437-4.107-6.365-5.101-10.15-.521-1.984-1.881-1.635-3.255-.729-.029-.005-.063.003-.106.021-4.701 2.119-.449 9.462 1.398 12.091 1.797 2.554 3.939 4.791 6.985 5.722 2.233.68 4.776.028 6.965-.987a14.84 14.84 0 0 0 2.063-.545c7.747-2.698 11.951-13.684 8.571-21.021z" fill="#ac82ad"/><path d="M128.733 116.794c-.01-.063-.055-.098-.159-.054l-1.354.561-.927.208c-4.098.752-7.606-.965-10.38-3.839-3.046-3.15-4.035-7.365-4.578-11.564-.029-.219-.337.049-.325.199.383 5.174 1.576 9.337 5.254 13.122 1.997 2.052 4.667 2.978 7.398 3.046a11.34 11.34 0 0 1-1.59.23c-2.58.181-4.909-1.409-6.615-3.158-1.646-1.685-2.994-3.685-4.108-5.752-.983-1.824-2.758-6.269-.301-7.807.012-.005.023-.005.04-.018 1.169-.736 2.392-1.267 2.807.554l.681 3.155c.399 1.993 1.294 3.794 2.509 5.408 2.276 3.026 6.182 4.387 9.858 4.037 7.939-.752 9.52-10.466 7.87-16.754l.102-.066c.034-.021.067-.057.097-.093.529-.247 1.059-.487 1.602-.697 2.921 7.219-.801 16.382-7.881 19.282z" fill="#c2a1be"/><path d="M114.52 109.328c-.449-.708-.796-1.466-1.089-2.244-.013-.018-.027-.028-.037-.048-.951-1.975-1.687-3.997-1.799-6.17a.4.4 0 0 0-.244.109c-1.15.009-2.3.221-3.451.308-1.408.106-2.853.017-4.267.017-3.785-.001-7.609-.996-11.285-1.843-2.924-.674-5.479-1.511-8.18-2.792-1.347-.639-2.732-1.259-4.042-1.962-.294-.157-.617-.36-.946-.564-.534-.208-1.076-.456-1.532-.788-.058-.021-.12-.055-.177-.071.01-.018.015-.04.02-.059-.052-.045-.11-.083-.16-.133-3.425 2.032-6.529 4.333-9.611 6.854-2.813 2.299-5.604 5.121-7.329 8.354 1.034-.52 2.08-.921 3.151-.744.653 0 1.312.164 1.918.522 1.286.756 1.753 2.774 2.035 4.085.361 1.664-.172 3.98 1.162 5.303 1.11 1.101 2.076 1.111 3.369.304.729-.457 1.322-1.125 1.952-1.699 2.382-2.181 4.5-.797 5.136 1.804.917 3.749 3.711 6.313 7.631 6.01 1.34-.102 2.423-.486 3.276-1.532 1.018-1.251 2.328-6.98 4.962-5.494 1.803 1.016 1.096 3.869 2.522 5.127 1.154 1.021 2.418 1.009 3.854.662 1.444-.353 2.631-1.003 3.553-2.178.095-.12.184-.274.264-.436-.049-1.264-.136-2.715.502-3.602 0-.012 0-.022-.002-.038.182-.253.47-.489.923-.695.835-.384 1.729.05 2.465.378 1.251.563 2.672 1.468 4.05.68 1.395-.798 2.326-1.931 2.937-3.402.623-1.509-.805-2.88-1.531-4.023z" class="E"/><path d="M111.576 116.152c-1.521-.234-2.607-1.41-4.226-1.397-.587.005-1.23.329-1.712.786l.007-5.789-.412 1.552-.198.747-.059.958c-.093 1.139-.102 2.333.009 3.494-.205.554-.311.837-.288 1.465.079 2.301-1.304 3.46-3.245 3.982-2.512.673-3.452-.395-4.15-1.972.015-.03.024-.058.027-.083l.076-1.121c-.008-.029-.021-.053-.024-.084-.089-.951-.083-1.87-.089-2.784-.056-.636-.064-1.283-.062-1.934-.038-.528-.111-1.061-.224-1.596l-.269 6.174-.304-.78c-1.245-3.047-3.61-1.319-4.84.543-1.181 1.796-1.394 4.269-3.903 4.677-3.136.514-5.039-.704-6.79-3.155-1.235-1.729-.877-3.946-2.664-5.302-1.08-.824-2.503-.504-3.527.152-.523.34-1.017.796-1.478 1.217-.404.409-.837.787-1.299 1.133-.81.599-1.482.563-2.011.231l.036-.042c1.722-2.834 3.045-5.937 4.732-8.806l.955-1.689 1.574-3.624-2.639 4.443c-1.841 3.047-3.59 6.152-5.038 9.401-.473-.491-.784-1.219-.918-1.804-.521-2.283-.325-4.315-1.386-6.502-.66-1.362-2.033-1.878-3.449-1.889-.467-.002-1.507.251-2.234.663 1.975-2.496 3.968-4.848 6.423-6.955a92.87 92.87 0 0 1 9.01-6.813c.011.011.018.019.032.023 1.287.424 2.706 1.718 3.891 2.415 1.198.704 2.513 1.239 3.728 1.925 2.867 1.623 6.368 2.177 9.561 2.872 3.547.771 6.952 1.323 10.58 1.322 1.607 0 3.174-.026 4.77-.223.066-.008 1.426-.229 1.708-.075l.036.154c-.094.313-.103.566-.09.896.007.22.163.208.326.115.35 1.46.725 2.908 1.213 4.329.361 1.055.871 2.044 1.456 2.986.2.325.415.64.645.939 1.516 2.093-.912 5.191-3.267 4.825z" class="H"/><g class="E"><path d="M114.52 109.328c-.449-.708-.796-1.466-1.089-2.244-.013-.018-.027-.028-.037-.048-.951-1.975-1.687-3.997-1.799-6.17a.4.4 0 0 0-.244.109c-1.15.009-2.3.221-3.451.308-1.408.106-2.853.017-4.267.017-3.785-.001-7.609-.996-11.285-1.843-2.924-.674-5.479-1.511-8.18-2.792-1.347-.639-2.732-1.259-4.042-1.962-.294-.157-.617-.36-.946-.564-.534-.208-1.076-.456-1.532-.788-.058-.021-.12-.055-.177-.071.01-.018.015-.04.02-.059-.052-.045-.11-.083-.16-.133-3.349 1.985-6.39 4.234-9.405 6.688.632-.267 1.287-.49 1.992-.614.332-.06.747.299.494.643-2.195 2.965-3.41 7.13-3.221 11.106.124.442.222.874.304 1.248.126.583.144 1.244.171 1.914.38 1.458.997 2.826 1.86 4.036.782.395 1.553.247 2.5-.344.729-.457 1.322-1.125 1.952-1.699 2.382-2.181 4.5-.797 5.136 1.804.345 1.413.957 2.653 1.796 3.643 1.379-1.936 4.155-4.297 6.318-3.223 1.197.597 1.621 1.696 1.423 2.996-.11.725-.47 1.566-.722 2.396.809-.215 1.505-.617 2.092-1.335 1.018-1.251 2.328-6.98 4.962-5.494 1.525.856 1.259 3.025 2 4.44.348-2.134.891-4.212 1.404-6.313.393-1.604.753-3.177 1.72-4.548.165-.231.47-.296.686-.086 1.436 1.363 1.346 3.973 1.355 5.789.011 2.024-.209 4.2-.062 6.277 1.116-.383 2.066-.979 2.825-1.949.095-.12.184-.274.264-.436-.049-1.264-.136-2.715.502-3.602 0-.012 0-.022-.002-.038.107-.147.256-.29.446-.425-.149-1.408-.126-2.848.278-4.189.296-.972 1.146-2.796 2.522-2.355 1.673.527 2.708 2.566 3.406 4.048.461.976.864 1.975 1.211 2.99 1.148-.776 1.969-1.799 2.51-3.108.626-1.506-.802-2.877-1.528-4.02z" class="F"/><path d="M90.893 109.17c.006-.837.121-1.662.298-2.478-.003-.02-.01-.034-.007-.057.263-2.178.735-4.277 1.812-6.168-.063-.042-.159-.055-.264-.039-.974-.614-2.053-1.053-3.069-1.603-1.244-.671-2.414-1.525-3.604-2.287-3.186-2.044-5.869-4.943-8.508-7.639-2.098-2.146-3.799-4.228-5.383-6.765-.788-1.264-1.62-2.534-2.345-3.833-.162-.289-.323-.636-.49-.986-.339-.465-.662-.963-.865-1.49-.039-.048-.071-.108-.111-.152a.23.23 0 0 0 .047-.041c-.019-.063-.046-.131-.062-.199-3.981-.136-7.837.127-11.79.588-3.611.419-7.482 1.291-10.678 3.082 1.149.12 2.247.349 3.053 1.073.551.352 1.016.845 1.334 1.475.674 1.328-.021 3.28-.489 4.536-.596 1.598-2.291 3.261-1.882 5.092.341 1.525 1.148 2.055 2.673 2.072.86.01 1.72-.233 2.56-.379 3.183-.549 4.221 1.757 3.352 4.291-1.249 3.651-.28 7.316 3.184 9.177 1.186.636 2.301.897 3.585.477 1.53-.502 5.726-4.62 7.145-1.949.969 1.829-1.167 3.847-.645 5.68.422 1.482 1.491 2.153 2.887 2.635 1.407.481 2.757.576 4.167.084.146-.05.304-.134.459-.225.639-1.091 1.349-2.359 2.362-2.761.008-.011.014-.024.019-.033.29-.117.66-.16 1.154-.09.91.128 1.429.976 1.87 1.648.752 1.148 1.459 2.679 3.045 2.759 1.604.077 2.999-.371 4.309-1.282 1.337-.932.873-2.856.877-4.213z"/></g><path d="M84.733 113.33c-1.154-1.02-1.435-2.592-2.803-3.454-.496-.313-1.215-.389-1.865-.264l3.129-4.872-1.186 1.086-.569.521-.567.773c-.69.91-1.343 1.91-1.877 2.949-.471.355-.711.535-1.032 1.076-1.174 1.981-2.965 2.21-4.88 1.604-2.479-.788-2.694-2.194-2.433-3.9a.26.26 0 0 0 .068-.053l.67-.904c.009-.028.011-.055.025-.084.438-.848.938-1.623 1.426-2.392.297-.563.638-1.116.991-1.661.256-.467.479-.955.675-1.465l-3.559 5.053.165-.82c.598-3.239-2.328-3.06-4.367-2.152-1.961.874-3.478 2.842-5.81 1.833-2.918-1.264-3.864-3.313-4.016-6.321-.109-2.122 1.391-3.795.617-5.901-.465-1.279-1.836-1.773-3.051-1.773-.626 0-1.286.118-1.901.227-.56.124-1.131.206-1.705.252-1.005.067-1.555-.323-1.817-.888.017-.006.036-.009.053-.018 2.979-1.457 5.767-3.355 8.734-4.863l1.716-.905 3.279-2.2-4.618 2.314c-3.193 1.573-6.34 3.243-9.314 5.2-.132-.67-.003-1.451.2-2.016.795-2.203 2.057-3.808 2.342-6.223.177-1.501-.698-2.676-1.885-3.45-.394-.254-1.405-.602-2.242-.646 3.01-1.036 5.958-1.943 9.161-2.394 3.738-.524 7.491-.81 11.264-.872.004.01.004.022.013.033.855 1.054 1.354 2.909 1.974 4.133.63 1.241 1.448 2.399 2.101 3.632 1.54 2.912 4.188 5.269 6.5 7.575 2.571 2.564 5.14 4.864 8.197 6.821 1.354.865 2.687 1.689 4.136 2.387.058.026 1.324.573 1.478.856l-.052.15c-.247.213-.392.419-.56.704-.111.188.023.267.214.274-.494 1.416-.959 2.84-1.316 4.302-.263 1.081-.369 2.19-.385 3.299-.006.38.006.762.036 1.14.149 2.575-3.566 3.873-5.354 2.297z" class="H"/><g class="E"><path d="M90.893 109.17c.006-.837.121-1.662.298-2.478-.003-.02-.01-.034-.007-.057.263-2.178.735-4.277 1.812-6.168-.063-.042-.159-.055-.264-.039-.974-.614-2.053-1.053-3.069-1.603-1.244-.671-2.414-1.525-3.604-2.287-3.186-2.044-5.869-4.943-8.508-7.639-2.098-2.146-3.799-4.228-5.383-6.765-.788-1.264-1.62-2.534-2.345-3.833-.162-.289-.323-.636-.49-.986-.339-.465-.662-.963-.865-1.49-.039-.048-.071-.108-.111-.152a.23.23 0 0 0 .047-.041c-.019-.063-.046-.131-.062-.199-3.892-.131-7.666.121-11.529.562.677.115 1.349.28 2.012.557.311.128.467.653.067.807-3.447 1.312-6.717 4.165-8.704 7.612-.134.439-.282.857-.416 1.217-.208.56-.552 1.124-.891 1.703-.467 1.434-.685 2.919-.61 4.402.447.755 1.175 1.048 2.292 1.059.86.01 1.72-.233 2.56-.379 3.183-.549 4.221 1.757 3.352 4.291-.472 1.376-.625 2.751-.453 4.036 2.205-.885 5.817-1.375 7.06.695.687 1.147.449 2.303-.418 3.292-.485.549-1.243 1.062-1.902 1.628a3.88 3.88 0 0 0 2.482.002c1.53-.502 5.726-4.62 7.145-1.949.817 1.546-.574 3.228-.712 4.816 1.441-1.605 3.018-3.064 4.586-4.553 1.195-1.141 2.348-2.271 3.9-2.902.263-.108.555.005.625.294.473 1.921-1.011 4.073-1.983 5.605-1.083 1.712-2.441 3.426-3.434 5.253 1.143.282 2.266.292 3.427-.115.146-.05.304-.134.459-.225.639-1.091 1.349-2.359 2.362-2.761.008-.011.014-.024.019-.033.171-.07.373-.109.605-.117.637-1.267 1.432-2.469 2.496-3.378.773-.661 2.472-1.735 3.396-.625 1.121 1.349.896 3.624.683 5.248-.137 1.069-.336 2.13-.593 3.171 1.386-.035 2.628-.454 3.791-1.264 1.337-.931.873-2.855.877-4.212z" class="F"/><path d="M84.574 103.948l-1.98 6.476-1.627 4.992c.567-.983 1.056-2.005 1.519-3.038l2.076-6.97.012-1.46z"/></g><path d="M156.239 84.764c-.152-.019-.347.179-.407.349-2.758-.484-6.038.28-8.58.934-3.325.859-6.432 2.462-9.428 4.1-5.279 2.89-10.314 6.692-13.089 12.159-2.51 4.942-1.899 11.456 3.951 13.443 4.482 1.524 12.034-.515 14.25-5.041 2.173.798 5.202-1.664 6.374-3.297.431-.605.761-1.711 1.473-1.977.606-.227 1.111-.592 1.61-.99 1.859-1.488 1.991-4.25 3.949-5.604.975-.674 1.648-1.584 2.125-2.646.269-.601.256-1.315.255-1.953-.04-.382-.098-.759-.171-1.135-.189-1.098.564-1.454.968-2.175 1.397-2.52-.521-5.825-3.28-6.167z" fill="#6f3e2a"/><g fill="#ad6449"><path d="M157.949 92.229c-.254.864-.106 1.584.007 2.481.289 2.306-1.666 3.006-2.923 4.347-.707.751-.911 1.532-1.266 2.487-.708 1.91-2.051 2.31-3.467 3.378-.482.365-.81.831-1.061 1.383-.702 1.547-4.051 4.681-6.089 3.515-.261-.147-.548.164-.628.391-1.17 3.247-5.256 4.519-8.365 5.044-2.489.418-5.038.129-7.188-1.233-5.58-3.527-2.457-11.345.697-15.314 3.104-3.908 7.594-6.593 11.953-8.875 2.426-1.27 4.907-2.34 7.54-3.1 2.89-.832 6.945-1.51 9.853-.63.12.037.268-.069.355-.202.669.458 1.116 1.144 1.542 2.018.907 1.867-.509 2.775-.96 4.31z"/><path d="M157.949 92.229c.451-1.534 1.867-2.442.96-4.312-.426-.874-.873-1.56-1.542-2.018-.088.133-.235.239-.355.202-2.907-.88-6.963-.202-9.853.63-2.633.76-5.114 1.83-7.54 3.1-4.359 2.282-8.849 4.967-11.953 8.875-1.792 2.254-3.569 5.744-3.753 8.991 2.858-1.684 7.403-1.395 7.08 2.655-.143 1.761-1.248 3.362-2.727 4.33 1.844.774 3.886.911 5.891.571 3.109-.525 7.195-1.797 8.365-5.044.08-.227.367-.538.628-.391 2.038 1.166 5.387-1.968 6.089-3.515.252-.552.579-1.018 1.061-1.383 1.416-1.068 2.759-1.468 3.467-3.378.355-.955.559-1.736 1.266-2.487 1.257-1.341 3.212-2.041 2.923-4.347-.113-.895-.261-1.615-.007-2.479zm-23.037 20.291c-1.74.183-3.138-1.223-3.02-2.973.125-1.792 1.482-2.81 3.236-2.519.046.008.076.025.11.041 1.048-.321 2.181.358 2.593 1.573.692 2.034-.945 3.671-2.919 3.878zm6.152-3.341c-.173.331-.505.54-.789.764-.202.159-.556.192-.688-.088-.168-.359-.313-.736-.106-1.111.122-.224.354-.266.541-.391.007-.043.007-.083.021-.128.069-.208.237-.341.43-.423.23-.104.594-.049.642.258.059.368.132.774-.051 1.119zm.81-2.616c-1.124-.114-1.684-1.154-1.22-2.172.488-1.068 1.693-1.461 2.779-1.15.146.04.233.137.274.247.342.319.535.828.476 1.341-.138 1.229-1.114 1.858-2.309 1.734zm8.395-3.538c-.036.03-.082.045-.12.068-.236.43-.614.781-1.193.949-1.059.311-2.143-.025-2.63-1.073-.381-.819-.132-1.67.474-2.229.473-.943 1.62-1.609 2.561-.907.116.083.209.194.305.297.364.19.677.534.881 1.003.274.635.316 1.425-.278 1.892zm3.186-5.261c-.14.235-.331.392-.527.561-.018.057-.032.112-.055.166-.188.446-.772.176-.792-.236-.057-.209-.133-.468-.071-.666.059-.183.206-.306.375-.339.009-.023.015-.049.024-.071.099-.231.407-.255.599-.159l.291.146c.212.106.271.402.156.598zm1.954-2.262c-.563 0-.563-.873 0-.873s.564.873 0 .873z"/></g><path d="M102.061 102.244l-8.457-2.59c-5.969-2.398-12.831-3.44-18.38-6.79-.174-.104-.435.123-.492.329-3.009 3.74-6.171 8.396-6.135 13.407.036 4.807 3.111 8.631 7.432 10.486 5.013 2.153 11.425.599 16.062-1.774 4.626-2.368 7.427-6.919 9.981-11.252.157-.024.369-.182.44-.352.295-.712.528-1.217-.451-1.464z" class="G"/><path d="M93.234 100.524a.4.4 0 0 0-.058.074c-2.591 5.096-7.716 8.447-13.479 7.823-2.261-.246-4.478-1.137-5.534-3.259-1.644-3.306.758-7.53 2.644-10.146.09-.126.104-.239.074-.317 3.738 2.029 8.211 2.991 12.154 4.284 1.421.464 2.807 1.012 4.199 1.541z" fill="#f26b6c"/><path d="M74.913 93.489c.564.405 1.16.768 1.771 1.108a.39.39 0 0 0-.205.154c-3.543 4.681-5.952 12.498 1.654 14.341 6.343 1.538 12.485-2.485 15.427-7.969.126-.112.229-.252.262-.383.978.362 1.96.715 2.967 1.008.302.085.599.179.898.269-.137.077-.266.193-.318.326-.952 2.367-3.109 4.636-4.877 6.367-2.336 2.287-4.952 3.686-8.088 4.538-5.411 1.466-13.041 0-14.943-5.783-.762-5.017 2.57-10.174 5.452-13.976z" fill="#f04943"/><path d="M101.926 103.676c-.073.015-.146.057-.205.142-2.497 3.656-4.692 7.487-8.467 9.99-4.326 2.87-10.4 4.053-15.442 2.801-3.09-.77-5.722-2.931-7.204-5.7 2.871 3.437 8.487 4.413 12.942 3.333 3.652-.887 6.499-2.387 9.229-4.952 2.042-1.922 4.271-4.38 5.317-7.006.02-.054.023-.094.031-.133l2.537.767c.761.22 1.422-.048 1.262.758z" fill="#ee3524"/><path d="M102.417 102.148l-8.458-2.591c-5.969-2.398-12.83-3.441-18.38-6.791-.175-.105-.435.125-.492.329-2.287 2.845-4.661 6.221-5.651 9.877.305-.34.635-.665 1.009-.955.261-.201.619-.145.73.193.558 1.682.339 3.993 1.859 5.202 1.468 1.163 3.374 1.866 5.198 2.269 3.927.862 6.909-.495 10.617-1.438.31-.079.642.212.537.537-1.405 4.342-8.162 4.471-12.268 4.205 3.376 2.41 9.183.998 12.561-.466 2.441-1.059 3.382.23 3.956 2.003 3.93-2.494 6.463-6.614 8.79-10.562.157-.02.37-.177.441-.35.295-.709.53-1.214-.449-1.462z" class="F G"/><path d="M119.376 101.02l3.232 5.952 2.59 4.565c-.753-.848-1.435-1.753-2.095-2.673l-3.426-6.416-.301-1.428z" class="E"/><path d="M101.749 104.365a.67.67 0 0 0 .504.255c3.368 3.735 7.019 7.638 12.024 9.036 5.017 1.4 11.609 1.643 16.095-1.467 3.861-2.68 6.113-7.038 5.19-11.755-.964-4.919-4.991-8.852-8.688-11.916-.096-.189-.396-.363-.548-.225-4.769 4.391-11.285 6.779-16.656 10.319-2.462 1.625-5.131 2.948-7.772 4.226-.906.44-.577.887-.149 1.527z" class="G"/><path d="M114.015 97.043c3.605-2.05 7.796-3.886 11.056-6.618-.014.082.024.19.134.294 2.373 2.191 5.566 5.849 4.614 9.414-.609 2.292-2.605 3.607-4.771 4.298-5.524 1.761-11.214-.5-14.771-4.978-.015-.018-.04-.041-.071-.059 1.258-.798 2.51-1.61 3.809-2.351z" fill="#f26b6c"/><path d="M134.889 101.453c-.713 6.046-7.895 9.004-13.491 8.647-3.243-.209-6.085-1.058-8.829-2.834-2.077-1.341-4.645-3.137-6.051-5.267-.077-.12-.229-.206-.374-.255l.823-.445c.929-.483 1.82-1.025 2.708-1.578.056.123.188.241.334.321 3.974 4.791 10.795 7.507 16.705 4.735 7.084-3.322 3.166-10.502-1.241-14.385-.084-.073-.163-.106-.23-.106a19.11 19.11 0 0 0 1.515-1.441c3.582 3.149 7.876 7.54 8.131 12.608z" fill="#f04943"/><path d="M103.401 103.222l2.334-1.261c.014.039.025.074.06.125 1.547 2.364 4.221 4.331 6.607 5.807 3.187 1.969 6.273 2.871 10.032 3.011 4.58.169 9.889-1.906 12.016-5.851-.899 3.015-3.05 5.657-5.923 7.025-4.688 2.233-10.879 2.285-15.69.336-4.195-1.699-7.113-5.019-10.288-8.099-.075-.073-.155-.102-.23-.104-.318-.754.383-.623 1.082-.989z" fill="#f26a5a"/><path d="M101.531 102.813l7.773-4.224c5.371-3.539 11.886-5.931 16.655-10.318.151-.14.451.035.548.224 2.809 2.33 5.808 5.165 7.508 8.548a7.9 7.9 0 0 0-1.179-.731c-.296-.146-.636-.02-.679.337-.21 1.758.466 3.979-.783 5.466-1.206 1.434-2.933 2.504-4.641 3.259-3.678 1.63-6.87.894-10.691.707-.32-.016-.589.337-.418.635 2.242 3.975 8.888 2.754 12.859 1.676-2.829 3.036-8.802 2.809-12.403 2.046-2.602-.549-3.268.901-3.477 2.756-4.348-1.661-7.651-5.194-10.72-8.596-.158.009-.398-.104-.501-.259-.429-.64-.758-1.085.149-1.526z" class="F G"/><path d="M155.574 86.369c-.6-1.563-2.76.987-2.747 2.001-.141.175-.248.339-.291.462-.987 2.808-1.138 3.953-4.207 4.791-1.998.54-3.79 1.556-4.844 3.42-.973 1.715-.005 6.064-2.57 4.312-1.729-1.18-4.291-2.048-6.336-1.134-2.369 1.06-3.957 2.631-5.239 4.494l-.774.678c-1.23 1.19-1.936 2.948-2.787 4.402-.732 1.254-1.562 1.901-2.434 2.137-2.518-.722-5.347-5.005-6.438-6.214-1.815-2.02-4.101-2.974-6.745-2.941-4.599.06-7.394 6.309-9.289 9.534-.086.148-.174.269-.258.403-2.1 2.022-4.531 3.104-8.274 1.132-4.107-2.165-5.447-8.214-8.22-11.691-1.66-2.08-3.178-3.612-5.03-4.359-1.249-.707-2.737-.924-4.52-.324-.241.042-.484.09-.739.152-.188.045-.387.197-.567.404-3.595 1.766-5.47 4.819-6.329 8.799-.431 1.991 2.232.346 2.607-.594 1.839-4.585 6.661-6.526 9.397-1.473 1.442 2.662 2.598 5.307 4.24 7.889 2.786 4.372 6.012 7.497 11.46 7.569 2.864.034 5.236-1.753 7.124-3.95a1.06 1.06 0 0 0 .041-.036c1.84-1.564 3.689-6.431 6.153-6.874 3.763-.679 6.371 3.343 9.623 5.289 1.21 1.014 2.619 1.618 4.397 1.761 4.096.333 6.973-3.683 8.451-6.94.253-.559.528-1.214.862-1.861 1.68-1.2 3.477-1.555 5.605.111 1.496 1.169 2.197 2.603 4.349 2.414 1.998-.171 3.813-1.733 5.02-3.224 1.27-1.567 1.793-3.436 1.959-5.397.104-1.22.028-2.456.109-3.677a1.39 1.39 0 0 1 .049-.287c.494-.193 1.059-.338 1.635-.538 1.898-.655 3.268-1.905 4.166-3.453 1.835-1.858 2.432-4.471 1.391-7.187z" fill="#f6eb79"/><path d="M72.302 100.155c3.226-1.388 6.516.353 8.568 2.838 2.576 3.12 3.516 7.426 6.503 10.233 1.957 1.837 5.504 3.896 8.23 2.383a6.34 6.34 0 0 0 1.068-.766c-1.241.152-2.652-.112-4.331-.998-4.107-2.165-5.447-8.214-8.22-11.691-1.66-2.08-3.178-3.612-5.03-4.359-1.249-.707-2.737-.924-4.52-.324-.241.042-.484.09-.739.152-.188.045-.387.197-.567.404-3.595 1.766-5.47 4.819-6.329 8.799-.076.344-.053.573.032.724.552-3.156 2.289-6.085 5.335-7.395zm37.386 5.746c3.307.671 5.392 3.055 7.842 5.163 2.597 2.23 5.966 3.969 8.126.262.88-1.507 1.458-3.146 1.98-4.803-.707 1.032-1.246 2.228-1.856 3.271-.732 1.254-1.562 1.901-2.434 2.137-2.518-.722-5.347-5.005-6.438-6.214-1.815-2.02-4.101-2.974-6.745-2.941-2.619.034-4.652 2.078-6.269 4.424 1.754-1.05 3.757-1.709 5.794-1.299zm43.761-11.746c-.639.506-1.38.96-2.144 1.253-.955.363-2.545.477-3.071 1.489-.697 1.337-.282 3.02-.49 4.465-.394 2.777-2.67 6.801-5.994 6.58-1.823-.121-2.741-1.061-4.184-2.016-1.655-1.091-3.146-.492-4.159.726 1.077-.193 2.225.071 3.492 1.063 1.496 1.169 2.197 2.603 4.349 2.414 1.998-.171 3.813-1.733 5.02-3.224 1.27-1.567 1.793-3.436 1.959-5.397.104-1.22.028-2.456.109-3.677a1.39 1.39 0 0 1 .049-.287c.494-.193 1.059-.338 1.635-.538 1.898-.655 3.268-1.905 4.166-3.453l.112-.129-.849.731z" fill="#edac63"/><path d="M98.358 117.133c-2.466.534-4.415.724-6.872.013-2.579-.74-5.082-3.169-6.447-5.46-.263-.442-.968.329-.799.705 2.372 5.327 8.739 9.789 14.108 5.539.166-.13.495-.902.01-.797zm20.285-4.652c-.983-1.153-2.438-1.937-3.648-2.838-1.339-.998-2.479-1.594-4.097-1.985-.387-.095-.968.724-.505.894 1.786.658 2.817 1.769 4.235 2.972 1.006.851 2.12 1.92 3.497 1.866.365-.015.783-.594.518-.909zm25.487-8.808c-2.063 1.469-3.746-.172-5.577-1.13-1.145-.6-2.457-.659-3.709-.541-2.214.214-3.921 2.444-4.858 4.241-.439.842.502.829.876.229 1.723-2.787 4.488-3.169 7.219-1.707 1.15.616 1.997 1.383 3.329 1.523 1.568.165 2.717-.807 3.281-2.159.168-.406-.197-.717-.561-.456zm1.572-6.311c-.007 0-.012.007-.02.009-.363.03-.709.337-.862.642-.097.196-.227.539-.307.896l-.068.179c-.05.151-.059.337-.004.474.018.435.212.742.788.599.741-.185 1.219-.998 1.372-1.69.143-.652-.116-1.338-.899-1.109z" fill="#fff"/><path d="M154.047 92.955l.911-1.353c.556-.927.886-1.979 1.539-2.826 1.81-4.048 2.831-8.247 2.348-12.845-.61-5.813-3.669-11.313-7.185-15.86-7.538-9.753-19.632-14.403-31.394-16.61-12.762-2.396-25.912-1.067-37.821 4.121-10.027 4.364-19.905 11.273-24.131 21.73-2.078 5.138-2.497 11.049-1.362 16.449.717 3.404 2.21 6.232 4.291 8.632-.116.053-.227.237-.134.321 3.154 2.896 6.149 5.337 10.123 7.041 4.121 1.769 8.514 3.099 12.803 4.39 8.692 2.619 18.157 2.593 27.145 2.058 8.962-.531 17.955-2.272 26.438-5.22 3.88-1.349 7.314-3.392 10.763-5.595 2.049-1.306 4.004-2.725 5.666-4.433z" fill="#8e523a"/><g fill="#f8ad71"><path d="M138.097 50.369c-12.062-6.159-26.745-8.564-40.136-6.495a62.5 62.5 0 0 0-19.637 6.5c-5.691 3-11.387 6.813-15.329 11.993-4.119 5.413-6.355 12.268-5.804 19.099.287 3.537 1.145 7.075 3.017 10.125 1.438 2.341 3.246 4.087 5.238 5.808 5.597 3.579 11.881 5.673 18.337 7.609 8.422 2.527 17.336 2.801 26.073 2.339 8.683-.46 17.352-1.868 25.646-4.525 4.095-1.311 7.778-3.08 11.414-5.366 2.855-1.797 5.551-3.647 7.757-6.114 1.565-3.332 3.207-6.817 3.45-10.534.855-12.942-9.05-24.833-20.026-30.439z"/><path d="M57.634 84.681c.397-4.153.757-8.273 2.429-12.235 1.82-4.315 4.551-8.012 8.061-11.11 7.981-7.042 17.748-12.359 28.281-14.27 10.285-1.865 21.81-2.381 32.027.174 4.877 1.222 9.317 3.333 13.757 5.642l.563.298c-1.513-1.056-3.072-1.998-4.655-2.81-12.062-6.159-26.745-8.564-40.136-6.495a62.5 62.5 0 0 0-19.637 6.5c-5.691 3-11.387 6.813-15.329 11.993-4.119 5.413-6.355 12.268-5.804 19.099a29.52 29.52 0 0 0 .443 3.214z"/></g><g fill="#fbd7a5"><path d="M138.097 50.369c-5.979-3.054-12.601-5.18-19.393-6.303 4.998 1.482 9.854 3.55 14.075 6.495 5.26 3.668 9.918 9.169 9.364 15.99-1.314 16.23-21.98 22.449-35.326 24.328-6.785.955-13.546.714-20.262-.621-7.037-1.4-15.358-3.804-20.124-9.572-5.161-6.248-3.436-13.939.504-20.372 1.048-1.714 2.269-3.476 3.638-5.169-2.846 2.074-5.468 4.446-7.578 7.222-4.119 5.413-6.355 12.268-5.804 19.099.287 3.537 1.145 7.075 3.017 10.125 1.438 2.341 3.246 4.087 5.238 5.808 5.597 3.579 11.881 5.673 18.337 7.609 8.422 2.527 17.336 2.801 26.073 2.339 8.683-.46 17.352-1.868 25.646-4.525 4.095-1.311 7.778-3.08 11.414-5.366 2.855-1.797 5.551-3.647 7.757-6.114 1.565-3.332 3.207-6.817 3.45-10.534.855-12.942-9.05-24.833-20.026-30.439z"/><path d="M142.04 52.688c1.106 1.278 2.108 2.654 3.02 4.072 2.075 3.233 3.952 6.63 4.517 10.49.998 6.822-1.222 13.7-5.805 18.84-7.34 8.229-18.779 11.033-29.368 12.059-6.095.591-12.224.648-18.338.405-5.252-.207-10.531-.633-15.602-2.118-8.83-2.58-18.731-8.837-21.152-18.354-.683-2.684-.803-5.441-.471-8.15-1.356 3.667-1.967 7.604-1.65 11.535.287 3.537 1.145 7.075 3.017 10.125 1.438 2.341 3.246 4.087 5.238 5.808 5.597 3.579 11.881 5.673 18.337 7.609 8.422 2.527 17.336 2.801 26.073 2.339 8.683-.46 17.352-1.868 25.646-4.525 4.095-1.311 7.778-3.08 11.414-5.366 2.855-1.797 5.551-3.647 7.757-6.114 1.565-3.332 3.207-6.817 3.45-10.534.75-11.37-6.799-21.92-16.083-28.121z"/></g><path d="M111.208 64.795c-.913-.083-1.207 1.133-1.188 2.182-.047.438-.05.842-.056 1.003-.012.41-.027 1.326.618 1.193s.916-1.007 1.008-1.567c.093-.567.605-2.717-.382-2.811zm-8.829-3.943c-.482-.22-1.395.385-1.683.962-.309.319-.596.69-.46 1.153.172.588 1.397-.193 1.643-.38.332-.248 1.135-1.442.5-1.735zm-12.702-1.681c-.145-.048-.311-.061-.481-.058-.093-.037-.188-.07-.292-.056-.175.017-.333.079-.484.153-.029.01-.062.014-.088.021-.452.108-.828.32-1.103.685l-.193.173c-.29.319-.256.772.153.94.371.154 1.02-.039 1.389-.138.496-.132 1.041-.383 1.382-.773.348-.394.162-.794-.283-.947zm15.617 11.154c-.083-.097-.19-.085-.298-.025-.078-.098-.257-.102-.426.076-.401.422-.658.958-.735 1.538-.057.423.019 1.018.533 1.048s.918-.749 1.075-1.123c.193-.454.175-1.129-.149-1.514zm17.303-1.317c-.126-.439-.491-1.425-1.081-1.357-.297.036-.526.332-.579.611-.016.084-.02.172-.028.259-.151.324-.065.692.05 1.069.106.347.252.584.47.888.204.29.288.551.604.742.191.115.413-.039.533-.191.509-.644.233-1.324.031-2.021zm4.916-4.663l-.013-.03c-.033-.077-.122-.11-.199-.102-.284.029-.706.542-.438.754-.065.449.088 1.085.551 1.148.208.028.421-.194.438-.393.045-.493.026-1.021-.339-1.377zm5.25-2.582c-.044.021-.096.057-.143.095l-.113-.17c-.156-.237-.579.195-.452.395.361.563.762 1.47 1.485 1.616.19.036.414-.198.421-.378.021-.544-.438-1.906-1.198-1.558zm-14.419-2.091c-.112-.239-.583.172-.564.425.031.363.295 1.279.809.962.593-.361.391-1.512-.245-1.387zm-18.047-5.07a.9.9 0 0 0-.284.052c-.013-.095-.081-.152-.248-.098-.354.116-.656.276-.935.525-.117.105-.294.356-.192.527.386.626 1.28.005 1.651-.34.152-.143.419-.677.008-.666zm-8.114 10.061c-.344-.068-.654.071-.896.3-.77.28-1.653.859-1.364 1.549.029.071.101.088.168.088.284-.005.547-.062.802-.189s.46-.332.713-.461c.408-.209.793-.628.714-1.116-.013-.075-.054-.154-.137-.171zm-9.968-7.126c.205-.1.395-.609.055-.491-.519.183-1.064.536-1.175 1.109-.009.057.002.133.053.17.236.181.496.097.722-.054.167-.014.423-.273.438-.425l.012-.111c.01-.115-.04-.172-.105-.198zm16.417 19.786c-.033-.071-.118-.11-.194-.097-.303.048-.512.241-.655.488-.544.508-.708 1.29-.417 2.008.025.063.101.085.162.08.897-.063 1.432-1.766 1.104-2.479zm13.994-.222c-.177-.031-.336-.051-.514-.033-.262.026-.729.487-.53.773l.043.065c-.015.324.073.628.295.903.201.244.537-.291.57-.43.05-.209.025-.398-.017-.587.251-.219.492-.634.153-.691zm11.793.673c-.079-.187-.184-.359-.28-.539a.66.66 0 0 0-.113-.148c-.106-.105-.12-.165-.152-.135.018-.045.049-.082.055-.128.025-.197-.104-.302-.279-.275-.566-.221-.702.631-.654 1.021.07.568.428 1.285.921 1.596.206.129.464-.098.557-.271.197-.384.112-.74-.055-1.121zm7.442-2.926c0-.049 0-.094-.024-.136-.031-.059-.06-.071-.113-.107-.362-.231-.918.475-.635.786l.041.033c-.01.048-.01.096.011.134.12.242.242.467.525.517.189.034.398-.161.443-.337.091-.347-.098-.602-.248-.89zm4.422-7.623c-.048-.083-.106-.123-.169-.151a.15.15 0 0 0-.127-.1c-.066.005-.112-.025-.141-.093-.247-.272-.678.354-.647.577.004.02.016.028.019.047-.067.188-.04.366.193.369l.063-.003c.204.116.476.081.686-.153.098-.113.212-.347.123-.493zm-50.98 3.105c-.251-.375-.677-.445-1.074-.262-.169.078-.323.188-.468.311-.047.009-.092.016-.14.032-.352.124-.709.562-.673.947.065.692 1.212.399 1.601.197.229-.119.446-.313.585-.534.096-.152.289-.505.169-.691zm-.51 11.548c-.146-.509-.558-.235-.79.111a1.09 1.09 0 0 0-.468.636c-.161.567.332.651.714.355.237-.183.541-.62.543-.969.014-.05.017-.095.001-.133z" fill="#fff"/></svg>