<?xml version="1.0" encoding="utf-8"?>
<!-- Generator: Adobe Illustrator 27.5.0, SVG Export Plug-In . SVG Version: 6.00 Build 0)  -->
<svg version="1.1" id="Layer_1" xmlns="http://www.w3.org/2000/svg" xmlns:xlink="http://www.w3.org/1999/xlink" x="0px" y="0px"
	 viewBox="0 0 225.787 130.801" style="enable-background:new 0 0 225.787 130.801;" xml:space="preserve">
<g>
	<g>
		<g>
			<path style="fill:#D9AD5F;" d="M195.633,80.1c1.525-3.799,2.341-7.895,3.71-11.754c1.356-3.823,2.514-7.708,3.572-11.622
				c2.198-8.063,3.653-16.337,5.884-24.375c0.009-0.003,0.016-0.006,0.021-0.011c0.016-0.329,0.04-0.661,0.058-0.993
				c-0.366-0.768-0.722-1.529-1.215-2.236c-0.534-0.769-1.156-1.944-2.048-2.324c-0.095-0.041-0.274,0.019-0.368,0.103
				c-0.922,0.043-1.84,0.33-2.732,0.528c-0.556,0.12-1.349,0.242-1.953,0.513c0.052-0.106-0.206-0.108-0.287-0.028
				c-0.153,0.153-0.23,0.289-0.292,0.474c-0.072,0.024-0.132,0.061-0.152,0.115c-3.066,8.7-5.418,17.647-7.96,26.512
				c-1.228,4.278-2.243,8.612-3.504,12.883c-1.299,4.398-2.876,8.871-3.479,13.434c-0.201,0.175-0.201,0.455,0.211,0.403
				c2.28-0.275,4.587-0.12,6.877-0.285c1.203-0.085,2.907,0.057,3.703-1.025C195.802,80.246,195.745,80.147,195.633,80.1z"/>
			<path style="fill:#FFF18D;" d="M190.862,80.835c3.173-7.627,5.171-15.875,7.201-23.858c2.127-8.353,4.146-16.798,6.474-25.101
				c0.074-0.559,0.101-1.123,0.044-1.681c-0.056,0.031-0.102,0.072-0.117,0.121c-2.738,8.099-4.519,16.554-6.801,24.795
				c-1.268,4.576-2.376,9.186-3.726,13.741c-1.172,3.957-2.893,7.959-3.7,12.009c-1.588,0.08-3.151,0.033-4.726,0.279
				c4.863-17.551,9.532-35.202,14.775-52.644c0.018-0.054-0.003-0.085-0.024-0.114c0.003-0.006,0.008-0.014,0.01-0.022
				c1.68-0.466,3.445-0.846,5.18-1.012c0.033-0.003,0.065-0.013,0.097-0.022c0.586,0.576,0.974,1.503,1.42,2.155
				c0.521,0.765,0.809,1.635,1.247,2.436c-0.06,0.036-0.109,0.086-0.124,0.141c-2.219,7.527-3.561,15.334-5.584,22.925
				c-1.198,4.494-2.514,8.95-4.027,13.351c-1.346,3.918-2.192,8.002-3.578,11.897C193.767,80.779,192.177,80.783,190.862,80.835z"/>
			<path style="fill:#F9CB83;" d="M200.311,62.663c1.522-11.146,4.318-22.16,4.382-33.439
				c-6.233,13.495-11.167,27.523-16.306,41.461c-0.955,3.484-1.913,6.974-2.875,10.456c1.574-0.246,3.138-0.199,4.726-0.279
				c0.808-4.05,2.528-8.052,3.7-12.009c1.35-4.555,2.457-9.165,3.726-13.741c2.282-8.241,4.063-16.696,6.801-24.795
				c0.016-0.049,0.062-0.09,0.117-0.121c0.057,0.558,0.03,1.122-0.044,1.681c-2.327,8.303-4.347,16.748-6.474,25.101
				c-2.03,7.983-4.028,16.231-7.201,23.858c1.314-0.052,2.904-0.056,4.04-0.604c1.386-3.896,2.232-7.979,3.578-11.897
				C199.127,66.454,199.732,64.563,200.311,62.663z"/>
		</g>
		<g>
			<path style="fill:#D9AD5F;" d="M188.296,80.388c0.626-4.044,0.494-8.224,0.952-12.291c0.457-4.03,0.703-8.075,0.852-12.127
				c0.311-8.352-0.142-16.741,0.208-25.073c0.009-0.007,0.016-0.01,0.02-0.016c-0.06-0.324-0.113-0.654-0.169-0.98
				c-0.529-0.665-1.05-1.326-1.69-1.901c-0.692-0.629-1.566-1.635-2.521-1.8c-0.102-0.019-0.265,0.08-0.335,0.185
				c-0.889,0.249-1.718,0.736-2.541,1.131c-0.515,0.246-1.259,0.545-1.789,0.941c0.027-0.112-0.224-0.062-0.284,0.037
				c-0.114,0.187-0.16,0.334-0.177,0.527c-0.064,0.041-0.115,0.089-0.123,0.147c-1.016,9.169-1.279,18.414-1.749,27.626
				c-0.229,4.446-0.236,8.896-0.496,13.343c-0.27,4.579-0.791,9.293-0.345,13.87c-0.156,0.218-0.094,0.486,0.297,0.345
				c2.155-0.784,4.439-1.154,6.632-1.835c1.152-0.355,2.845-0.604,3.376-1.835C188.494,80.495,188.42,80.41,188.296,80.388z"/>
			<path style="fill:#FFF18D;" d="M183.82,82.185c1.36-8.146,1.438-16.635,1.607-24.871c0.182-8.615,0.235-17.297,0.622-25.913
				c-0.054-0.563-0.157-1.114-0.337-1.645c-0.048,0.044-0.084,0.094-0.087,0.145c-0.832,8.507-0.651,17.145-1.012,25.69
				c-0.195,4.742-0.23,9.483-0.515,14.228c-0.245,4.119-1.016,8.404-0.885,12.532c-1.527,0.439-3.062,0.751-4.542,1.344
				c0.768-18.197,1.314-36.445,2.474-54.623c0.004-0.055-0.024-0.083-0.051-0.104c0.002-0.01,0.004-0.018,0.004-0.025
				c1.53-0.834,3.162-1.604,4.817-2.158c0.03-0.008,0.06-0.025,0.088-0.045c0.702,0.43,1.29,1.245,1.871,1.78
				c0.681,0.626,1.158,1.408,1.766,2.086c-0.048,0.051-0.086,0.108-0.091,0.166c-0.454,7.837,0.006,15.744-0.244,23.594
				c-0.149,4.652-0.421,9.289-0.9,13.916c-0.423,4.119-0.323,8.293-0.788,12.4C186.635,81.474,185.088,81.838,183.82,82.185z"/>
			<path style="fill:#F9CB83;" d="M188.905,62.348c-1.042-11.203-0.813-22.563-3.304-33.566
				c-3.017,14.556-4.644,29.335-6.492,44.076c-0.142,3.615-0.283,7.227-0.437,10.837c1.48-0.593,3.015-0.904,4.542-1.344
				c-0.131-4.128,0.64-8.413,0.885-12.532c0.284-4.744,0.319-9.485,0.515-14.228c0.36-8.545,0.18-17.184,1.012-25.69
				c0.003-0.051,0.039-0.101,0.087-0.145c0.18,0.53,0.283,1.081,0.337,1.645c-0.387,8.616-0.44,17.298-0.622,25.913
				c-0.17,8.236-0.247,16.725-1.607,24.871c1.268-0.347,2.814-0.711,3.798-1.504c0.465-4.106,0.365-8.28,0.788-12.4
				C188.611,66.307,188.77,64.326,188.905,62.348z"/>
		</g>
		<g>
			<path style="fill:#D9AD5F;" d="M176.486,76.464c0.627-4.046,0.495-8.224,0.954-12.289c0.456-4.031,0.702-8.077,0.85-12.13
				c0.311-8.349-0.142-16.735,0.208-25.072c0.009-0.006,0.015-0.011,0.022-0.015c-0.061-0.325-0.115-0.652-0.169-0.98
				c-0.533-0.667-1.052-1.326-1.691-1.903c-0.693-0.626-1.566-1.633-2.52-1.8c-0.102-0.019-0.266,0.082-0.335,0.186
				c-0.889,0.248-1.72,0.736-2.542,1.13c-0.512,0.246-1.259,0.545-1.788,0.941c0.027-0.11-0.224-0.057-0.285,0.037
				c-0.113,0.186-0.16,0.337-0.177,0.528c-0.063,0.043-0.115,0.092-0.122,0.149c-1.018,9.168-1.279,18.415-1.749,27.623
				c-0.227,4.447-0.236,8.898-0.496,13.344c-0.271,4.579-0.793,9.289-0.346,13.869c-0.156,0.218-0.092,0.488,0.298,0.347
				c2.156-0.785,4.439-1.156,6.632-1.837c1.151-0.354,2.845-0.602,3.377-1.833C176.685,76.569,176.61,76.487,176.486,76.464z"/>
			<path style="fill:#FFF18D;" d="M172.01,78.261c1.363-8.146,1.439-16.633,1.61-24.871c0.181-8.615,0.233-17.297,0.621-25.912
				c-0.057-0.563-0.157-1.115-0.338-1.646c-0.047,0.045-0.082,0.094-0.088,0.146c-0.832,8.506-0.651,17.146-1.01,25.688
				c-0.197,4.744-0.231,9.487-0.515,14.229c-0.246,4.117-1.015,8.404-0.884,12.534c-1.529,0.438-3.063,0.747-4.543,1.343
				c0.766-18.197,1.315-36.446,2.473-54.624c0.002-0.056-0.023-0.081-0.05-0.105c0.002-0.006,0.004-0.013,0.004-0.023
				c1.529-0.835,3.162-1.606,4.816-2.16c0.031-0.005,0.059-0.025,0.087-0.043c0.704,0.43,1.292,1.245,1.873,1.778
				c0.683,0.628,1.155,1.412,1.766,2.089c-0.05,0.053-0.089,0.11-0.092,0.166c-0.455,7.835,0.008,15.743-0.243,23.592
				c-0.151,4.653-0.423,9.29-0.9,13.92c-0.421,4.117-0.323,8.29-0.789,12.396C174.826,77.548,173.279,77.915,172.01,78.261z"/>
			<path style="fill:#F9CB83;" d="M177.098,58.423c-1.045-11.202-0.813-22.561-3.308-33.564
				c-3.016,14.553-4.643,29.334-6.491,44.074c-0.141,3.617-0.283,7.228-0.435,10.839c1.48-0.596,3.014-0.905,4.543-1.343
				c-0.131-4.13,0.638-8.417,0.884-12.534c0.283-4.742,0.317-9.485,0.515-14.229c0.358-8.541,0.178-17.182,1.01-25.688
				c0.006-0.053,0.041-0.102,0.088-0.146c0.181,0.531,0.281,1.084,0.338,1.646c-0.388,8.615-0.44,17.297-0.621,25.912
				c-0.172,8.238-0.247,16.725-1.61,24.871c1.27-0.346,2.816-0.713,3.799-1.504c0.466-4.106,0.368-8.279,0.789-12.396
				C176.802,62.383,176.96,60.403,177.098,58.423z"/>
		</g>
		<g>
			<path style="fill:#D9AD5F;" d="M203.06,87.272c1.391-3.852,2.058-7.974,3.292-11.88c1.223-3.867,2.238-7.792,3.164-11.738
				c1.906-8.136,3.07-16.454,5.015-24.567c0.008-0.002,0.015-0.008,0.022-0.011c0.003-0.333,0.014-0.664,0.021-0.994
				c-0.394-0.757-0.775-1.506-1.293-2.195c-0.561-0.746-1.225-1.9-2.131-2.247c-0.095-0.037-0.274,0.027-0.364,0.115
				c-0.918,0.075-1.825,0.395-2.709,0.623c-0.551,0.144-1.342,0.293-1.936,0.581c0.048-0.104-0.21-0.103-0.287-0.017
				c-0.147,0.157-0.221,0.297-0.275,0.481c-0.068,0.03-0.13,0.068-0.147,0.123c-2.758,8.805-4.791,17.827-7.018,26.775
				c-1.078,4.321-1.94,8.686-3.049,13c-1.143,4.442-2.56,8.966-2.999,13.546c-0.195,0.182-0.188,0.463,0.224,0.396
				c2.268-0.357,4.58-0.284,6.862-0.526c1.199-0.131,2.908-0.049,3.665-1.154C203.233,87.412,203.175,87.318,203.06,87.272z"/>
			<path style="fill:#FFF18D;" d="M198.319,88.176c2.901-7.733,4.605-16.046,6.355-24.1c1.828-8.421,3.547-16.936,5.58-25.311
				c0.056-0.563,0.061-1.126-0.015-1.682c-0.057,0.033-0.101,0.075-0.114,0.124c-2.45,8.192-3.93,16.704-5.921,25.021
				c-1.104,4.617-2.049,9.267-3.235,13.865c-1.031,3.995-2.611,8.053-3.273,12.131c-1.585,0.138-3.148,0.146-4.714,0.448
				c4.242-17.715,8.281-35.518,12.905-53.135c0.016-0.056-0.003-0.086-0.027-0.113c0.003-0.006,0.006-0.015,0.008-0.022
				c1.663-0.525,3.413-0.97,5.141-1.192c0.033-0.007,0.064-0.018,0.097-0.031c0.607,0.558,1.027,1.471,1.495,2.108
				c0.548,0.746,0.864,1.604,1.334,2.389c-0.059,0.041-0.107,0.087-0.122,0.143c-1.951,7.604-3.014,15.454-4.768,23.11
				c-1.04,4.534-2.197,9.032-3.554,13.484c-1.205,3.963-1.909,8.074-3.154,12.017C201.22,88.019,199.63,88.08,198.319,88.176z"/>
			<path style="fill:#F9CB83;" d="M207.118,69.683c1.127-11.195,3.531-22.299,3.197-33.574c-5.752,13.704-10.189,27.896-14.83,42.01
				c-0.83,3.519-1.664,7.038-2.504,10.555c1.565-0.303,3.129-0.311,4.714-0.448c0.662-4.078,2.242-8.136,3.273-12.131
				c1.187-4.599,2.132-9.248,3.235-13.865c1.991-8.316,3.471-16.828,5.921-25.021c0.014-0.049,0.058-0.091,0.114-0.124
				c0.075,0.556,0.07,1.118,0.015,1.682c-2.033,8.375-3.752,16.89-5.58,25.311c-1.749,8.054-3.453,16.366-6.355,24.1
				c1.311-0.096,2.9-0.157,4.017-0.746c1.245-3.942,1.949-8.054,3.154-12.017C206.067,73.513,206.605,71.603,207.118,69.683z"/>
		</g>
		<g>
			<path style="fill:#D9AD5F;" d="M200.709,88.784c2.173-3.471,3.705-7.355,5.739-10.91c2.014-3.521,3.841-7.14,5.581-10.801
				c3.591-7.546,6.493-15.43,10.115-22.94c0.011,0,0.018-0.005,0.025-0.008c0.073-0.324,0.154-0.646,0.23-0.967
				c-0.224-0.821-0.438-1.639-0.797-2.421c-0.391-0.847-0.794-2.118-1.604-2.646c-0.087-0.058-0.276-0.032-0.381,0.036
				c-0.916-0.119-1.87-0.003-2.783,0.033c-0.566,0.022-1.37,0.001-2.014,0.158c0.071-0.094-0.183-0.146-0.278-0.079
				c-0.175,0.123-0.274,0.243-0.368,0.413c-0.075,0.013-0.143,0.038-0.172,0.088c-4.563,8.018-8.463,16.405-12.54,24.676
				c-1.969,3.993-3.739,8.079-5.738,12.057c-2.059,4.099-4.405,8.222-5.806,12.6c-0.23,0.137-0.278,0.414,0.136,0.435
				c2.292,0.134,4.533,0.697,6.817,0.94c1.197,0.13,2.851,0.571,3.824-0.35C200.849,88.959,200.812,88.851,200.709,88.784z"/>
			<path style="fill:#FFF18D;" d="M195.885,88.661c4.475-6.945,7.907-14.707,11.323-22.202c3.576-7.841,7.062-15.794,10.825-23.549
				c0.175-0.54,0.299-1.089,0.344-1.647c-0.061,0.021-0.114,0.052-0.138,0.101c-4.132,7.481-7.385,15.486-11.096,23.192
				c-2.06,4.276-3.969,8.617-6.105,12.861c-1.855,3.685-4.259,7.316-5.771,11.158c-1.58-0.201-3.11-0.524-4.704-0.562
				c7.906-16.41,15.632-32.95,23.891-49.185c0.025-0.052,0.013-0.088-0.004-0.116c0.004-0.007,0.009-0.015,0.014-0.021
				c1.736-0.163,3.54-0.224,5.275-0.076c0.034,0.004,0.066-0.002,0.1-0.005c0.475,0.67,0.692,1.653,1.015,2.376
				c0.377,0.841,0.504,1.751,0.796,2.612c-0.066,0.029-0.123,0.066-0.147,0.118c-3.522,7.016-6.227,14.461-9.564,21.568
				c-1.979,4.213-4.066,8.364-6.336,12.425c-2.018,3.615-3.578,7.487-5.633,11.074C198.751,89.121,197.187,88.846,195.885,88.661z"
				/>
			<path style="fill:#F9CB83;" d="M208.408,72.457c3.477-10.701,8.186-21.042,10.249-32.13
				c-8.528,12.17-15.876,25.096-23.406,37.905c-1.561,3.261-3.119,6.522-4.689,9.781c1.594,0.037,3.124,0.36,4.704,0.562
				c1.513-3.842,3.916-7.474,5.771-11.158c2.137-4.244,4.046-8.585,6.105-12.861c3.711-7.706,6.964-15.711,11.096-23.192
				c0.023-0.049,0.077-0.079,0.138-0.101c-0.045,0.559-0.169,1.107-0.344,1.647c-3.764,7.755-7.249,15.708-10.825,23.549
				c-3.416,7.495-6.849,15.257-11.323,22.202c1.302,0.185,2.866,0.46,4.083,0.123c2.055-3.587,3.614-7.459,5.633-11.074
				C206.57,75.977,207.5,74.224,208.408,72.457z"/>
		</g>
		<g>
			<path style="fill:#D9AD5F;" d="M171.901,84.938c1.523-3.798,2.34-7.896,3.71-11.753c1.356-3.823,2.513-7.707,3.574-11.622
				c2.194-8.063,3.651-16.335,5.881-24.373c0.008-0.004,0.016-0.008,0.023-0.01c0.017-0.332,0.037-0.663,0.057-0.997
				c-0.365-0.765-0.722-1.528-1.214-2.235c-0.536-0.766-1.156-1.944-2.051-2.322c-0.093-0.042-0.274,0.019-0.366,0.104
				c-0.922,0.043-1.84,0.328-2.733,0.527c-0.554,0.122-1.349,0.244-1.953,0.512c0.052-0.104-0.205-0.11-0.287-0.028
				c-0.151,0.155-0.23,0.287-0.29,0.472c-0.072,0.027-0.133,0.063-0.154,0.12c-3.066,8.697-5.416,17.645-7.96,26.508
				c-1.227,4.279-2.244,8.614-3.503,12.885c-1.301,4.396-2.876,8.87-3.479,13.431c-0.202,0.178-0.202,0.455,0.212,0.406
				c2.279-0.277,4.583-0.123,6.875-0.286c1.203-0.084,2.907,0.054,3.703-1.024C172.067,85.085,172.016,84.988,171.901,84.938z"/>
			<path style="fill:#FFF18D;" d="M167.131,85.671c3.172-7.621,5.17-15.871,7.199-23.857c2.128-8.35,4.148-16.794,6.474-25.1
				c0.076-0.56,0.102-1.12,0.047-1.677c-0.057,0.03-0.104,0.071-0.118,0.119c-2.738,8.099-4.519,16.556-6.802,24.796
				c-1.268,4.573-2.377,9.187-3.725,13.739c-1.174,3.957-2.893,7.958-3.699,12.009c-1.589,0.079-3.153,0.035-4.728,0.279
				c4.865-17.552,9.531-35.201,14.776-52.645c0.017-0.053-0.004-0.086-0.023-0.111c0-0.008,0.005-0.017,0.008-0.022
				c1.68-0.468,3.444-0.848,5.181-1.014c0.033,0,0.063-0.014,0.097-0.021c0.587,0.577,0.974,1.503,1.418,2.157
				c0.523,0.762,0.811,1.635,1.247,2.431c-0.058,0.039-0.109,0.088-0.124,0.142c-2.219,7.528-3.559,15.336-5.583,22.926
				c-1.199,4.495-2.515,8.949-4.028,13.351c-1.343,3.914-2.19,8.004-3.575,11.896C170.034,85.619,168.446,85.625,167.131,85.671z"/>
			<path style="fill:#F9CB83;" d="M176.577,67.505c1.522-11.151,4.32-22.162,4.384-33.44c-6.234,13.492-11.17,27.52-16.307,41.457
				c-0.955,3.488-1.91,6.978-2.875,10.458c1.574-0.244,3.139-0.2,4.728-0.279c0.807-4.051,2.525-8.052,3.699-12.009
				c1.348-4.553,2.457-9.166,3.725-13.739c2.283-8.24,4.064-16.697,6.802-24.796c0.015-0.048,0.062-0.089,0.118-0.119
				c0.055,0.557,0.029,1.117-0.047,1.677c-2.326,8.306-4.346,16.75-6.474,25.1c-2.029,7.986-4.027,16.236-7.199,23.857
				c1.315-0.046,2.903-0.052,4.041-0.603c1.385-3.892,2.232-7.981,3.575-11.896C175.395,71.295,176,69.403,176.577,67.505z"/>
		</g>
		<g>
			<path style="fill:#D9AD5F;" d="M185.609,88.254c1.526-3.798,2.343-7.897,3.711-11.754c1.357-3.822,2.513-7.709,3.574-11.622
				c2.194-8.063,3.653-16.336,5.882-24.375c0.01-0.002,0.016-0.005,0.023-0.01c0.015-0.33,0.037-0.662,0.058-0.995
				c-0.367-0.767-0.724-1.528-1.217-2.237c-0.534-0.766-1.155-1.941-2.047-2.322c-0.096-0.039-0.275,0.021-0.367,0.104
				c-0.923,0.042-1.841,0.329-2.734,0.528c-0.554,0.122-1.349,0.245-1.952,0.512c0.052-0.105-0.206-0.109-0.287-0.027
				c-0.153,0.153-0.23,0.288-0.291,0.472c-0.073,0.025-0.134,0.06-0.153,0.116c-3.067,8.7-5.418,17.646-7.961,26.512
				c-1.228,4.279-2.244,8.612-3.506,12.883c-1.298,4.4-2.874,8.87-3.475,13.434c-0.202,0.175-0.202,0.452,0.211,0.403
				c2.28-0.275,4.585-0.12,6.874-0.288c1.203-0.082,2.908,0.057,3.705-1.022C185.779,88.401,185.724,88.303,185.609,88.254z"/>
			<path style="fill:#FFF18D;" d="M180.842,88.989c3.171-7.628,5.169-15.875,7.199-23.858c2.128-8.352,4.145-16.796,6.472-25.099
				c0.076-0.564,0.102-1.122,0.046-1.681c-0.055,0.033-0.101,0.071-0.117,0.122c-2.738,8.098-4.517,16.553-6.802,24.793
				c-1.266,4.575-2.375,9.186-3.725,13.742c-1.173,3.955-2.892,7.955-3.698,12.006c-1.59,0.083-3.152,0.035-4.729,0.281
				c4.867-17.553,9.533-35.204,14.777-52.647c0.015-0.052-0.004-0.083-0.025-0.11c0.004-0.008,0.008-0.014,0.01-0.021
				c1.679-0.47,3.443-0.847,5.18-1.014c0.034-0.003,0.064-0.013,0.097-0.025c0.588,0.579,0.975,1.506,1.42,2.159
				c0.521,0.765,0.809,1.634,1.248,2.434c-0.061,0.039-0.109,0.086-0.125,0.142c-2.219,7.527-3.562,15.333-5.583,22.925
				c-1.2,4.496-2.515,8.949-4.028,13.351c-1.345,3.915-2.192,8.003-3.577,11.896C183.744,88.935,182.153,88.938,180.842,88.989z"/>
			<path style="fill:#F9CB83;" d="M190.29,70.82c1.52-11.148,4.315-22.163,4.38-33.441c-6.232,13.492-11.168,27.521-16.303,41.46
				c-0.957,3.487-1.913,6.974-2.879,10.457c1.576-0.246,3.139-0.198,4.729-0.281c0.807-4.051,2.525-8.051,3.698-12.006
				c1.35-4.557,2.459-9.167,3.725-13.742c2.285-8.24,4.064-16.695,6.802-24.793c0.016-0.051,0.063-0.089,0.117-0.122
				c0.056,0.559,0.03,1.116-0.046,1.681c-2.326,8.303-4.344,16.747-6.472,25.099c-2.03,7.983-4.028,16.23-7.199,23.858
				c1.312-0.051,2.902-0.055,4.039-0.606c1.385-3.894,2.232-7.981,3.577-11.896C189.105,74.608,189.707,72.717,190.29,70.82z"/>
		</g>
		<g>
			<path style="fill:#D9AD5F;" d="M171.296,81.992c-0.052-4.095-0.873-8.19-1.086-12.278c-0.219-4.051-0.643-8.082-1.163-12.102
				c-1.07-8.289-2.9-16.485-3.927-24.765c0.005-0.007,0.011-0.014,0.017-0.02c-0.114-0.309-0.222-0.624-0.33-0.938
				c-0.633-0.568-1.255-1.137-1.982-1.601c-0.788-0.5-1.813-1.352-2.783-1.357c-0.103-0.001-0.25,0.124-0.301,0.237
				c-0.834,0.391-1.571,1.009-2.318,1.534c-0.467,0.326-1.154,0.743-1.607,1.223c0.008-0.116-0.233-0.022-0.275,0.086
				c-0.082,0.199-0.102,0.354-0.091,0.55c-0.054,0.052-0.096,0.105-0.095,0.167c0.51,9.209,1.775,18.373,2.832,27.533
				c0.507,4.422,1.232,8.814,1.708,13.242c0.49,4.561,0.754,9.293,1.946,13.735c-0.116,0.24-0.013,0.5,0.352,0.295
				c1.998-1.134,4.188-1.873,6.238-2.907c1.078-0.541,2.708-1.063,3.027-2.365C171.507,82.063,171.419,81.994,171.296,81.992z"/>
			<path style="fill:#FFF18D;" d="M167.174,84.501c0-8.256-1.32-16.642-2.511-24.795c-1.245-8.525-2.624-17.1-3.661-25.66
				c-0.145-0.546-0.339-1.072-0.604-1.568c-0.041,0.049-0.067,0.105-0.063,0.157c0.58,8.532,2.185,17.021,3.244,25.508
				c0.584,4.709,1.332,9.393,1.834,14.115c0.436,4.105,0.382,8.457,1.193,12.509c-1.437,0.686-2.895,1.244-4.257,2.073
				c-2.245-18.072-4.714-36.164-6.568-54.281c-0.007-0.056-0.036-0.078-0.066-0.095c0-0.008,0-0.017-0.002-0.025
				c1.372-1.078,2.856-2.105,4.395-2.924c0.029-0.014,0.055-0.037,0.079-0.06c0.765,0.309,1.48,1.015,2.14,1.448
				c0.778,0.507,1.374,1.201,2.086,1.769c-0.038,0.059-0.066,0.119-0.061,0.179c0.842,7.8,2.602,15.525,3.647,23.309
				c0.62,4.614,1.113,9.232,1.407,13.875c0.261,4.135,1.05,8.231,1.264,12.359C169.833,83.335,168.367,83.952,167.174,84.501z"/>
			<path style="fill:#F9CB83;" d="M168.922,64.099c-2.877-10.876-4.522-22.12-8.796-32.56c-0.573,14.851,0.257,29.697,0.863,44.541
				c0.457,3.586,0.913,7.177,1.36,10.76c1.362-0.829,2.82-1.388,4.257-2.073c-0.812-4.052-0.758-8.403-1.193-12.509
				c-0.502-4.723-1.25-9.406-1.834-14.115c-1.059-8.487-2.664-16.976-3.244-25.508c-0.004-0.052,0.022-0.108,0.063-0.157
				c0.265,0.496,0.458,1.022,0.604,1.568c1.037,8.561,2.416,17.135,3.661,25.66c1.191,8.153,2.511,16.539,2.511,24.795
				c1.193-0.549,2.659-1.166,3.497-2.107c-0.214-4.128-1.003-8.225-1.264-12.359C169.281,68.051,169.113,66.074,168.922,64.099z"/>
		</g>
		<path style="fill:#A74634;" d="M197.882,111.295c0.004-0.037-0.005-0.062-0.016-0.089c2.605-6.276,5.175-12.77,7.239-19.237
			c1.073-3.357,2.116-6.71,3.312-10.029c0.809-2.247,1.399-4.912,2.336-7.277c0.029-0.023,0.053-0.051,0.063-0.078
			c0.14-0.339,0.279-0.677,0.413-1.014c0.258-0.541,0.532-1.066,0.847-1.548c0.123-0.184,0.073-0.296-0.044-0.35
			c0.109-0.252,0.215-0.505,0.326-0.758c0.334-0.752,1.661-2.461,1.593-3.329c-0.056-0.69-0.388-0.956-1.109-0.811
			c-0.404,0.082-0.805,0.262-1.163,0.457c-1.209,0.66-1.345-0.045-2.037-1.085c-0.493-0.747-1.217-1.103-2.101-0.719
			c-0.514,0.222-0.987,0.48-1.473,0.762c-1.697,0.979-1.727-1.594-2.538-2.028c-0.855-0.455-1.654-0.245-2.497,0.196
			c-1.884,0.987-2.103-1.249-3.651-1.559c-0.837-0.165-1.985,1.301-2.692,1.303c-0.019-0.016-0.025-0.031-0.053-0.046
			c-1.109-0.612-1.659-2.812-3.05-2.897c-0.637-0.042-0.997-0.037-1.627,0.16c-1.352,0.425-2.002,0.098-3.094-0.729
			c-1.156-0.877-2.908,0.966-3.939-0.001c-0.799-0.75-1.061-2.156-2.493-1.69c-0.744,0.244-1.272,0.571-1.922,1.026
			c-0.398,0.279-1.362-1.475-1.769-1.786c-0.521-0.404-1.859,0.067-2.305,0.345c-1.472,0.904-1.879,1.458-3.352-0.394
			c-0.407-0.518-0.747-0.99-1.435-1.114c-1.215-0.224-3.032,1.946-4.019,1.101c-0.68-0.867-0.982-2.425-2.396-2.152
			c-1.633,0.311-2.788,1.665-4.057-0.097c-0.524-0.726-1.133-0.934-1.964-0.496c-0.795,0.422-1.814,1.236-2.722,0.58
			c-0.416-0.3-0.619-0.775-1.131-0.961c-0.178-0.064-0.505,0.026-0.523,0.245c-0.013,0.135,0.029,0.154,0.124,0.257
			c0.033,0.031,0.084,0.05,0.139,0.05c0.008,0.009,0.013,0.02,0.018,0.025c-0.119-0.051-0.397,0.03-0.429,0.157
			c-1.847,7.326-2.977,14.983-3.659,22.502c-0.693,7.652-1.935,15.14-2.118,22.846c-0.014,0.018-0.036,0.031-0.042,0.052
			c-0.792,1.642-2.489,2.75-3.131,4.387c-0.042,0.112-0.036,0.214,0.047,0.304c0.869,0.947,2.432,0.479,3.555,0.293
			c3.491-0.583,6.29,1.472,9.506,2.661c2.781,1.029,5.74,1.51,8.618,2.192c3.102,0.737,6.129,1.731,9.24,2.434
			c5.387,1.219,11.058,1.815,16.578,1.582c1.593-0.066,3.079-0.104,4.581,0.544c0.284,0.122,0.591-0.025,0.856-0.12
			C197.906,114.948,197.759,112.229,197.882,111.295z"/>
		<path style="fill:#E64525;" d="M195.613,114.289c-0.666-0.266-0.808-0.315-1.498-0.495c-0.429-0.113-2.271,0.296-2.48,0.318
			c-1.266,0.146-2.544-0.07-3.817-0.062c-5.614,0.037-11.648-1.039-17.045-2.638c-5.867-1.736-11.886-2.706-17.464-5.314
			c-1.749-0.816-2.577-1.606-4.556-1.154c-0.886,0.199-4.414,0.987-2.834-0.858c0.735-0.861,1.327-1.714,1.8-2.715
			c0.102-0.075,0.174-0.172,0.18-0.273c0.465-7.448,1.149-14.753,2.069-22.154c0.965-7.775,1.561-15.634,3.207-23.312
			c0.011-0.048-0.012-0.071-0.045-0.092c0.505,0.601,0.899,1.735,1.761,1.714c1.368-0.03,2.355-2.076,3.547-0.444
			c0.682,0.933,1.453,1.202,2.517,0.891c0.455-0.131,1.063-0.519,1.451-0.759c0.623-0.382,1.926,1.295,2.534,1.665
			c0.072,0.044,0.181,0.044,0.297,0.023c0.374,0.484,0.708,0.603,1.433,0.324c0.548-0.208,1.086-0.628,1.588-0.917
			c1.768-1.021,1.842,1.353,2.779,1.906c1.021,0.608,1.735,0.274,2.758-0.278c1.544-0.834,2.451-0.881,3.283,0.873
			c0.105,0.221,0.312,0.392,0.56,0.386c0.294-0.008,0.64-0.038,0.903-0.192c1.28-0.749,2.388-0.792,3.423,0.422
			c0.808,0.942,1.897,0.708,2.901,0.229c1.292-0.611,2.4,1.179,3.823,1.056c1.494-0.127,3.078-0.06,3.943,1.271
			c0.291,0.45,0.574,0.592,0.95,0.708c0.059,0.128,0.104,0.259,0.12,0.401c0.029,0.123,0.206,0.152,0.308,0.149
			c0.966-0.026,1.731-0.629,2.534-1.125c0.988-0.613,1.574,1.593,2.462,1.88c0.66,0.216,1.476-0.307,2.031-0.595
			c2.779-1.428,1.911,2.175,3.709,2.064c0.861-0.051,3.118-1.315,3.662-0.933c0.705,0.492,0.554,2.327,1.772,2.3
			c0.991-0.022,3.716-2.191,1.913,0.543c-0.784,1.184-1.355,2.771-1.703,4.27c-1.046,2.114-1.699,4.616-2.402,6.754
			c-1.211,3.669-2.592,7.271-3.71,10.978c-2.088,6.913-5.881,13.458-7.445,20.508c-0.016,0.074,0.01,0.124,0.046,0.16
			c-0.227,0.684-0.396,1.352-0.523,2.089C196.485,114.642,196.237,114.783,195.613,114.289z"/>
		<path style="fill:#FFFFFF;" d="M156.999,57.68c0.224-0.111,0.455-0.075,0.641,0.09c0.772,0.695,1.409,1.491,2.1,2.261
			c0.79-0.81,1.905-2.053,2.974-1.772c0.925,0.243,2.5,3.686,3.196,3.17c0.591-0.438,2.271-2.574,3.285-1.887
			c1.141,0.769,1.592,2.197,2.518,3.188c1.023-0.868,1.986-1.711,3.207-2.328c0.265-0.132,0.567-0.053,0.724,0.199
			c0.54,0.874,1.02,2.017,1.776,2.72c0.893,0.829,2.01-0.595,2.629-1.039c0.724-0.513,1.953-0.142,2.496,0.467
			c0.714,0.792,1.204,2.626,2.851,1.271c0.576-0.47,1.006-0.802,1.739-0.953c1.133-0.232,1.68,0.633,2.188,1.482
			c1.032,1.72,2.153-0.543,3.465,0.222c1.075,0.622,1.303,3.711,3.068,2.088c0.649-0.601,1.695-1.344,2.595-0.88
			c0.468,0.241,0.976,1.635,1.268,1.916c0.932,0.904,2.175-0.199,2.977-0.588c0.257-0.125,0.578-0.067,0.724,0.2
			c0.663,1.217,1.09,2.713,2.615,1.788c0.496-0.302,1.054-0.604,1.66-0.444c0.513,0.135,1.038,0.475,1.22,0.994
			c0.431,1.221,1.036,2.001,1.77,2.429c0.345-1.146,0.816-2.271,1.409-3.17c1.803-2.734-0.922-0.565-1.913-0.543
			c-1.219,0.027-1.067-1.808-1.772-2.3c-0.544-0.383-2.801,0.882-3.662,0.933c-1.798,0.11-0.93-3.492-3.709-2.064
			c-0.556,0.288-1.371,0.811-2.031,0.595c-0.888-0.287-1.474-2.493-2.462-1.88c-0.803,0.496-1.568,1.099-2.534,1.125
			c-0.102,0.003-0.278-0.026-0.308-0.149c-0.016-0.143-0.062-0.273-0.12-0.401c-0.376-0.116-0.659-0.258-0.95-0.708
			c-0.865-1.331-2.449-1.398-3.943-1.271c-1.423,0.123-2.531-1.667-3.823-1.056c-1.004,0.478-2.094,0.713-2.901-0.229
			c-1.035-1.214-2.143-1.171-3.423-0.422c-0.264,0.154-0.609,0.185-0.903,0.192c-0.248,0.006-0.455-0.165-0.56-0.386
			c-0.832-1.754-1.739-1.707-3.283-0.873c-1.023,0.553-1.736,0.887-2.758,0.278c-0.938-0.554-1.012-2.928-2.779-1.906
			c-0.502,0.289-1.04,0.709-1.588,0.917c-0.725,0.278-1.059,0.16-1.433-0.324c-0.116,0.021-0.225,0.021-0.297-0.023
			c-0.608-0.37-1.911-2.047-2.534-1.665c-0.388,0.24-0.996,0.628-1.451,0.759c-1.063,0.312-1.835,0.042-2.517-0.891
			c-1.191-1.632-2.179,0.414-3.547,0.444c-0.861,0.021-1.256-1.112-1.761-1.714c0.033,0.021,0.056,0.044,0.045,0.092
			c-0.345,1.607-0.634,3.221-0.899,4.839C153.847,59.536,155.362,58.51,156.999,57.68z"/>
		<path style="fill:#F59083;" d="M162.143,69.911c-1.125-0.885-2.59-1.849-4.003-2.933c3.587,7.224,9.56,13.079,17.072,16.376
			c-1.91-2.277-3.703-4.654-5.693-6.863C167.289,74.018,164.752,71.963,162.143,69.911z"/>
		<path style="fill:#F59083;" d="M175.007,88.489c2.733,0.433,5.631,0.021,8.238-0.797c3.379-1.061,5.905-2.444,6.977-5.443
			C185.564,85.38,180.391,87.077,175.007,88.489z"/>
		<path style="fill:#BF5D61;" d="M196.355,113.86c0.126-0.737,0.296-1.405,0.523-2.089c-0.036-0.036-0.062-0.086-0.046-0.16
			c1.564-7.05,5.357-13.595,7.445-20.508c1.118-3.706,2.499-7.309,3.71-10.978c0.703-2.138,1.356-4.64,2.402-6.754
			c0.348-1.499,0.919-3.086,1.703-4.27c1.803-2.734-0.922-0.565-1.913-0.543c-1.219,0.027-1.067-1.808-1.772-2.3
			c-0.189-0.134-0.592-0.061-1.063,0.082c-1.976,2.227-4.174,4.231-6.77,5.673c-3.186,1.775-6.61,3.054-9.933,4.537
			c-2.379,1.061-5.061,1.503-7.251,2.936c5.432,1.404,11.324-1.15,16.305-3.145c0.366-0.147,0.772,0.292,0.652,0.648
			c-1.909,5.551-6.237,11.532-11.281,14.661c-4.581,2.842-10.203,3.467-15.474,2.66c-9.747-1.488-19.455-8.791-19.033-19.463
			c0.021-0.549,0.698-0.708,0.991-0.264c2.152,3.237,4.896,5.638,8.117,7.785c2.124,1.415,4.601,3.226,7.198,3.699
			c-1.521-2.253-4.564-3.949-6.387-5.809c-2.347-2.39-4.509-4.941-6.252-7.812c-2.737-4.507-4.71-9.371-5.505-14.537
			c-1.31,6.952-1.886,14.023-2.756,21.03c-0.92,7.401-1.605,14.706-2.069,22.154c-0.006,0.102-0.078,0.198-0.18,0.273
			c-0.473,1.001-1.064,1.854-1.8,2.715c-1.58,1.846,1.948,1.058,2.834,0.858c1.979-0.452,2.807,0.338,4.556,1.154
			c5.578,2.608,11.597,3.578,17.464,5.314c5.396,1.599,11.431,2.675,17.045,2.638c1.273-0.009,2.552,0.208,3.817,0.062
			c0.209-0.022,2.052-0.432,2.48-0.318c0.69,0.18,0.832,0.229,1.498,0.495C196.237,114.783,196.485,114.642,196.355,113.86z"/>
		<path style="fill:#F59083;" d="M159.064,75.578c3.032,4.65,6.818,7.847,11.525,10.134c-1.587-2.072-4.387-3.692-6.109-5.45
			c-2.347-2.39-4.509-4.941-6.252-7.812c-1.21-1.993-2.262-4.062-3.138-6.19C155.842,69.554,157.195,72.717,159.064,75.578z"/>
		<path style="fill:#F59083;" d="M197.366,76.58c1.646-0.933,2.956-2.199,4.202-3.529c0.804-1.108,1.576-2.241,2.354-3.368
			c-1.047,0.872-2.153,1.668-3.348,2.332c-3.186,1.775-6.61,3.054-9.933,4.537c-1.944,0.869-4.088,1.33-6.003,2.25
			C188.852,80.233,193.635,78.7,197.366,76.58z"/>
		<path style="fill:#BF5D61;" d="M196.355,113.86c0.126-0.737,0.296-1.405,0.523-2.089c-0.036-0.036-0.062-0.086-0.046-0.16
			c1.564-7.05,5.357-13.595,7.445-20.508c1.118-3.706,2.499-7.309,3.71-10.978c0.407-1.234,0.805-2.588,1.263-3.919
			c-0.213,0.4-0.434,0.798-0.645,1.197c-2.598,5.007-5.184,9.931-8.889,14.231c-2.909,3.378-6.076,6.679-10.494,7.939
			c-3.977,1.133-8.193,1.061-12.277,0.649c-8.092-0.812-18.338-3.191-22.917-10.671c-2.604-4.259-3.38-9.042-3.67-13.91
			c-0.127,1.101-0.255,2.203-0.391,3.301c-0.92,7.401-1.605,14.706-2.069,22.154c-0.006,0.102-0.078,0.198-0.18,0.273
			c-0.473,1.001-1.064,1.854-1.8,2.715c-1.58,1.846,1.948,1.058,2.834,0.858c1.979-0.452,2.807,0.338,4.556,1.154
			c5.578,2.608,11.597,3.578,17.464,5.314c5.396,1.599,11.431,2.675,17.045,2.638c1.273-0.009,2.552,0.208,3.817,0.062
			c0.209-0.022,2.052-0.432,2.48-0.318c0.69,0.18,0.832,0.229,1.498,0.495C196.237,114.783,196.485,114.642,196.355,113.86z"/>
	</g>
	<g>
		<path style="fill:#831F2C;" d="M36.472,118.423c-4.197,0.034-11.297-0.328-11.681-3.12c-2.809-9.964-16.907-60.051-16.973-60.654
			l-0.057-0.516l59.843-8.182l0.085,0.51c0.024,0.152,0.09,0.559-0.058,60.646l-0.005,2.029c0.041,0.098,0.076,0.191,0.09,0.304
			c0.465,3.404-10.342,6.755-20.745,8.18C43.319,118.12,39.688,118.398,36.472,118.423z"/>
		<path style="fill:#EF485B;" d="M9.003,55.034c1.273,4.745,11.369,40.668,16.828,60.053c0.163,1.172,3.553,2.331,10.634,2.273
			c3.169-0.025,6.753-0.299,10.363-0.793c12.644-1.729,20.075-5.237,19.835-6.993l-0.1-0.229l0.007-2.24
			c0.112-45.496,0.102-57.455,0.076-59.95L9.003,55.034z"/>
		<path style="fill:#FFFFFF;" d="M19.506,84.333c-1.813-6.783-3.71-13.535-5.681-20.271c-0.907-3.1-1.801-6.203-2.572-9.333
			l-2.25,0.306c1.273,4.745,11.369,40.668,16.828,60.053c0.076,0.557,0.9,1.112,2.497,1.537
			C26.224,105.689,22.365,95.028,19.506,84.333z"/>
		<path style="fill:#EF485B;" d="M66.57,107.104c0.112-45.496,0.102-57.455,0.076-59.95l-57.644,7.88
			c0.219,0.817,0.703,2.572,1.377,4.989c3.211,1.588,6.862,2.306,10.433,2.567c4.871,0.358,10.129,0.579,14.974,0
			c2.918-0.351,7.095-1.58,9.688,0.417c2.179,1.675,3.2,4.509,3.815,7.094c1.655,6.918,1.617,14.221,2.435,21.268
			c0.724,6.257,1.327,12.557,2.365,18.771c0.273,1.645,0.607,3.279,0.945,4.912c7.57-1.809,11.812-4.144,11.628-5.478l-0.1-0.229
			L66.57,107.104z"/>
		<g>
			<path style="fill:#999B9E;" d="M23.389,60.056L23.389,60.056c-4.95,0.041-16.523-0.31-17.084-4.409l-2.918-8.982l66.521-9.098
				l-0.395,9.528c0.373,2.659-4.561,5.11-8.767,6.686c-5.725,2.141-13.469,3.945-21.809,5.088
				C33.525,59.608,28.149,60.02,23.389,60.056z"/>
			<path style="fill:#D3D5D6;" d="M4.789,47.544l2.546,7.867c0.268,1.892,5.318,3.669,16.043,3.583
				c4.718-0.038,10.049-0.447,15.418-1.182c8.262-1.127,15.926-2.914,21.579-5.028c5.273-1.974,8.296-4.081,8.083-5.639l0.336-8.354
				L4.789,47.544z"/>
			<path style="fill:#D3D5D6;" d="M4.789,47.544l0.1,0.307c3.14,3.022,8.182,4.118,12.302,4.712
				c6.532,0.939,12.805,0.873,19.295-0.234c4.09-0.695,9-1.493,11.935,2.117c0.372,0.461,0.681,0.963,0.961,1.482
				c4.114-0.913,7.868-1.975,10.994-3.144c5.273-1.974,8.296-4.081,8.083-5.639l0.336-8.354L4.789,47.544z"/>
			<g>
				<path style="fill:#999B9E;" d="M21.473,51.783c-5.19,0.043-17.324-0.325-17.911-4.61c-0.701-5.125,16.006-10.23,32.079-12.428
					c5.683-0.774,11.327-1.207,16.324-1.249c5.19-0.039,17.326,0.325,17.913,4.609c0.391,2.872-4.778,5.44-9.188,7.088
					c-6.008,2.246-14.138,4.144-22.892,5.341C32.116,51.312,26.469,51.745,21.473,51.783z"/>
				<path style="fill:#FFFFFF;" d="M51.974,34.558c-4.952,0.041-10.55,0.467-16.191,1.239C16.864,38.385,4.171,43.795,4.614,47.029
					c0.261,1.904,5.57,3.781,16.85,3.692c4.953-0.041,10.552-0.468,16.191-1.238c8.679-1.188,16.727-3.064,22.664-5.283
					c5.551-2.078,8.731-4.302,8.505-5.95C68.564,36.348,63.252,34.471,51.974,34.558z"/>
				<path style="fill:#5C5F61;" d="M38.906,40.371c-0.951,0.006-2.03,0.089-3.116,0.238c-3.645,0.499-6.088,1.54-6.004,2.162
					c0.052,0.367,1.074,0.729,3.244,0.712c0.956-0.008,2.035-0.091,3.121-0.238c1.67-0.229,3.221-0.592,4.364-1.018
					c1.068-0.401,1.68-0.829,1.638-1.148C42.102,40.717,41.079,40.354,38.906,40.371z"/>
			</g>
		</g>
		<path style="fill:#2A8C43;" d="M32.668,2.486l-4.545,1.342l-0.255-0.29L23.563,3.73l7.857,39.225
			c0.038,0.269,0.79,0.535,2.39,0.522c0.703-0.005,1.496-0.064,2.296-0.176c1.23-0.167,2.374-0.432,3.214-0.748
			c0.787-0.296,1.238-0.611,1.207-0.844L32.668,2.486z"/>
		<path style="opacity:0.5;fill:#00733B;" d="M39.385,42.522c0.744-0.284,1.173-0.589,1.142-0.813L32.668,2.486l-1.89,0.556
			C31.349,6.005,38.179,36.713,39.385,42.522z"/>
		<path style="fill:#2A8C43;" d="M24.58,3.685L23.563,3.73l7.857,39.225c0.025,0.193,0.434,0.384,1.257,0.474
			C30.105,30.151,28.069,16.76,24.58,3.685z"/>
		<path style="fill:#00491B;" d="M30.278,1.962c-0.702,0.006-1.495,0.067-2.296,0.177c-2.682,0.364-4.482,1.133-4.419,1.591
			c0.037,0.27,0.791,0.537,2.39,0.524c0.702-0.005,1.495-0.067,2.296-0.176c1.23-0.169,2.37-0.435,3.214-0.748
			c0.788-0.295,1.238-0.61,1.205-0.844C32.63,2.217,31.878,1.95,30.278,1.962z"/>
	</g>
	<g>
		<g>
			<g>
				<path style="fill:#8E523A;" d="M154.047,113.306c0.325-0.436,0.632-0.887,0.911-1.352c0.556-0.931,0.886-1.98,1.539-2.828
					c1.81-4.047,2.831-8.248,2.348-12.846c-0.61-5.813-3.669-11.313-7.185-15.859c-7.538-9.753-19.632-14.402-31.394-16.611
					c-12.762-2.396-25.912-1.066-37.821,4.12C72.418,72.299,62.54,79.205,58.314,89.658c-2.078,5.14-2.497,11.052-1.362,16.455
					c0.717,3.401,2.21,6.229,4.291,8.629c-0.116,0.051-0.227,0.238-0.134,0.32c3.154,2.897,6.149,5.338,10.123,7.04
					c4.121,1.769,8.514,3.1,12.803,4.393c8.692,2.616,18.157,2.591,27.145,2.057c8.962-0.532,17.955-2.274,26.438-5.221
					c3.88-1.348,7.314-3.391,10.763-5.592C150.43,116.428,152.385,115.015,154.047,113.306z"/>
				<path style="fill:#FCE8C7;" d="M138.097,70.72c-12.062-6.162-26.745-8.566-40.136-6.499c-6.861,1.06-13.493,3.262-19.637,6.502
					c-5.691,3.003-11.387,6.813-15.329,11.993c-4.119,5.414-6.355,12.265-5.804,19.101c0.287,3.535,1.145,7.07,3.017,10.123
					c1.438,2.342,3.246,4.09,5.238,5.807c5.597,3.582,11.881,5.675,18.337,7.611c8.422,2.525,17.336,2.802,26.073,2.337
					c8.683-0.458,17.352-1.866,25.646-4.524c4.095-1.312,7.778-3.08,11.414-5.366c2.855-1.798,5.551-3.648,7.757-6.118
					c1.565-3.326,3.207-6.813,3.45-10.529C158.978,88.216,149.073,76.325,138.097,70.72z"/>
				<path style="fill:#FDD57C;" d="M138.097,70.72c-12.062-6.162-26.745-8.566-40.136-6.499c-6.861,1.06-13.493,3.262-19.637,6.502
					c-3.331,1.759-6.655,3.805-9.639,6.229c9.676-3.473,20.122-3.293,30.336-0.497c6.62,1.812,12.842,4.952,19.51,6.54
					c7.581,1.805,14.438,0.456,21.609-2.239c0.213-0.08,0.493,0.086,0.537,0.304c0.625,3.046-1.516,5.891-3.448,8.02
					c-2.223,2.446-4.757,4.534-7.265,6.664c2.522-0.562,4.773-2.655,6.5-4.393c1.844-1.855,3.298-3.837,4.843-5.911
					c0.685-0.921,1.938-0.662,2.583,0.242c1.182,1.66,1.541,4.179,1.434,6.184c-0.555,10.669-10.208,19.828-19.518,23.739
					c-9.034,3.798-19.916,5.255-29.647,4.006c-4.309-0.553-8.918-1.606-12.452-4.285c-2.689-2.038-5.352-5.067-4.67-8.714
					c1.247-6.679,9.303-11.074,15.542-13.134c-4.148-0.601-8.446,1.536-12.335,2.69c-0.249,0.071-0.449-0.089-0.538-0.306
					c-0.618-1.52-0.569-3.08-0.723-4.687c-0.197-2.037-0.949-3.968-2.037-5.699c-1.651-2.631-3.772-4.268-6.709-5.264
					c-1.689-0.573-3.749-1.069-5.841-1.263c-1.23,1.172-2.378,2.419-3.401,3.766c-4.119,5.414-6.355,12.265-5.804,19.101
					c0.287,3.535,1.145,7.07,3.017,10.123c1.438,2.342,3.246,4.09,5.238,5.807c5.597,3.582,11.881,5.675,18.337,7.611
					c8.422,2.525,17.336,2.802,26.073,2.337c8.683-0.458,17.352-1.866,25.646-4.524c4.095-1.312,7.778-3.08,11.414-5.366
					c2.855-1.798,5.551-3.648,7.757-6.118c1.565-3.326,3.207-6.813,3.45-10.529C158.978,88.216,149.073,76.325,138.097,70.72z"/>
				<path style="fill:#FDD57C;" d="M73.812,74.184c3.657-0.273,7.244-1.093,10.877-1.553c3.414-0.432,6.826-0.675,10.23-0.006
					c3.397,0.667,6.628,1.852,9.9,2.956c7.439,2.515,15.297,4.481,23.199,4.431c4.03-0.024,8.042-0.405,11.876-1.709
					c1.935-0.659,3.86-1.468,5.434-2.804c0,0,0.002-0.001,0.004-0.004c-2.282-1.876-4.728-3.496-7.236-4.775
					c-12.062-6.162-26.745-8.566-40.136-6.499c-6.861,1.06-13.493,3.262-19.637,6.502c-2.033,1.076-4.055,2.269-6.007,3.578
					C72.815,74.258,73.314,74.222,73.812,74.184z"/>
				<path style="fill:#FDD57C;" d="M156.206,104.772c-2.002,4.765-6.662,8.198-10.985,10.719
					c-11.654,6.789-24.647,10.074-38.154,9.616c-7.317-0.249-14.971-1.126-22.116-2.793c-5.039-1.182-13.524-3.215-15.251-9.018
					c-2.41-8.09,8.778-12.553,7.847-20.291c-0.979-8.128-8.181-9.899-15.191-9.41c-3.706,5.268-5.686,11.754-5.163,18.221
					c0.287,3.535,1.145,7.07,3.017,10.123c1.438,2.342,3.246,4.09,5.238,5.807c5.597,3.582,11.881,5.675,18.337,7.611
					c8.422,2.525,17.336,2.802,26.073,2.337c8.683-0.458,17.352-1.866,25.646-4.524c4.095-1.312,7.778-3.08,11.414-5.366
					c2.855-1.798,5.551-3.648,7.757-6.118c1.565-3.326,3.207-6.813,3.45-10.529c0.077-1.146,0.064-2.283-0.023-3.407
					C157.763,100.2,157.121,102.592,156.206,104.772z"/>
			</g>
			<g>
				<path style="fill:#359255;" d="M120.763,119.944c1.31,0.91,2.705,1.36,4.31,1.28c1.585-0.076,2.295-1.609,3.046-2.753
					c0.441-0.676,0.959-1.525,1.868-1.651c0.494-0.07,0.863-0.029,1.154,0.089c0.006,0.012,0.013,0.023,0.02,0.034
					c1.013,0.401,1.72,1.668,2.361,2.759c0.156,0.092,0.313,0.176,0.458,0.228c1.41,0.49,2.761,0.396,4.167-0.088
					c1.397-0.48,2.466-1.151,2.889-2.631c0.521-1.833-1.614-3.854-0.645-5.683c1.417-2.672,5.613,1.447,7.145,1.951
					c1.283,0.418,2.401,0.16,3.585-0.478c3.464-1.858,4.435-5.523,3.185-9.177c-0.871-2.532,0.167-4.842,3.351-4.29
					c0.841,0.146,1.699,0.387,2.561,0.379c1.523-0.016,2.33-0.549,2.673-2.07c0.409-1.835-1.287-3.497-1.883-5.095
					c-0.468-1.256-1.164-3.206-0.489-4.536c0.317-0.627,0.783-1.123,1.335-1.474c0.804-0.727,1.902-0.952,3.052-1.075
					c-3.195-1.791-7.066-2.661-10.678-3.081c-3.954-0.458-7.809-0.723-11.789-0.585c-0.017,0.065-0.044,0.133-0.064,0.199
					c0.016,0.013,0.029,0.026,0.049,0.038c-0.041,0.045-0.074,0.106-0.111,0.155c-0.204,0.524-0.527,1.024-0.865,1.489
					c-0.169,0.353-0.33,0.694-0.491,0.983c-0.725,1.302-1.556,2.568-2.346,3.835c-1.584,2.534-3.284,4.619-5.382,6.762
					c-2.638,2.695-5.323,5.598-8.509,7.637c-1.189,0.768-2.359,1.619-3.602,2.293c-1.017,0.547-2.096,0.988-3.069,1.603
					c-0.106-0.017-0.201-0.002-0.266,0.039c1.078,1.887,1.55,3.989,1.814,6.164c0.004,0.022-0.004,0.037-0.006,0.059
					c0.176,0.819,0.292,1.643,0.296,2.477C119.89,117.089,119.424,119.011,120.763,119.944z"/>
				<path style="fill:#DCE35D;" d="M120.689,117.595c0.031-0.377,0.043-0.757,0.038-1.141c-0.018-1.105-0.122-2.217-0.388-3.298
					c-0.355-1.458-0.822-2.884-1.314-4.3c0.191-0.011,0.325-0.084,0.214-0.275c-0.168-0.284-0.313-0.491-0.56-0.706
					c-0.018-0.049-0.035-0.1-0.052-0.148c0.155-0.283,1.42-0.828,1.478-0.857c1.45-0.696,2.782-1.52,4.136-2.388
					c3.058-1.954,5.626-4.258,8.196-6.818c2.314-2.307,4.961-4.665,6.499-7.576c0.653-1.233,1.472-2.39,2.102-3.632
					c0.621-1.225,1.118-3.079,1.974-4.134c0.01-0.01,0.011-0.021,0.015-0.033c3.771,0.064,7.526,0.352,11.262,0.876
					c3.203,0.447,6.151,1.354,9.161,2.391c-0.837,0.042-1.848,0.392-2.24,0.646c-1.188,0.773-2.064,1.947-1.885,3.449
					c0.285,2.418,1.546,4.019,2.34,6.222c0.203,0.568,0.333,1.348,0.199,2.019c-2.973-1.957-6.118-3.628-9.313-5.201
					c-1.522-0.751-3.053-1.58-4.619-2.317c1.098,0.729,2.193,1.46,3.28,2.202c0.573,0.307,1.148,0.619,1.715,0.908
					c2.969,1.506,5.757,3.403,8.735,4.86c0.017,0.009,0.036,0.012,0.052,0.016c-0.263,0.567-0.811,0.958-1.815,0.892
					c-0.574-0.043-1.145-0.129-1.706-0.256c-0.614-0.104-1.276-0.222-1.9-0.226c-1.216-0.001-2.587,0.499-3.054,1.773
					c-0.77,2.108,0.727,3.78,0.618,5.903c-0.149,3.008-1.097,5.06-4.015,6.318c-2.334,1.01-3.849-0.958-5.809-1.833
					c-2.04-0.903-4.964-1.083-4.368,2.156c0.053,0.276,0.108,0.55,0.166,0.818c-1.12-1.738-2.319-3.407-3.558-5.053
					c0.194,0.512,0.419,0.999,0.672,1.466c0.356,0.545,0.696,1.095,0.993,1.658c0.488,0.773,0.988,1.547,1.427,2.395
					c0.013,0.027,0.016,0.056,0.024,0.083c0.221,0.301,0.438,0.608,0.668,0.903c0.017,0.021,0.042,0.038,0.07,0.054
					c0.263,1.707,0.047,3.113-2.432,3.901c-1.918,0.606-3.707,0.377-4.883-1.604c-0.319-0.539-0.561-0.721-1.029-1.076
					c-0.535-1.038-1.188-2.04-1.88-2.947c-0.189-0.251-0.38-0.515-0.566-0.774c-0.189-0.173-0.375-0.352-0.57-0.525
					c-0.404-0.358-0.789-0.726-1.183-1.082c1.149,1.535,2.162,3.219,3.128,4.87c-0.652-0.124-1.37-0.05-1.865,0.263
					c-1.368,0.864-1.648,2.436-2.803,3.455C124.256,121.469,120.541,120.17,120.689,117.595z"/>
				<path style="opacity:0.4;fill:#359255;" d="M119.884,115.73c-0.004-0.834-0.12-1.657-0.296-2.477
					c0.002-0.021,0.01-0.036,0.006-0.059c-0.264-2.175-0.735-4.277-1.814-6.164c0.065-0.041,0.159-0.056,0.266-0.039
					c0.974-0.614,2.053-1.056,3.069-1.603c1.243-0.674,2.413-1.525,3.602-2.293c3.186-2.039,5.871-4.941,8.509-7.637
					c2.098-2.143,3.798-4.228,5.382-6.762c0.79-1.267,1.62-2.533,2.346-3.835c0.161-0.289,0.322-0.631,0.491-0.983
					c0.338-0.465,0.661-0.965,0.865-1.489c0.037-0.049,0.07-0.11,0.111-0.155c-0.02-0.012-0.033-0.025-0.049-0.038
					c0.02-0.066,0.047-0.134,0.064-0.199c3.891-0.136,7.666,0.118,11.527,0.558c-0.677,0.116-1.349,0.282-2.012,0.556
					c-0.31,0.131-0.466,0.656-0.068,0.809c3.449,1.313,6.719,4.164,8.705,7.614c0.135,0.442,0.283,0.856,0.417,1.215
					c0.207,0.56,0.551,1.125,0.891,1.704c0.467,1.436,0.685,2.918,0.61,4.403c-0.447,0.754-1.176,1.045-2.291,1.058
					c-0.861,0.008-1.72-0.232-2.561-0.379c-3.184-0.552-4.222,1.758-3.351,4.29c0.471,1.375,0.624,2.755,0.451,4.036
					c-2.205-0.883-5.815-1.376-7.059,0.696c-0.686,1.148-0.449,2.301,0.419,3.29c0.484,0.552,1.24,1.065,1.901,1.629
					c-0.8,0.255-1.602,0.29-2.482,0.003c-1.531-0.504-5.728-4.623-7.145-1.951c-0.819,1.547,0.575,3.229,0.713,4.817
					c-1.443-1.606-3.021-3.063-4.587-4.555c-1.196-1.14-2.35-2.271-3.9-2.901c-0.264-0.108-0.555,0.005-0.626,0.297
					c-0.473,1.92,1.012,4.071,1.984,5.604c1.082,1.712,2.442,3.427,3.435,5.255c-1.145,0.279-2.268,0.287-3.429-0.116
					c-0.145-0.052-0.302-0.136-0.458-0.228c-0.642-1.091-1.349-2.357-2.361-2.759c-0.008-0.011-0.015-0.022-0.02-0.034
					c-0.17-0.068-0.373-0.107-0.605-0.118c-0.637-1.264-1.431-2.467-2.495-3.375c-0.773-0.66-2.473-1.737-3.395-0.628
					c-1.122,1.35-0.896,3.624-0.685,5.249c0.138,1.069,0.336,2.128,0.593,3.173c-1.386-0.036-2.628-0.457-3.791-1.266
					C119.424,119.011,119.89,117.089,119.884,115.73z"/>
			</g>
			<path style="fill:#8598C0;" d="M130.826,112.271c0.97-1.136,1.381-2.679,1.678-4.105c0.414-1.99,0.275-3.966,0.213-5.969
				c-0.009-0.299-0.448-2.61-0.066-2.703c0.478-0.116,0.977-0.388,1.444-0.674c1.177,4.307,0.989,9.833-2.239,13.216
				c-1.104,1.156-2.457,1.83-3.898,2.134C129.023,113.637,129.965,113.279,130.826,112.271z"/>
			<g>
				<path style="fill:#AC82AD;" d="M146.607,73.3c-0.253,0.016-0.215,0.33-0.067,0.568c-0.013,0.825,0.029,1.611,0.09,2.446
					c0.011,0.173,0.086,0.348,0.206,0.467c-0.033,0.811-0.134,1.719,0.214,2.329c0.397,0.701,1.945,0.837,2.602,1.022
					c2.072,0.576,4.073,1.438,5.934,2.517c1.482,0.862,2.893,2.211,3.249,3.952c0.191,0.916,0.05,1.563,0.41,2.43
					c0.021,0.048,0.056,0.093,0.098,0.131c-0.693,2.487-2.472,4.736-4.609,6.14c-3.524,2.319-7.425,1.503-11.312,1.046
					c-2.036-0.241-2.207,1.152-1.866,2.765c-0.013,0.024-0.021,0.058-0.018,0.104c0.257,5.151,8.643,3.875,11.767,3.111
					c3.033-0.739,5.899-1.918,7.876-4.414c1.449-1.831,1.769-4.436,1.623-6.843c0.131-0.705,0.218-1.412,0.245-2.122
					C163.365,80.753,154.671,72.831,146.607,73.3z"/>
				<path style="fill:#C2A1BE;" d="M162.263,88.52c-0.063-0.017-0.108,0.015-0.106,0.127c0.008,0.491,0.019,0.979,0.026,1.467
					c-0.037,0.312-0.082,0.625-0.144,0.939c-0.796,4.089-3.674,6.728-7.36,8.265c-4.045,1.685-8.332,1.066-12.44,0.04
					c-0.213-0.053-0.078,0.331,0.066,0.375c4.956,1.531,9.27,1.938,14.135-0.104c2.64-1.109,4.477-3.254,5.536-5.775
					c-0.085,0.523-0.202,1.044-0.365,1.564c-0.772,2.468-3.104,4.055-5.354,5.007c-2.169,0.917-4.526,1.442-6.858,1.727
					c-2.057,0.246-6.84,0.278-7.374-2.57c-0.003-0.016,0.001-0.025-0.003-0.044c-0.257-1.357-0.308-2.689,1.538-2.413
					c1.063,0.159,2.127,0.332,3.188,0.518c2.001,0.355,4.005,0.18,5.952-0.36c3.648-1.017,6.339-4.153,7.355-7.702
					c2.196-7.667-6.27-12.686-12.727-13.444c-0.007-0.039-0.017-0.081-0.022-0.118c-0.009-0.042-0.029-0.084-0.055-0.124
					c-0.034-0.584-0.063-1.166-0.061-1.746C154.975,74.06,162.148,80.869,162.263,88.52z"/>
			</g>
			<g>
				<path style="fill:#AC82AD;" d="M137.189,96.661c-0.107-0.229-0.385-0.081-0.556,0.146c-0.774,0.288-1.488,0.614-2.246,0.976
					c-0.155,0.075-0.291,0.208-0.357,0.363c-0.766,0.266-1.647,0.502-2.091,1.046c-0.508,0.629-0.07,2.121-0.001,2.796
					c0.221,2.143,0.145,4.32-0.178,6.443c-0.26,1.696-1.004,3.501-2.491,4.471c-0.786,0.51-1.439,0.614-2.115,1.269
					c-0.036,0.034-0.066,0.085-0.088,0.139c-2.566,0.261-5.311-0.576-7.397-2.051c-3.442-2.437-4.107-6.365-5.101-10.15
					c-0.521-1.984-1.881-1.635-3.255-0.729c-0.029-0.005-0.063,0.003-0.106,0.021c-4.701,2.119-0.449,9.462,1.398,12.091
					c1.797,2.554,3.939,4.791,6.985,5.722c2.233,0.68,4.776,0.028,6.965-0.987c0.701-0.134,1.392-0.313,2.063-0.545
					C136.365,114.984,140.569,103.998,137.189,96.661z"/>
				<path style="fill:#C2A1BE;" d="M128.733,116.794c-0.01-0.063-0.055-0.098-0.159-0.054c-0.455,0.19-0.905,0.375-1.354,0.561
					c-0.305,0.08-0.612,0.15-0.927,0.208c-4.098,0.752-7.606-0.965-10.38-3.839c-3.046-3.15-4.035-7.365-4.578-11.564
					c-0.029-0.219-0.337,0.049-0.325,0.199c0.383,5.174,1.576,9.337,5.254,13.122c1.997,2.052,4.667,2.978,7.398,3.046
					c-0.518,0.111-1.046,0.192-1.59,0.23c-2.58,0.181-4.909-1.409-6.615-3.158c-1.646-1.685-2.994-3.685-4.108-5.752
					c-0.983-1.824-2.758-6.269-0.301-7.807c0.012-0.005,0.023-0.005,0.04-0.018c1.169-0.736,2.392-1.267,2.807,0.554
					c0.241,1.047,0.469,2.101,0.681,3.155c0.399,1.993,1.294,3.794,2.509,5.408c2.276,3.026,6.182,4.387,9.858,4.037
					c7.939-0.752,9.52-10.466,7.87-16.754c0.033-0.022,0.07-0.045,0.102-0.066c0.034-0.021,0.067-0.057,0.097-0.093
					c0.529-0.247,1.059-0.487,1.602-0.697C139.535,104.731,135.813,113.894,128.733,116.794z"/>
			</g>
			<g>
				<path style="fill:#359255;" d="M114.52,109.328c-0.449-0.708-0.796-1.466-1.089-2.244c-0.013-0.018-0.027-0.028-0.037-0.048
					c-0.951-1.975-1.687-3.997-1.799-6.17c-0.077,0-0.164,0.041-0.244,0.109c-1.15,0.009-2.3,0.221-3.451,0.308
					c-1.408,0.106-2.853,0.017-4.267,0.017c-3.785-0.001-7.609-0.996-11.285-1.843c-2.924-0.674-5.479-1.511-8.18-2.792
					c-1.347-0.639-2.732-1.259-4.042-1.962c-0.294-0.157-0.617-0.36-0.946-0.564c-0.534-0.208-1.076-0.456-1.532-0.788
					c-0.058-0.021-0.12-0.055-0.177-0.071c0.01-0.018,0.015-0.04,0.02-0.059c-0.052-0.045-0.11-0.083-0.16-0.133
					c-3.425,2.032-6.529,4.333-9.611,6.854c-2.813,2.299-5.604,5.121-7.329,8.354c1.034-0.52,2.08-0.921,3.151-0.744
					c0.653,0,1.312,0.164,1.918,0.522c1.286,0.756,1.753,2.774,2.035,4.085c0.361,1.664-0.172,3.98,1.162,5.303
					c1.11,1.101,2.076,1.111,3.369,0.304c0.729-0.457,1.322-1.125,1.952-1.699c2.382-2.181,4.5-0.797,5.136,1.804
					c0.917,3.749,3.711,6.313,7.631,6.01c1.34-0.102,2.423-0.486,3.276-1.532c1.018-1.251,2.328-6.98,4.962-5.494
					c1.803,1.016,1.096,3.869,2.522,5.127c1.154,1.021,2.418,1.009,3.854,0.662c1.444-0.353,2.631-1.003,3.553-2.178
					c0.095-0.12,0.184-0.274,0.264-0.436c-0.049-1.264-0.136-2.715,0.502-3.602c0-0.012,0-0.022-0.002-0.038
					c0.182-0.253,0.47-0.489,0.923-0.695c0.835-0.384,1.729,0.05,2.465,0.378c1.251,0.563,2.672,1.468,4.05,0.68
					c1.395-0.798,2.326-1.931,2.937-3.402C116.674,111.842,115.246,110.471,114.52,109.328z"/>
				<path style="fill:#DCE35D;" d="M111.576,116.152c-1.521-0.234-2.607-1.41-4.226-1.397c-0.587,0.005-1.23,0.329-1.712,0.786
					c-0.079-1.912-0.134-3.876,0.007-5.789c-0.14,0.51-0.266,1.03-0.412,1.552c-0.07,0.249-0.133,0.501-0.198,0.747
					c-0.016,0.322-0.033,0.642-0.059,0.958c-0.093,1.139-0.102,2.333,0.009,3.494c-0.205,0.554-0.311,0.837-0.288,1.465
					c0.079,2.301-1.304,3.46-3.245,3.982c-2.512,0.673-3.452-0.395-4.15-1.972c0.015-0.03,0.024-0.058,0.027-0.083
					c0.036-0.373,0.052-0.748,0.076-1.121c-0.008-0.029-0.021-0.053-0.024-0.084c-0.089-0.951-0.083-1.87-0.089-2.784
					c-0.056-0.636-0.064-1.283-0.062-1.934c-0.038-0.528-0.111-1.061-0.224-1.596c-0.156,2.052-0.265,4.104-0.269,6.174
					c-0.099-0.258-0.196-0.521-0.304-0.78c-1.245-3.047-3.61-1.319-4.84,0.543c-1.181,1.796-1.394,4.269-3.903,4.677
					c-3.136,0.514-5.039-0.704-6.79-3.155c-1.235-1.729-0.877-3.946-2.664-5.302c-1.08-0.824-2.503-0.504-3.527,0.152
					c-0.523,0.34-1.017,0.796-1.478,1.217c-0.404,0.409-0.837,0.787-1.299,1.133c-0.81,0.599-1.482,0.563-2.011,0.231
					c0.014-0.016,0.026-0.029,0.036-0.042c1.722-2.834,3.045-5.937,4.732-8.806c0.321-0.549,0.637-1.12,0.955-1.689
					c0.514-1.212,1.042-2.417,1.574-3.624c-0.922,1.465-1.763,2.99-2.639,4.443c-1.841,3.047-3.59,6.152-5.038,9.401
					c-0.473-0.491-0.784-1.219-0.918-1.804c-0.521-2.283-0.325-4.315-1.386-6.502c-0.66-1.362-2.033-1.878-3.449-1.889
					c-0.467-0.002-1.507,0.251-2.234,0.663c1.975-2.496,3.968-4.848,6.423-6.955c2.864-2.456,5.87-4.723,9.01-6.813
					c0.011,0.011,0.018,0.019,0.032,0.023c1.287,0.424,2.706,1.718,3.891,2.415c1.198,0.704,2.513,1.239,3.728,1.925
					c2.867,1.623,6.368,2.177,9.561,2.872c3.547,0.771,6.952,1.323,10.58,1.322c1.607,0,3.174-0.026,4.77-0.223
					c0.066-0.008,1.426-0.229,1.708-0.075c0.012,0.052,0.024,0.101,0.036,0.154c-0.094,0.313-0.103,0.566-0.09,0.896
					c0.007,0.22,0.163,0.208,0.326,0.115c0.35,1.46,0.725,2.908,1.213,4.329c0.361,1.055,0.871,2.044,1.456,2.986
					c0.2,0.325,0.415,0.64,0.645,0.939C116.359,113.42,113.931,116.518,111.576,116.152z"/>
				<path style="opacity:0.4;fill:#359255;" d="M114.52,109.328c-0.449-0.708-0.796-1.466-1.089-2.244
					c-0.013-0.018-0.027-0.028-0.037-0.048c-0.951-1.975-1.687-3.997-1.799-6.17c-0.077,0-0.164,0.041-0.244,0.109
					c-1.15,0.009-2.3,0.221-3.451,0.308c-1.408,0.106-2.853,0.017-4.267,0.017c-3.785-0.001-7.609-0.996-11.285-1.843
					c-2.924-0.674-5.479-1.511-8.18-2.792c-1.347-0.639-2.732-1.259-4.042-1.962c-0.294-0.157-0.617-0.36-0.946-0.564
					c-0.534-0.208-1.076-0.456-1.532-0.788c-0.058-0.021-0.12-0.055-0.177-0.071c0.01-0.018,0.015-0.04,0.02-0.059
					c-0.052-0.045-0.11-0.083-0.16-0.133c-3.349,1.985-6.39,4.234-9.405,6.688c0.632-0.267,1.287-0.49,1.992-0.614
					c0.332-0.06,0.747,0.299,0.494,0.643c-2.195,2.965-3.41,7.13-3.221,11.106c0.124,0.442,0.222,0.874,0.304,1.248
					c0.126,0.583,0.144,1.244,0.171,1.914c0.38,1.458,0.997,2.826,1.86,4.036c0.782,0.395,1.553,0.247,2.5-0.344
					c0.729-0.457,1.322-1.125,1.952-1.699c2.382-2.181,4.5-0.797,5.136,1.804c0.345,1.413,0.957,2.653,1.796,3.643
					c1.379-1.936,4.155-4.297,6.318-3.223c1.197,0.597,1.621,1.696,1.423,2.996c-0.11,0.725-0.47,1.566-0.722,2.396
					c0.809-0.215,1.505-0.617,2.092-1.335c1.018-1.251,2.328-6.98,4.962-5.494c1.525,0.856,1.259,3.025,2,4.44
					c0.348-2.134,0.891-4.212,1.404-6.313c0.393-1.604,0.753-3.177,1.72-4.548c0.165-0.231,0.47-0.296,0.686-0.086
					c1.436,1.363,1.346,3.973,1.355,5.789c0.011,2.024-0.209,4.2-0.062,6.277c1.116-0.383,2.066-0.979,2.825-1.949
					c0.095-0.12,0.184-0.274,0.264-0.436c-0.049-1.264-0.136-2.715,0.502-3.602c0-0.012,0-0.022-0.002-0.038
					c0.107-0.147,0.256-0.29,0.446-0.425c-0.149-1.408-0.126-2.848,0.278-4.189c0.296-0.972,1.146-2.796,2.522-2.355
					c1.673,0.527,2.708,2.566,3.406,4.048c0.461,0.976,0.864,1.975,1.211,2.99c1.148-0.776,1.969-1.799,2.51-3.108
					C116.674,111.842,115.246,110.471,114.52,109.328z"/>
			</g>
			<g>
				<path style="fill:#359255;" d="M90.893,109.17c0.006-0.837,0.121-1.662,0.298-2.478c-0.003-0.02-0.01-0.034-0.007-0.057
					c0.263-2.178,0.735-4.277,1.812-6.168c-0.063-0.042-0.159-0.055-0.264-0.039c-0.974-0.614-2.053-1.053-3.069-1.603
					c-1.244-0.671-2.414-1.525-3.604-2.287c-3.186-2.044-5.869-4.943-8.508-7.639c-2.098-2.146-3.799-4.228-5.383-6.765
					c-0.788-1.264-1.62-2.534-2.345-3.833c-0.162-0.289-0.323-0.636-0.49-0.986c-0.339-0.465-0.662-0.963-0.865-1.49
					c-0.039-0.048-0.071-0.108-0.111-0.152c0.018-0.011,0.033-0.026,0.047-0.041c-0.019-0.063-0.046-0.131-0.062-0.199
					c-3.981-0.136-7.837,0.127-11.79,0.588c-3.611,0.419-7.482,1.291-10.678,3.082c1.149,0.12,2.247,0.349,3.053,1.073
					c0.551,0.352,1.016,0.845,1.334,1.475c0.674,1.328-0.021,3.28-0.489,4.536c-0.596,1.598-2.291,3.261-1.882,5.092
					c0.341,1.525,1.148,2.055,2.673,2.072c0.86,0.01,1.72-0.233,2.56-0.379c3.183-0.549,4.221,1.757,3.352,4.291
					c-1.249,3.651-0.28,7.316,3.184,9.177c1.186,0.636,2.301,0.897,3.585,0.477c1.53-0.502,5.726-4.62,7.145-1.949
					c0.969,1.829-1.167,3.847-0.645,5.68c0.422,1.482,1.491,2.153,2.887,2.635c1.407,0.481,2.757,0.576,4.167,0.084
					c0.146-0.05,0.304-0.134,0.459-0.225c0.639-1.091,1.349-2.359,2.362-2.761c0.008-0.011,0.014-0.024,0.019-0.033
					c0.29-0.117,0.66-0.16,1.154-0.09c0.91,0.128,1.429,0.976,1.87,1.648c0.752,1.148,1.459,2.679,3.045,2.759
					c1.604,0.077,2.999-0.371,4.309-1.282C91.353,112.451,90.889,110.527,90.893,109.17z"/>
				<path style="fill:#DCE35D;" d="M84.733,113.33c-1.154-1.02-1.435-2.592-2.803-3.454c-0.496-0.313-1.215-0.389-1.865-0.264
					c0.964-1.653,1.978-3.336,3.129-4.872c-0.395,0.355-0.78,0.727-1.186,1.086c-0.194,0.171-0.379,0.347-0.569,0.521
					c-0.187,0.263-0.375,0.523-0.567,0.773c-0.69,0.91-1.343,1.91-1.877,2.949c-0.471,0.355-0.711,0.535-1.032,1.076
					c-1.174,1.981-2.965,2.21-4.88,1.604c-2.479-0.788-2.694-2.194-2.433-3.9c0.028-0.016,0.053-0.035,0.068-0.053
					c0.232-0.294,0.448-0.603,0.67-0.904c0.009-0.028,0.011-0.055,0.025-0.084c0.438-0.848,0.938-1.623,1.426-2.392
					c0.297-0.563,0.638-1.116,0.991-1.661c0.256-0.467,0.479-0.955,0.675-1.465c-1.24,1.645-2.439,3.314-3.559,5.053
					c0.058-0.269,0.114-0.543,0.165-0.82c0.598-3.239-2.328-3.06-4.367-2.152c-1.961,0.874-3.478,2.842-5.81,1.833
					c-2.918-1.264-3.864-3.313-4.016-6.321c-0.109-2.122,1.391-3.795,0.617-5.901c-0.465-1.279-1.836-1.773-3.051-1.773
					c-0.626,0-1.286,0.118-1.901,0.227c-0.56,0.124-1.131,0.206-1.705,0.252c-1.005,0.067-1.555-0.323-1.817-0.888
					c0.017-0.006,0.036-0.009,0.053-0.018c2.979-1.457,5.767-3.355,8.734-4.863c0.566-0.286,1.141-0.598,1.716-0.905
					c1.086-0.744,2.183-1.475,3.279-2.2c-1.565,0.733-3.098,1.566-4.618,2.314c-3.193,1.573-6.34,3.243-9.314,5.2
					c-0.132-0.67-0.003-1.451,0.2-2.016c0.795-2.203,2.057-3.808,2.342-6.223c0.177-1.501-0.698-2.676-1.885-3.45
					c-0.394-0.254-1.405-0.602-2.242-0.646c3.01-1.036,5.958-1.943,9.161-2.394c3.738-0.524,7.491-0.81,11.264-0.872
					c0.004,0.01,0.004,0.022,0.013,0.033c0.855,1.054,1.354,2.909,1.974,4.133c0.63,1.241,1.448,2.399,2.101,3.632
					c1.54,2.912,4.188,5.269,6.5,7.575c2.571,2.564,5.14,4.864,8.197,6.821c1.354,0.865,2.687,1.689,4.136,2.387
					c0.058,0.026,1.324,0.573,1.478,0.856c-0.017,0.049-0.034,0.101-0.052,0.15c-0.247,0.213-0.392,0.419-0.56,0.704
					c-0.111,0.188,0.023,0.267,0.214,0.274c-0.494,1.416-0.959,2.84-1.316,4.302c-0.263,1.081-0.369,2.19-0.385,3.299
					c-0.006,0.38,0.006,0.762,0.036,1.14C90.236,113.608,86.521,114.906,84.733,113.33z"/>
				<path style="opacity:0.4;fill:#359255;" d="M90.893,109.17c0.006-0.837,0.121-1.662,0.298-2.478
					c-0.003-0.02-0.01-0.034-0.007-0.057c0.263-2.178,0.735-4.277,1.812-6.168c-0.063-0.042-0.159-0.055-0.264-0.039
					c-0.974-0.614-2.053-1.053-3.069-1.603c-1.244-0.671-2.414-1.525-3.604-2.287c-3.186-2.044-5.869-4.943-8.508-7.639
					c-2.098-2.146-3.799-4.228-5.383-6.765c-0.788-1.264-1.62-2.534-2.345-3.833c-0.162-0.289-0.323-0.636-0.49-0.986
					c-0.339-0.465-0.662-0.963-0.865-1.49c-0.039-0.048-0.071-0.108-0.111-0.152c0.018-0.011,0.033-0.026,0.047-0.041
					c-0.019-0.063-0.046-0.131-0.062-0.199c-3.892-0.131-7.666,0.121-11.529,0.562c0.677,0.115,1.349,0.28,2.012,0.557
					c0.311,0.128,0.467,0.653,0.067,0.807c-3.447,1.312-6.717,4.165-8.704,7.612c-0.134,0.439-0.282,0.857-0.416,1.217
					c-0.208,0.56-0.552,1.124-0.891,1.703c-0.467,1.434-0.685,2.919-0.61,4.402c0.447,0.755,1.175,1.048,2.292,1.059
					c0.86,0.01,1.72-0.233,2.56-0.379c3.183-0.549,4.221,1.757,3.352,4.291c-0.472,1.376-0.625,2.751-0.453,4.036
					c2.205-0.885,5.817-1.375,7.06,0.695c0.687,1.147,0.449,2.303-0.418,3.292c-0.485,0.549-1.243,1.062-1.902,1.628
					c0.799,0.255,1.602,0.29,2.482,0.002c1.53-0.502,5.726-4.62,7.145-1.949c0.817,1.546-0.574,3.228-0.712,4.816
					c1.441-1.605,3.018-3.064,4.586-4.553c1.195-1.141,2.348-2.271,3.9-2.902c0.263-0.108,0.555,0.005,0.625,0.294
					c0.473,1.921-1.011,4.073-1.983,5.605c-1.083,1.712-2.441,3.426-3.434,5.253c1.143,0.282,2.266,0.292,3.427-0.115
					c0.146-0.05,0.304-0.134,0.459-0.225c0.639-1.091,1.349-2.359,2.362-2.761c0.008-0.011,0.014-0.024,0.019-0.033
					c0.171-0.07,0.373-0.109,0.605-0.117c0.637-1.267,1.432-2.469,2.496-3.378c0.773-0.661,2.472-1.735,3.396-0.625
					c1.121,1.349,0.896,3.624,0.683,5.248c-0.137,1.069-0.336,2.13-0.593,3.171c1.386-0.035,2.628-0.454,3.791-1.264
					C91.353,112.451,90.889,110.527,90.893,109.17z"/>
			</g>
			<path style="fill:#359255;" d="M84.574,103.948c-0.562,2.191-1.21,4.347-1.98,6.476c-0.589,1.624-1.248,3.288-1.627,4.992
				c0.567-0.983,1.056-2.005,1.519-3.038c0.718-2.317,1.474-4.619,2.076-6.97C84.579,104.922,84.581,104.436,84.574,103.948z"/>
			<path style="fill:#6F3E2A;" d="M156.239,84.764c-0.152-0.019-0.347,0.179-0.407,0.349c-2.758-0.484-6.038,0.28-8.58,0.934
				c-3.325,0.859-6.432,2.462-9.428,4.1c-5.279,2.89-10.314,6.692-13.089,12.159c-2.51,4.942-1.899,11.456,3.951,13.443
				c4.482,1.524,12.034-0.515,14.25-5.041c2.173,0.798,5.202-1.664,6.374-3.297c0.431-0.605,0.761-1.711,1.473-1.977
				c0.606-0.227,1.111-0.592,1.61-0.99c1.859-1.488,1.991-4.25,3.949-5.604c0.975-0.674,1.648-1.584,2.125-2.646
				c0.269-0.601,0.256-1.315,0.255-1.953c-0.04-0.382-0.098-0.759-0.171-1.135c-0.189-1.098,0.564-1.454,0.968-2.175
				C160.916,88.411,158.998,85.106,156.239,84.764z"/>
			<path style="fill:#AD6449;" d="M157.949,92.229c-0.254,0.864-0.106,1.584,0.007,2.481c0.289,2.306-1.666,3.006-2.923,4.347
				c-0.707,0.751-0.911,1.532-1.266,2.487c-0.708,1.91-2.051,2.31-3.467,3.378c-0.482,0.365-0.81,0.831-1.061,1.383
				c-0.702,1.547-4.051,4.681-6.089,3.515c-0.261-0.147-0.548,0.164-0.628,0.391c-1.17,3.247-5.256,4.519-8.365,5.044
				c-2.489,0.418-5.038,0.129-7.188-1.233c-5.58-3.527-2.457-11.345,0.697-15.314c3.104-3.908,7.594-6.593,11.953-8.875
				c2.426-1.27,4.907-2.34,7.54-3.1c2.89-0.832,6.945-1.51,9.853-0.63c0.12,0.037,0.268-0.069,0.355-0.202
				c0.669,0.458,1.116,1.144,1.542,2.018C159.816,89.786,158.4,90.694,157.949,92.229z"/>
			<path style="fill:#AD6449;" d="M157.949,92.229c0.451-1.534,1.867-2.442,0.96-4.312c-0.426-0.874-0.873-1.56-1.542-2.018
				c-0.088,0.133-0.235,0.239-0.355,0.202c-2.907-0.88-6.963-0.202-9.853,0.63c-2.633,0.76-5.114,1.83-7.54,3.1
				c-4.359,2.282-8.849,4.967-11.953,8.875c-1.792,2.254-3.569,5.744-3.753,8.991c2.858-1.684,7.403-1.395,7.08,2.655
				c-0.143,1.761-1.248,3.362-2.727,4.33c1.844,0.774,3.886,0.911,5.891,0.571c3.109-0.525,7.195-1.797,8.365-5.044
				c0.08-0.227,0.367-0.538,0.628-0.391c2.038,1.166,5.387-1.968,6.089-3.515c0.252-0.552,0.579-1.018,1.061-1.383
				c1.416-1.068,2.759-1.468,3.467-3.378c0.355-0.955,0.559-1.736,1.266-2.487c1.257-1.341,3.212-2.041,2.923-4.347
				C157.843,93.813,157.695,93.093,157.949,92.229z M134.912,112.52c-1.74,0.183-3.138-1.223-3.02-2.973
				c0.125-1.792,1.482-2.81,3.236-2.519c0.046,0.008,0.076,0.025,0.11,0.041c1.048-0.321,2.181,0.358,2.593,1.573
				C138.523,110.676,136.886,112.313,134.912,112.52z M141.064,109.179c-0.173,0.331-0.505,0.54-0.789,0.764
				c-0.202,0.159-0.556,0.192-0.688-0.088c-0.168-0.359-0.313-0.736-0.106-1.111c0.122-0.224,0.354-0.266,0.541-0.391
				c0.007-0.043,0.007-0.083,0.021-0.128c0.069-0.208,0.237-0.341,0.43-0.423c0.23-0.104,0.594-0.049,0.642,0.258
				C141.174,108.428,141.247,108.834,141.064,109.179z M141.874,106.563c-1.124-0.114-1.684-1.154-1.22-2.172
				c0.488-1.068,1.693-1.461,2.779-1.15c0.146,0.04,0.233,0.137,0.274,0.247c0.342,0.319,0.535,0.828,0.476,1.341
				C144.045,106.058,143.069,106.687,141.874,106.563z M150.269,103.025c-0.036,0.03-0.082,0.045-0.12,0.068
				c-0.236,0.43-0.614,0.781-1.193,0.949c-1.059,0.311-2.143-0.025-2.63-1.073c-0.381-0.819-0.132-1.67,0.474-2.229
				c0.473-0.943,1.62-1.609,2.561-0.907c0.116,0.083,0.209,0.194,0.305,0.297c0.364,0.19,0.677,0.534,0.881,1.003
				C150.821,101.768,150.863,102.558,150.269,103.025z M153.455,97.764c-0.14,0.235-0.331,0.392-0.527,0.561
				c-0.018,0.057-0.032,0.112-0.055,0.166c-0.188,0.446-0.772,0.176-0.792-0.236c0-0.008-0.005-0.008-0.007-0.012
				c-0.05-0.197-0.126-0.456-0.064-0.654c0.059-0.183,0.206-0.306,0.375-0.339c0.009-0.023,0.015-0.049,0.024-0.071
				c0.099-0.231,0.407-0.255,0.599-0.159l0.291,0.146C153.511,97.272,153.57,97.568,153.455,97.764z M155.409,95.502
				c-0.563,0-0.563-0.873,0-0.873C155.973,94.629,155.973,95.502,155.409,95.502z"/>
			<path style="fill:#7D1300;" d="M102.061,102.244c-2.842-0.725-5.721-1.492-8.457-2.59c-5.969-2.398-12.831-3.44-18.38-6.79
				c-0.174-0.104-0.435,0.123-0.492,0.329c-3.009,3.74-6.171,8.396-6.135,13.407c0.036,4.807,3.111,8.631,7.432,10.486
				c5.013,2.153,11.425,0.599,16.062-1.774c4.626-2.368,7.427-6.919,9.981-11.252c0.157-0.024,0.369-0.182,0.44-0.352
				C102.807,102.996,103.04,102.491,102.061,102.244z"/>
			<g>
				<path style="fill:#F26B6C;" d="M93.234,100.524c-0.025,0.026-0.047,0.054-0.058,0.074c-2.591,5.096-7.716,8.447-13.479,7.823
					c-2.261-0.246-4.478-1.137-5.534-3.259c-1.644-3.306,0.758-7.53,2.644-10.146c0.09-0.126,0.104-0.239,0.074-0.317
					c3.738,2.029,8.211,2.991,12.154,4.284C90.456,99.447,91.842,99.995,93.234,100.524z"/>
				<path style="fill:#F04943;" d="M74.913,93.489c0.564,0.405,1.16,0.768,1.771,1.108c-0.064,0.017-0.137,0.063-0.205,0.154
					c-3.543,4.681-5.952,12.498,1.654,14.341c6.343,1.538,12.485-2.485,15.427-7.969c0.126-0.112,0.229-0.252,0.262-0.383
					c0.978,0.362,1.96,0.715,2.967,1.008c0.302,0.085,0.599,0.179,0.898,0.269c-0.137,0.077-0.266,0.193-0.318,0.326
					c-0.952,2.367-3.109,4.636-4.877,6.367c-2.336,2.287-4.952,3.686-8.088,4.538c-5.411,1.466-13.041,0-14.943-5.783
					C68.699,102.448,72.031,97.291,74.913,93.489z"/>
				<path style="fill:#EE3524;" d="M101.926,103.676c-0.073,0.015-0.146,0.057-0.205,0.142c-2.497,3.656-4.692,7.487-8.467,9.99
					c-4.326,2.87-10.4,4.053-15.442,2.801c-3.09-0.77-5.722-2.931-7.204-5.7c2.871,3.437,8.487,4.413,12.942,3.333
					c3.652-0.887,6.499-2.387,9.229-4.952c2.042-1.922,4.271-4.38,5.317-7.006c0.02-0.054,0.023-0.094,0.031-0.133
					c0.846,0.26,1.69,0.521,2.537,0.767C101.425,103.138,102.086,102.87,101.926,103.676z"/>
			</g>
			<path style="opacity:0.4;fill:#7D1300;" d="M102.417,102.148c-2.844-0.726-5.722-1.492-8.458-2.591
				c-5.969-2.398-12.83-3.441-18.38-6.791c-0.175-0.105-0.435,0.125-0.492,0.329c-2.287,2.845-4.661,6.221-5.651,9.877
				c0.305-0.34,0.635-0.665,1.009-0.955c0.261-0.201,0.619-0.145,0.73,0.193c0.558,1.682,0.339,3.993,1.859,5.202
				c1.468,1.163,3.374,1.866,5.198,2.269c3.927,0.862,6.909-0.495,10.617-1.438c0.31-0.079,0.642,0.212,0.537,0.537
				c-1.405,4.342-8.162,4.471-12.268,4.205c3.376,2.41,9.183,0.998,12.561-0.466c2.441-1.059,3.382,0.23,3.956,2.003
				c3.93-2.494,6.463-6.614,8.79-10.562c0.157-0.02,0.37-0.177,0.441-0.35C103.161,102.901,103.396,102.396,102.417,102.148z"/>
			<path style="fill:#359255;" d="M119.376,101.02c0.987,2.036,2.052,4.02,3.232,5.952c0.899,1.475,1.877,2.975,2.59,4.565
				c-0.753-0.848-1.435-1.753-2.095-2.673c-1.163-2.127-2.363-4.231-3.426-6.416C119.566,101.977,119.465,101.5,119.376,101.02z"/>
			<path style="fill:#7D1300;" d="M101.749,104.365c0.106,0.151,0.345,0.264,0.504,0.255c3.368,3.735,7.019,7.638,12.024,9.036
				c5.017,1.4,11.609,1.643,16.095-1.467c3.861-2.68,6.113-7.038,5.19-11.755c-0.964-4.919-4.991-8.852-8.688-11.916
				c-0.096-0.189-0.396-0.363-0.548-0.225c-4.769,4.391-11.285,6.779-16.656,10.319c-2.462,1.625-5.131,2.948-7.772,4.226
				C100.992,103.278,101.321,103.725,101.749,104.365z"/>
			<g>
				<path style="fill:#F26B6C;" d="M114.015,97.043c3.605-2.05,7.796-3.886,11.056-6.618c-0.014,0.082,0.024,0.19,0.134,0.294
					c2.373,2.191,5.566,5.849,4.614,9.414c-0.609,2.292-2.605,3.607-4.771,4.298c-5.524,1.761-11.214-0.5-14.771-4.978
					c-0.015-0.018-0.04-0.041-0.071-0.059C111.464,98.596,112.716,97.784,114.015,97.043z"/>
				<path style="fill:#F04943;" d="M134.889,101.453c-0.713,6.046-7.895,9.004-13.491,8.647c-3.243-0.209-6.085-1.058-8.829-2.834
					c-2.077-1.341-4.645-3.137-6.051-5.267c-0.077-0.12-0.229-0.206-0.374-0.255c0.271-0.149,0.547-0.299,0.823-0.445
					c0.929-0.483,1.82-1.025,2.708-1.578c0.056,0.123,0.188,0.241,0.334,0.321c3.974,4.791,10.795,7.507,16.705,4.735
					c7.084-3.322,3.166-10.502-1.241-14.385c-0.084-0.073-0.163-0.106-0.23-0.106c0.529-0.456,1.041-0.932,1.515-1.441
					C130.34,91.994,134.634,96.385,134.889,101.453z"/>
				<path style="fill:#F26A5A;" d="M103.401,103.222c0.782-0.411,1.558-0.838,2.334-1.261c0.014,0.039,0.025,0.074,0.06,0.125
					c1.547,2.364,4.221,4.331,6.607,5.807c3.187,1.969,6.273,2.871,10.032,3.011c4.58,0.169,9.889-1.906,12.016-5.851
					c-0.899,3.015-3.05,5.657-5.923,7.025c-4.688,2.233-10.879,2.285-15.69,0.336c-4.195-1.699-7.113-5.019-10.288-8.099
					c-0.075-0.073-0.155-0.102-0.23-0.104C102.001,103.457,102.702,103.588,103.401,103.222z"/>
			</g>
			<path style="opacity:0.4;fill:#7D1300;" d="M101.531,102.813c2.643-1.274,5.309-2.601,7.773-4.224
				c5.371-3.539,11.886-5.931,16.655-10.318c0.151-0.14,0.451,0.035,0.548,0.224c2.809,2.33,5.808,5.165,7.508,8.548
				c-0.367-0.271-0.756-0.521-1.179-0.731c-0.296-0.146-0.636-0.02-0.679,0.337c-0.21,1.758,0.466,3.979-0.783,5.466
				c-1.206,1.434-2.933,2.504-4.641,3.259c-3.678,1.63-6.87,0.894-10.691,0.707c-0.32-0.016-0.589,0.337-0.418,0.635
				c2.242,3.975,8.888,2.754,12.859,1.676c-2.829,3.036-8.802,2.809-12.403,2.046c-2.602-0.549-3.268,0.901-3.477,2.756
				c-4.348-1.661-7.651-5.194-10.72-8.596c-0.158,0.009-0.398-0.104-0.501-0.259C100.953,103.699,100.624,103.254,101.531,102.813z"
				/>
			<path style="fill:#F6EB79;" d="M155.574,86.369c-0.6-1.563-2.76,0.987-2.747,2.001c-0.141,0.175-0.248,0.339-0.291,0.462
				c-0.987,2.808-1.138,3.953-4.207,4.791c-1.998,0.54-3.79,1.556-4.844,3.42c-0.973,1.715-0.005,6.064-2.57,4.312
				c-1.729-1.18-4.291-2.048-6.336-1.134c-2.369,1.06-3.957,2.631-5.239,4.494c-0.264,0.213-0.523,0.437-0.774,0.678
				c-1.23,1.19-1.936,2.948-2.787,4.402c-0.732,1.254-1.562,1.901-2.434,2.137c-2.518-0.722-5.347-5.005-6.438-6.214
				c-1.815-2.02-4.101-2.974-6.745-2.941c-4.599,0.06-7.394,6.309-9.289,9.534c-0.086,0.148-0.174,0.269-0.258,0.403
				c-2.1,2.022-4.531,3.104-8.274,1.132c-4.107-2.165-5.447-8.214-8.22-11.691c-1.66-2.08-3.178-3.612-5.03-4.359
				c-1.249-0.707-2.737-0.924-4.52-0.324c-0.241,0.042-0.484,0.09-0.739,0.152c-0.188,0.045-0.387,0.197-0.567,0.404
				c-3.595,1.766-5.47,4.819-6.329,8.799c-0.431,1.991,2.232,0.346,2.607-0.594c1.839-4.585,6.661-6.526,9.397-1.473
				c1.442,2.662,2.598,5.307,4.24,7.889c2.786,4.372,6.012,7.497,11.46,7.569c2.864,0.034,5.236-1.753,7.124-3.95
				c0.013-0.011,0.026-0.022,0.041-0.036c1.84-1.564,3.689-6.431,6.153-6.874c3.763-0.679,6.371,3.343,9.623,5.289
				c1.21,1.014,2.619,1.618,4.397,1.761c4.096,0.333,6.973-3.683,8.451-6.94c0.253-0.559,0.528-1.214,0.862-1.861
				c1.68-1.2,3.477-1.555,5.605,0.111c1.496,1.169,2.197,2.603,4.349,2.414c1.998-0.171,3.813-1.733,5.02-3.224
				c1.27-1.567,1.793-3.436,1.959-5.397c0.104-1.22,0.028-2.456,0.109-3.677c0.007-0.1,0.023-0.197,0.049-0.287
				c0.494-0.193,1.059-0.338,1.635-0.538c1.898-0.655,3.268-1.905,4.166-3.453C156.018,91.698,156.615,89.085,155.574,86.369z"/>
			<path style="fill:#EDAC63;" d="M72.302,100.155c3.226-1.388,6.516,0.353,8.568,2.838c2.576,3.12,3.516,7.426,6.503,10.233
				c1.957,1.837,5.504,3.896,8.23,2.383c0.394-0.221,0.741-0.481,1.068-0.766c-1.241,0.152-2.652-0.112-4.331-0.998
				c-4.107-2.165-5.447-8.214-8.22-11.691c-1.66-2.08-3.178-3.612-5.03-4.359c-1.249-0.707-2.737-0.924-4.52-0.324
				c-0.241,0.042-0.484,0.09-0.739,0.152c-0.188,0.045-0.387,0.197-0.567,0.404c-3.595,1.766-5.47,4.819-6.329,8.799
				c-0.076,0.344-0.053,0.573,0.032,0.724C67.519,104.394,69.256,101.465,72.302,100.155z"/>
			<path style="fill:#EDAC63;" d="M109.688,105.901c3.307,0.671,5.392,3.055,7.842,5.163c2.597,2.23,5.966,3.969,8.126,0.262
				c0.88-1.507,1.458-3.146,1.98-4.803c-0.707,1.032-1.246,2.228-1.856,3.271c-0.732,1.254-1.562,1.901-2.434,2.137
				c-2.518-0.722-5.347-5.005-6.438-6.214c-1.815-2.02-4.101-2.974-6.745-2.941c-2.619,0.034-4.652,2.078-6.269,4.424
				C105.648,106.15,107.651,105.491,109.688,105.901z"/>
			<path style="fill:#EDAC63;" d="M153.449,94.155c-0.639,0.506-1.38,0.96-2.144,1.253c-0.955,0.363-2.545,0.477-3.071,1.489
				c-0.697,1.337-0.282,3.02-0.49,4.465c-0.394,2.777-2.67,6.801-5.994,6.58c-1.823-0.121-2.741-1.061-4.184-2.016
				c-1.655-1.091-3.146-0.492-4.159,0.726c1.077-0.193,2.225,0.071,3.492,1.063c1.496,1.169,2.197,2.603,4.349,2.414
				c1.998-0.171,3.813-1.733,5.02-3.224c1.27-1.567,1.793-3.436,1.959-5.397c0.104-1.22,0.028-2.456,0.109-3.677
				c0.007-0.1,0.023-0.197,0.049-0.287c0.494-0.193,1.059-0.338,1.635-0.538c1.898-0.655,3.268-1.905,4.166-3.453
				c0.041-0.043,0.072-0.089,0.112-0.129C154.021,93.681,153.74,93.926,153.449,94.155z"/>
			<path style="fill:#FFFFFF;" d="M98.358,117.133c-2.466,0.534-4.415,0.724-6.872,0.013c-2.579-0.74-5.082-3.169-6.447-5.46
				c-0.263-0.442-0.968,0.329-0.799,0.705c2.372,5.327,8.739,9.789,14.108,5.539C98.514,117.8,98.843,117.028,98.358,117.133z"/>
			<path style="fill:#FFFFFF;" d="M118.643,112.481c-0.983-1.153-2.438-1.937-3.648-2.838c-1.339-0.998-2.479-1.594-4.097-1.985
				c-0.387-0.095-0.968,0.724-0.505,0.894c1.786,0.658,2.817,1.769,4.235,2.972c1.006,0.851,2.12,1.92,3.497,1.866
				C118.49,113.375,118.908,112.796,118.643,112.481z"/>
			<path style="fill:#FFFFFF;" d="M144.13,103.673c-2.063,1.469-3.746-0.172-5.577-1.13c-1.145-0.6-2.457-0.659-3.709-0.541
				c-2.214,0.214-3.921,2.444-4.858,4.241c-0.439,0.842,0.502,0.829,0.876,0.229c1.723-2.787,4.488-3.169,7.219-1.707
				c1.15,0.616,1.997,1.383,3.329,1.523c1.568,0.165,2.717-0.807,3.281-2.159C144.859,103.723,144.494,103.412,144.13,103.673z"/>
			<path style="fill:#FFFFFF;" d="M145.702,97.362c-0.007,0-0.012,0.007-0.02,0.009c-0.004,0-0.008-0.002-0.008-0.002
				c-0.355,0.032-0.701,0.339-0.854,0.644c-0.097,0.196-0.227,0.539-0.307,0.896c-0.025,0.059-0.05,0.122-0.068,0.179
				c-0.05,0.151-0.059,0.337-0.004,0.474c0.018,0.435,0.212,0.742,0.788,0.599c0.741-0.185,1.219-0.998,1.372-1.69
				C146.744,97.819,146.485,97.133,145.702,97.362z"/>
			<g>
				<g>
					<path style="fill:#8E523A;" d="M154.047,92.955c0.325-0.438,0.632-0.887,0.911-1.353c0.556-0.927,0.886-1.979,1.539-2.826
						c1.81-4.048,2.831-8.247,2.348-12.845c-0.61-5.813-3.669-11.313-7.185-15.86c-7.538-9.753-19.632-14.403-31.394-16.61
						c-12.762-2.396-25.912-1.067-37.821,4.121C72.418,51.946,62.54,58.855,58.314,69.312c-2.078,5.138-2.497,11.049-1.362,16.449
						c0.717,3.404,2.21,6.232,4.291,8.632c-0.116,0.053-0.227,0.237-0.134,0.321c3.154,2.896,6.149,5.337,10.123,7.041
						c4.121,1.769,8.514,3.099,12.803,4.39c8.692,2.619,18.157,2.593,27.145,2.058c8.962-0.531,17.955-2.272,26.438-5.22
						c3.88-1.349,7.314-3.392,10.763-5.595C150.43,96.082,152.385,94.663,154.047,92.955z"/>
					<path style="fill:#F8AD71;" d="M138.097,50.369c-12.062-6.159-26.745-8.564-40.136-6.495c-6.861,1.058-13.493,3.259-19.637,6.5
						c-5.691,3-11.387,6.813-15.329,11.993c-4.119,5.413-6.355,12.268-5.804,19.099c0.287,3.537,1.145,7.075,3.017,10.125
						c1.438,2.341,3.246,4.087,5.238,5.808c5.597,3.579,11.881,5.673,18.337,7.609c8.422,2.527,17.336,2.801,26.073,2.339
						c8.683-0.46,17.352-1.868,25.646-4.525c4.095-1.311,7.778-3.08,11.414-5.366c2.855-1.797,5.551-3.647,7.757-6.114
						c1.565-3.332,3.207-6.817,3.45-10.534C158.978,67.866,149.073,55.975,138.097,50.369z"/>
					<path style="fill:#F8AD71;" d="M57.634,84.681c0.397-4.153,0.757-8.273,2.429-12.235c1.82-4.315,4.551-8.012,8.061-11.11
						c7.981-7.042,17.748-12.359,28.281-14.27c10.285-1.865,21.81-2.381,32.027,0.174c4.877,1.222,9.317,3.333,13.757,5.642
						c0.188,0.098,0.375,0.198,0.563,0.298c-1.513-1.056-3.072-1.998-4.655-2.81c-12.062-6.159-26.745-8.564-40.136-6.495
						c-6.861,1.058-13.493,3.259-19.637,6.5c-5.691,3-11.387,6.813-15.329,11.993c-4.119,5.413-6.355,12.268-5.804,19.099
						C57.279,82.544,57.428,83.619,57.634,84.681z"/>
					<path style="fill:#FBD7A5;" d="M138.097,50.369c-5.979-3.054-12.601-5.18-19.393-6.303c4.998,1.482,9.854,3.55,14.075,6.495
						c5.26,3.668,9.918,9.169,9.364,15.99c-1.314,16.23-21.98,22.449-35.326,24.328c-6.785,0.955-13.546,0.714-20.262-0.621
						c-7.037-1.4-15.358-3.804-20.124-9.572c-5.161-6.248-3.436-13.939,0.504-20.372c1.048-1.714,2.269-3.476,3.638-5.169
						c-2.846,2.074-5.468,4.446-7.578,7.222c-4.119,5.413-6.355,12.268-5.804,19.099c0.287,3.537,1.145,7.075,3.017,10.125
						c1.438,2.341,3.246,4.087,5.238,5.808c5.597,3.579,11.881,5.673,18.337,7.609c8.422,2.527,17.336,2.801,26.073,2.339
						c8.683-0.46,17.352-1.868,25.646-4.525c4.095-1.311,7.778-3.08,11.414-5.366c2.855-1.797,5.551-3.647,7.757-6.114
						c1.565-3.332,3.207-6.817,3.45-10.534C158.978,67.866,149.073,55.975,138.097,50.369z"/>
					<path style="fill:#FBD7A5;" d="M142.04,52.688c1.106,1.278,2.108,2.654,3.02,4.072c2.075,3.233,3.952,6.63,4.517,10.49
						c0.998,6.822-1.222,13.7-5.805,18.84c-7.34,8.229-18.779,11.033-29.368,12.059c-6.095,0.591-12.224,0.648-18.338,0.405
						c-5.252-0.207-10.531-0.633-15.602-2.118c-8.83-2.58-18.731-8.837-21.152-18.354c-0.683-2.684-0.803-5.441-0.471-8.15
						c-1.356,3.667-1.967,7.604-1.65,11.535c0.287,3.537,1.145,7.075,3.017,10.125c1.438,2.341,3.246,4.087,5.238,5.808
						c5.597,3.579,11.881,5.673,18.337,7.609c8.422,2.527,17.336,2.801,26.073,2.339c8.683-0.46,17.352-1.868,25.646-4.525
						c4.095-1.311,7.778-3.08,11.414-5.366c2.855-1.797,5.551-3.647,7.757-6.114c1.565-3.332,3.207-6.817,3.45-10.534
						C158.873,69.439,151.324,58.889,142.04,52.688z"/>
				</g>
				<g>
					<path style="fill:#FFFFFF;" d="M111.208,64.795c-0.913-0.083-1.207,1.133-1.188,2.182c-0.047,0.438-0.05,0.842-0.056,1.003
						c-0.012,0.41-0.027,1.326,0.618,1.193c0.646-0.137,0.916-1.007,1.008-1.567C111.683,67.039,112.195,64.889,111.208,64.795z"/>
					<path style="fill:#FFFFFF;" d="M102.379,60.852c-0.482-0.22-1.395,0.385-1.683,0.962c-0.309,0.319-0.596,0.69-0.46,1.153
						c0.172,0.588,1.397-0.193,1.643-0.38C102.211,62.339,103.014,61.145,102.379,60.852z"/>
					<path style="fill:#FFFFFF;" d="M89.677,59.171c-0.145-0.048-0.311-0.061-0.481-0.058c-0.093-0.037-0.188-0.07-0.292-0.056
						c-0.175,0.017-0.333,0.079-0.484,0.153c-0.029,0.01-0.062,0.014-0.088,0.021c-0.452,0.108-0.828,0.32-1.103,0.685
						c-0.068,0.055-0.135,0.11-0.193,0.173c-0.29,0.319-0.256,0.772,0.153,0.94c0.371,0.154,1.02-0.039,1.389-0.138
						c0.496-0.132,1.041-0.383,1.382-0.773C90.308,59.724,90.122,59.324,89.677,59.171z"/>
					<path style="fill:#FFFFFF;" d="M105.294,70.325c-0.083-0.097-0.19-0.085-0.298-0.025c-0.078-0.098-0.257-0.102-0.426,0.076
						c-0.401,0.422-0.658,0.958-0.735,1.538c-0.057,0.423,0.019,1.018,0.533,1.048c0.517,0.025,0.918-0.749,1.075-1.123
						C105.636,71.385,105.618,70.71,105.294,70.325z"/>
					<path style="fill:#FFFFFF;" d="M122.597,69.008c-0.126-0.439-0.491-1.425-1.081-1.357c-0.297,0.036-0.526,0.332-0.579,0.611
						c-0.016,0.084-0.02,0.172-0.028,0.259c-0.151,0.324-0.065,0.692,0.05,1.069c0.106,0.347,0.252,0.584,0.47,0.888
						c0.204,0.29,0.288,0.551,0.604,0.742c0.191,0.115,0.413-0.039,0.533-0.191C123.075,70.385,122.799,69.705,122.597,69.008z"/>
					<path style="fill:#FFFFFF;" d="M127.513,64.345c-0.006-0.013-0.009-0.021-0.013-0.03c-0.033-0.077-0.122-0.11-0.199-0.102
						c-0.005,0.003-0.009,0.003-0.015,0.003c-0.269,0.026-0.691,0.539-0.423,0.751c-0.065,0.449,0.088,1.085,0.551,1.148
						c0.208,0.028,0.421-0.194,0.438-0.393C127.897,65.229,127.878,64.701,127.513,64.345z"/>
					<path style="fill:#FFFFFF;" d="M132.763,61.763c-0.044,0.021-0.096,0.057-0.143,0.095c-0.036-0.057-0.076-0.113-0.113-0.17
						c-0.156-0.237-0.579,0.195-0.452,0.395c0.361,0.563,0.762,1.47,1.485,1.616c0.19,0.036,0.414-0.198,0.421-0.378
						C133.982,62.777,133.523,61.415,132.763,61.763z"/>
					<path style="fill:#FFFFFF;" d="M118.344,59.672c-0.112-0.239-0.583,0.172-0.564,0.425c0.031,0.363,0.295,1.279,0.809,0.962
						C119.182,60.698,118.98,59.547,118.344,59.672z"/>
					<path style="fill:#FFFFFF;" d="M100.297,54.602c-0.105,0.003-0.198,0.021-0.284,0.052c-0.013-0.095-0.081-0.152-0.248-0.098
						c-0.354,0.116-0.656,0.276-0.935,0.525c-0.117,0.105-0.294,0.356-0.192,0.527c0.386,0.626,1.28,0.005,1.651-0.34
						C100.441,55.125,100.708,54.591,100.297,54.602z"/>
					<path style="fill:#FFFFFF;" d="M92.183,64.663c-0.344-0.068-0.654,0.071-0.896,0.3c-0.77,0.28-1.653,0.859-1.364,1.549
						c0.029,0.071,0.101,0.088,0.168,0.088c0.284-0.005,0.547-0.062,0.802-0.189c0.259-0.127,0.46-0.332,0.713-0.461
						c0.408-0.209,0.793-0.628,0.714-1.116C92.307,64.759,92.266,64.68,92.183,64.663z"/>
					<path style="fill:#FFFFFF;" d="M82.215,57.537c0.205-0.1,0.395-0.609,0.055-0.491c-0.519,0.183-1.064,0.536-1.175,1.109
						c-0.009,0.057,0.002,0.133,0.053,0.17c0.236,0.181,0.496,0.097,0.722-0.054c0.167-0.014,0.423-0.273,0.438-0.425
						c0.005-0.036,0.008-0.074,0.012-0.111C82.33,57.62,82.28,57.563,82.215,57.537z"/>
					<path style="fill:#FFFFFF;" d="M98.632,77.323c-0.033-0.071-0.118-0.11-0.194-0.097c-0.303,0.048-0.512,0.241-0.655,0.488
						c-0.544,0.508-0.708,1.29-0.417,2.008c0.025,0.063,0.101,0.085,0.162,0.08C98.425,79.739,98.96,78.036,98.632,77.323z"/>
					<path style="fill:#FFFFFF;" d="M112.626,77.101c-0.177-0.031-0.336-0.051-0.514-0.033c-0.262,0.026-0.729,0.487-0.53,0.773
						c0.014,0.021,0.028,0.045,0.043,0.065c-0.015,0.324,0.073,0.628,0.295,0.903c0.201,0.244,0.537-0.291,0.57-0.43
						c0.05-0.209,0.025-0.398-0.017-0.587C112.724,77.573,112.965,77.158,112.626,77.101z"/>
					<path style="fill:#FFFFFF;" d="M124.419,77.774c-0.079-0.187-0.184-0.359-0.28-0.539c-0.03-0.056-0.067-0.1-0.113-0.148
						c-0.106-0.105-0.12-0.165-0.152-0.135c0.018-0.045,0.049-0.082,0.055-0.128c0.025-0.197-0.104-0.302-0.279-0.275
						c-0.566-0.221-0.702,0.631-0.654,1.021c0.07,0.568,0.428,1.285,0.921,1.596c0.206,0.129,0.464-0.098,0.557-0.271
						C124.671,78.511,124.586,78.155,124.419,77.774z"/>
					<path style="fill:#FFFFFF;" d="M131.861,74.848c0-0.049,0-0.094-0.024-0.136c-0.031-0.059-0.06-0.071-0.113-0.107
						c-0.362-0.231-0.918,0.475-0.635,0.786c0.009,0.007,0.029,0.022,0.041,0.033c-0.01,0.048-0.01,0.096,0.011,0.134
						c0.12,0.242,0.242,0.467,0.525,0.517c0.189,0.034,0.398-0.161,0.443-0.337C132.2,75.391,132.011,75.136,131.861,74.848z"/>
					<path style="fill:#FFFFFF;" d="M136.283,67.225c-0.048-0.083-0.106-0.123-0.169-0.151c-0.019-0.048-0.054-0.089-0.127-0.1
						c-0.066,0.005-0.112-0.025-0.141-0.093c-0.247-0.272-0.678,0.354-0.647,0.577c0.004,0.02,0.016,0.028,0.019,0.047
						c-0.067,0.188-0.04,0.366,0.193,0.369c0.021,0,0.041-0.003,0.063-0.003c0.204,0.116,0.476,0.081,0.686-0.153
						C136.258,67.605,136.372,67.371,136.283,67.225z"/>
					<path style="fill:#FFFFFF;" d="M85.303,70.33c-0.251-0.375-0.677-0.445-1.074-0.262c-0.169,0.078-0.323,0.188-0.468,0.311
						c-0.047,0.009-0.092,0.016-0.14,0.032c-0.352,0.124-0.709,0.562-0.673,0.947c0.065,0.692,1.212,0.399,1.601,0.197
						c0.229-0.119,0.446-0.313,0.585-0.534C85.23,70.869,85.423,70.516,85.303,70.33z"/>
					<path style="fill:#FFFFFF;" d="M84.793,81.878c-0.001-0.003,0-0.005,0-0.007c-0.146-0.502-0.558-0.228-0.79,0.118
						c-0.22,0.142-0.389,0.353-0.468,0.636c-0.161,0.567,0.332,0.651,0.714,0.355c0.237-0.183,0.541-0.62,0.543-0.969
						C84.806,81.961,84.809,81.916,84.793,81.878z"/>
				</g>
			</g>
		</g>
	</g>
</g>
</svg>
