<svg class="svg-icon" style="width: 1em;height: 1em;vertical-align: middle;fill: currentColor;overflow: hidden;" viewBox="0 0 1024 1024" version="1.1" xmlns="http://www.w3.org/2000/svg"><path d="M460.672 662.016L372.48 557.44l-81.408 96.512v23.424h441.856v-17.792L597.76 499.456z" fill="#6468F1" /><path d="M379.09882 444.457707a16.512 16.384 45.012 1 0 23.175328-23.165622 16.512 16.384 45.012 1 0-23.175328 23.165622Z" fill="#6468F1" /><path d="M291.072 595.584l77.824-92.16c1.92-2.176 5.248-2.176 7.168 0l84.608 100.224 133.632-158.336c1.92-2.176 5.248-2.176 7.168 0l131.456 155.904V348.416H291.072v247.168zM395.904 381.44c24.192 2.432 43.776 22.016 46.208 46.208 3.2 32.64-24.064 59.904-56.704 56.704-24.192-2.432-43.776-22.016-46.208-46.208-3.2-32.64 24.064-59.904 56.704-56.704z" fill="#6468F1" /><path d="M512 22.784c-270.72 0-490.112 219.392-490.112 490.112s219.392 490.24 490.112 490.24 490.112-219.392 490.112-490.112-219.392-490.24-490.112-490.24z m263.168 678.144c0 10.368-8.448 18.816-18.816 18.816H267.648c-10.368 0-18.816-8.448-18.816-18.816V324.992c0-10.368 8.448-18.816 18.816-18.816h488.704c10.368 0 18.816 8.448 18.816 18.816v375.936z" fill="#6468F1" /></svg>