<?xml version="1.0" encoding="utf-8"?>
<!-- Svg Vector Icons : http://www.onlinewebfonts.com/icon -->
<!DOCTYPE svg PUBLIC "-//W3C//DTD SVG 1.1//EN" "http://www.w3.org/Graphics/SVG/1.1/DTD/svg11.dtd">
<svg version="1.1" xmlns="http://www.w3.org/2000/svg" xmlns:xlink="http://www.w3.org/1999/xlink" x="0px" y="0px" viewBox="0 0 1000 1000" enable-background="new 0 0 1000 1000" xml:space="preserve">
<metadata> Svg Vector Icons : http://www.onlinewebfonts.com/icon </metadata>
<g><path d="M330.8,266.1c0,0-54.6-118.7,46-193.4c0,0,144.6-125.4,283.4,31.6c0,0,54.6,83.3,13.4,166.6c0,0,49.8,60.3-19.2,130.2c0,0-6.7,69.9-45,106.3v91L781.8,675c0,0,219.3,16.3,207.8,267.2c0,0,1.9,26.8-35.4,32.6H50.2c0,0-39.3-10.5-40.2-42.1c0,0,4.8-229.8,166.6-249.9l221.2-82.3l-8-108.2c0,0-46.6-48.8-43.7-94.8C346.1,397.3,283.9,335.1,330.8,266.1z"/></g>
</svg>