<?xml version="1.0" encoding="utf-8"?>
<!-- Svg Vector Icons : http://www.onlinewebfonts.com/icon -->
<!DOCTYPE svg PUBLIC "-//W3C//DTD SVG 1.1//EN" "http://www.w3.org/Graphics/SVG/1.1/DTD/svg11.dtd">
<svg version="1.1" xmlns="http://www.w3.org/2000/svg" xmlns:xlink="http://www.w3.org/1999/xlink" x="0px" y="0px" viewBox="0 0 1000 1000" enable-background="new 0 0 1000 1000" xml:space="preserve">
<metadata> Svg Vector Icons : http://www.onlinewebfonts.com/icon </metadata>
<g><path d="M713.9,10c34.7,0,62.9,28.2,62.9,62.9s-28.2,62.9-62.9,62.9l-16-2.1l-58.1,74.3c40.1,28.8,74.8,69.7,101.8,119c-68.8,22.2-152,35.2-241.6,35.2c-89.7,0-172.9-13-241.6-35.2c26.1-47.7,59.4-87.5,97.8-116.1l-59.4-76.1c-3.5,0.6-7,0.9-10.6,0.9c-34.7,0-62.9-28.2-62.9-62.9c0-34.7,28.2-62.9,62.9-62.9c34.7,0,62.9,28.2,62.9,62.9c0,12.6-3.7,24.4-10.1,34.2l60.5,77.4C430.9,169.3,464.7,161,500,161c33.6,0,65.9,7.5,96,21.4l62.4-79.8c-4.7-8.8-7.4-18.9-7.4-29.7C651,38.2,679.2,10,713.9,10z M915.2,538.5c20.8,0,37.7,16.9,37.7,37.7c0,20.8-16.9,37.7-37.7,37.7H800.7c-1.8,27.3-5.5,53.8-10.9,79.3l133.1,62.1c18.9,8.8,27.1,31.3,18.3,50.2c-8.8,18.9-31.3,27.1-50.2,18.3l-122.6-57.2C721.9,890.5,631.3,978,525.2,990V412.3c89.1-2.4,170.9-17.7,237.1-41.9l4.9,12.3l128.6-49.4c19.5-7.5,41.3,2.2,48.8,21.7c7.5,19.5-2.3,41.3-21.7,48.8l-134,51.4c5.9,26.7,9.9,54.6,11.8,83.3H915.2z M84.8,538.5h114.5c1.9-28.7,5.9-56.6,11.8-83.3l-134-51.4c-19.5-7.5-29.2-29.3-21.7-48.8c7.5-19.5,29.3-29.2,48.8-21.7l128.6,49.4l4.9-12.3c66.2,24.2,148,39.5,237.1,41.9V990c-106.1-12-196.7-99.5-243.3-223.4L109,823.8c-18.9,8.8-41.3,0.6-50.2-18.3c-8.8-18.9-0.6-41.4,18.3-50.2l133.1-62.1c-5.4-25.5-9.2-52.1-10.9-79.3H84.8C63.9,614,47,597.1,47,576.2C47,555.4,63.9,538.5,84.8,538.5z"/></g>
</svg>