<?xml version="1.0" encoding="utf-8"?>
<!-- Svg Vector Icons : http://www.onlinewebfonts.com/icon -->
<!DOCTYPE svg PUBLIC "-//W3C//DTD SVG 1.1//EN" "http://www.w3.org/Graphics/SVG/1.1/DTD/svg11.dtd">
<svg version="1.1" xmlns="http://www.w3.org/2000/svg" xmlns:xlink="http://www.w3.org/1999/xlink" x="0px" y="0px" viewBox="0 0 1000 1000" enable-background="new 0 0 1000 1000" xml:space="preserve">
<metadata> Svg Vector Icons : http://www.onlinewebfonts.com/icon </metadata>
<g><path d="M500,10C229.4,10,10,229.4,10,500s219.4,490,490,490c270.6,0,490-219.4,490-490S770.6,10,500,10z M533.4,165.9c36.9,0,66.8,30,66.8,66.8c0,36.9-30,66.8-66.8,66.8c-36.9,0-66.8-30-66.8-66.8C466.5,195.8,496.5,165.9,533.4,165.9z M658.6,651.1l-149,144c-47.9,44.2-99.4,7.7-85.9-65.5l37.8-279.3l-50.6-39.4c-21.9-18.1-32.2-44.5,8.2-44.5h165.7L535,668.6l107.1-41.7C667.8,614.9,684.2,626.3,658.6,651.1z"/></g>
</svg>